<mxfile host="app.diagrams.net" modified="2020-06-12T09:34:21.889Z" agent="5.0 (Windows)" etag="p3gE-ec537pdouHotI-r" version="13.2.3" type="github">
  <diagram id="dGhLDyCEsdbQbEHdKFD2" name="Page-1">
    <mxGraphModel dx="756" dy="496" grid="1" gridSize="10" guides="1" tooltips="1" connect="1" arrows="1" fold="1" page="1" pageScale="1" pageWidth="850" pageHeight="1100" math="0" shadow="0">
      <root>
        <mxCell id="0" />
        <mxCell id="1" parent="0" />
        <mxCell id="lIt5fSWMCFl_ips4gpzW-1" value="" style="shape=image;verticalLabelPosition=bottom;labelBackgroundColor=#ffffff;verticalAlign=top;aspect=fixed;imageAspect=0;image=data:image/png,iVBORw0KGgoAAAANSUhEUgAAA14AAAEzCAYAAAAhLdJfAAAgAElEQVR4nOzdf0Rk3/8H8OsaY4wxxhgjGSMZSZKsJEmSJCtZSbJWVrJWspKstRJZWSvJWkmStyTJWslKspIkWUmSJCMjGRkZGWOMa7o9v3/s957Pndu0P/sxU8/HWrvbzq+ac++c5z3nvI4EIiIiIiIiulHSXb8AIiIiIiKi+47Bi4jogbjAxV2/BCIiogeLwYuI6AG4wAVUVWX4IiIiuiMMXkREDwCDFxER0d1i8CIieiDSIXRd6H797Os/u12q+6iqmvS1nz3GVa+LiIjoJjF4ERHRjdNG264KQhdX/FJV9VKo0gcr/f+lejz9/+tfg/Z1/W31j8MgRkRE143Bi4iIbpwxcOn/roUr40hVqrCmfU1VVZyr55e+nup5tcfX/zY+v/E+RERE143Bi4iIbs2fTP/71eOk+pqiKIjH45fC1HU8PhER0b9g8CIiolt1gQskEgkoigJFURCNRhEOhxEKhXBycoJgMIjDw0Ps7+9jd3cX29vb2Nvbw97eHnZ2drC+vo75+XksLy9ja2sLGxsbWFtbw/z8PMbHxzE+Po65uTksLS1hfX0dW1tbWF1dxdLSEpaWlrCxsYGDgwPs7+9jf38fx8fHOD09RSgUwtnZGRKJxF3/iIiI6B5i8CIiopSuY2RKo6oqEokE4vE4gsEgtre3xe+pqSn09/ejq6sLr169QltbGyorK1FQUACfzwe32w2fzwefzwePxwOr1QpJkmAymeByuWA2myFJ0pW/HQ5H0r9tNhsePXqER48eobi4GK2trXj9+jV6enrw6dMn7O7u4vT0FPF4/J+/b46cERGRhsGLiOgBMxay0AcF/RqqVFME9YUrzs7OcHR0hEAggM3NTXz79g2jo6P4+PEjhoaG8O7dO/T19eHt27fo6OhAU1MTmpub0dzcjJKSEng8HrhcLjidTtjtdsiyDEmSIMsyHA4HvF4vcnNzYbfbxde1P51OJzweD/Ly8lBUVITS0tKk3/n5+XA4HJBlGSaT6VIws9vtcLvdcLvdKCgowNOnT9HZ2Yk3b97g/fv3GB4exsjICD59+oSJiQksLCzg+/fv2N3dxfHx8U9/nsaCHsafJ9FtMxawIaLbw+BFRPSApar6p0lVut0oFovh4OAA09PT6OvrQ09PD2pqapCXl/fTUSjjb5fLhfz8fPh8PmRlZcHr9aK4uBgVFRVoa2sTAaiqqupSaGpvb0dfXx8+ffqEqakpfP36FQsLC1hYWMDXr18xOjqK9vZ21NTUoKamBiUlJcjOzobD4YDD4UBWVtalUbGrfptMJng8HlRVVaGpqQmDg4M4OjpCJBK59PPSgmuqji47vnSX2P6I7gaDFxHRA5aqeuDPOmWRSAR+vx/z8/MYHh5Gd3c3qqurkZ+fj6ysrJ9O/TOZTLBYLMjKykJdXR0aGhrQ1NSEvr4+zMzMYG1tDcvLy5iZmcGXL1+wtraGzc1NHBwcIHgSRCgUwtjYGLKyssTjNTY2inVaoVAI4XAY0WgU0WgUsVgMkUgEp6en8Pv92NnZwe7uLr5//44vX75gYmICExMTmJ2dxcjICJqamlBfX4+amhoUFxfDZrP9NIBZrVbk5OSgoaEBL168wIcPHzA7O4uDg4Nf/qyJ7hqDF9HtY/AiInogrgpXxumF5+o5FEVBMBjE2toaBgcH0dDQgKqqKpSVlaG4uBherxdOpxMWi0WEEYvFgoKCAjQ1NaGlpQV9fX0YHx/H9PQ0vnz5guXlZaytreH79+8IBAI4OjrC8fExotEoztXzS68hlS9fvsDj8YhRsomJib8qhqFVQFQUBaqqIh6Pi6mSh4eH2N3dxdraGhYXF/Hlyxf09fWJ9WfV1dXwer1J0xbNZjPsdjuys7NRXFyMyspKvHv3DsvLy9jb2xNrxvQhl4iIHhYGLyKiB+BnoUurLHh6eor9/X2MjIygo6MDFRUV8Hg8Ys2VtkbKYrGIKXqVlZVob2/Hhw8f8O3bN+zs7ODk5ASnp6eIRqMi2PzJazS+Xu3fAPDff//B5XKJohnT09NIJBIpR+2uUzQaxdnZGcLhMAKBANbX1zE6OoqWlhYRQm02G6xWqxjxs9lsyM7ORlFRER4/foz+/n6sr68jHA4jEokgHo9DURSGMLoVbGdEd4/Bi4joHtGHDuOGwak2Dg4EAvjw4QPq6+uRlZUFp9OZFB600ZxHjx7h2bNnGBoawurqKo6OjkT59Wg0ei17Z/3se9LMzs6KES+3242ZmZmkIiC3QftZKoqCSCSCUCiE4+NjbG9vY21tDWNjY3jx4oV4nVoREIvFAqfTiezsbFRXV+PVq1eYmJjA8fGxGLXTv2f652KnmYgo8zF4ERHdI1pRB2NFPT2tpPv6+jr6+/vh9XpFlUB9UNCqBTY0NGB6eloELi0kpCq+cROjTfrHnJubQ05OjphqOD09fSfB66rvVVVVnJ6eYmdnB+/evUNZWRlycnLgdDov/YztdjtKSkrw7t07rKys4OzsDIqiXPl8NxVsiYjodjB4ERHdI/rRLv3Xzs7OcHh4iPn5eQwODqKlpQUFBQUiDJjNZuTm5qK0tBRNTU3o6OjAyMgIFhcXEQgEkh5b+7s2xc8Y8m4yBC0uLsLn80GSJDidTkxNTd1q8Eo1HVJV1UsVDFVVRSwWg9/vx8rKCkZGRvDy5UtUVlYiPz8fbrc7aX1cYWEhuru7MTIyguXlZQQCAUSj0aTnYvAiIspsDF5ERPeUoigIBAL4+vUrXr9+jcePH4t9sPSbCVdVVaG7uxtfv37F/v5+ymIVqdZcpQpcNx281tbWUFRUJNZ4TU5O3lnwMn5NH7quCkknJydYWVnB2NgY3rx5g5aWFuTm5ia9J16vF0+ePMHbt28xNzd3aa8wIiLKTAxeRERpyDi6pP/7z/4NAPv7+5ibm0N3dzfq6+vh8/mSprkVFRXhzZs3GBgYwPj4OPb39xGNRi89f6rRnVSv8abDlv65tra2UF5eLkLj6OgoEonErU41/JXffS2xWAwnJydYWFjA+/fvUV9fj5ycnKTNoXNzc8V+Yaurqzg9PRUVH38WAIn+BNsM0e1g8CIiSkOpKvpdNcoE/Ki6t7KygoGBAVRXV4t1UPpRlPr6evT392Ntbe3Kcu3pSvs+v3//jrKyMhG8Pn36lHbB628dHh5iaWkJvb29qKmpSdpHzGw2o7CwEA0NDejt7cXBwUHKkcZUI48MY/QzvxrFJaLrw+BFRJSmftWRvsCPdVbRaBTfvn1DfX190lRCrQS81+vFu3fvsL6+jrOzsyufI53pg1dFRYUoTjExMZFxIVKjn5qoFwqFsLi4iMePH8NqtV4qymG1WjE4OIizszMkEgkkEgmcq+dJAZSVEOlf/Kw4DxH9PQYvIqIMoJUvv8CPqoVnZ2dYX19HX18fCgsL4fF4YDabIcsyysvL0dzcjPHxcSwuLmJ7e1tUzNOXKdf+TPfOlf41hkIhdHR0wGKxwG63Y3Z29tarGl43fbl/7e/xeFyUqF9aWkJjYyNcLpfYtNnlciE/Px+VlZUYGhrC9vZ2UoEPY/DK5J8P3a5EIiHONfo2SUT/jsGLiChNGQs2xGIxHB0dYX19HZ2dnfD5fLBYLJBlGXa7HXl5eWhoaBCb9Or31tJXH9RGRlKNpqUj/esLh8Po6emBzWZDbm4uvn37di86hqmmlmpUVRXl/7u6uuD1euFwOMRImNVqRVlZGTY2NhAMBsV6vXR/Xyn9XOAC0WgUwWCQm3sT3QAGLyKiNHDVVELgR9hYWlrCwMAACgoKYLFYxMiH2+1GfX09pqencXZ2JsJWqilsxuczPm+60r++09NTdHZ2wmazobGxEYFA4Jffayb42Xugbw/xeByhUAjT09N49uwZ8vPzYbVaRQDzer3o6+vD/v4+YrHYlWEu3d9zuhuqqiISiSAcDv+0OicR/R0GLyKiO6SfzpNqTUU8Hsfk5CQ8Hk/SOh9t3623b98iGAymLAF/n2g/l0gkgt7eXjgcDrS0tODo6OheBK8/oX2/4XAY6+vraGxsTNoTzGazobq6Gmtra1feX9tk+6qiCvQwaW0r06fvEqUrBi8iojukdXL0QqEQVldXMTo6ir6+vqTy6TU1NWhra0Nvby9mZmawu7ubtLbnPtJ/b2dnZ3j9+jXsdjsKCgowPz+fscU1/oZxemg8Hsfy8jL6+vrQ0NCAwsJCWK1WmM1mUYZ+ampKjIABEO3lPkzRpOuVKdOPiTIVgxcR0R0ydnDO1XOMjo6iuLg4aYTLbrfjyZMn2N7evvQY+qmF97GzpP8ZHR8f4/nz5zCbzTCbzRgcHISiKHf8Cm+P/n02vt+hUAgzMzMoKSlJajsWiwXt7e3Y2NhIGum6j22F/g3bBdHNYvAiIrpDWicnEolgbW0NAwMDyM/PT+o4l5WVYXR0FDs7O2LdTqpKeA+hw6QPXlarFZ8+fXowwUv/vmu/tCCl/X8kEsH09PSlrQUcDgeqq6vx+fPnO/4uKJ39rMgLEf07Bi8ioluUag3X2toa2trakJ+fLzrLTqcT/f39mJubw97eXlK4MHa+M6lC4d/Qr+GKRCJ48+YNbDYb3G43Pn/+fO/Xt+n9bE2W9mc8HkcgEMDy8jI+fvyIx48fi2IsXq8Xzc3NWFxcFFXr7nPboT+Tqg2wTRBdHwYvSkl/ouVJl+j3GI+bq0YoEokEwuEwdnd3xbRCbQ8uq9WKp0+fYnp6GpFI5A6/m/Si/WxDoRDa29thsVjw6NEjbG5uJm0cTMkURcHe3h6ePHkCh8MhAlhhYSF6enqwtraGaDQqNmLWh7j7OnWViOiuMHjRJaqqIh6PJ10NJaI/p58KqBU0OFfPsb6+juLiYrhcLthsNkiSBI/Hg66uLqysrCAcDkNRlKSiEQ/9WNS+9729PTGCk5+fj9XV1QdV0fB3GEfBVFVFKBTC1tYW3rx5I0ZVLRYL3G43uru7sbm5eeligf7xiIjo3zF40SXaRq3xeDxp/QAR/RnjPjiKomBjYwMdHR2i/Lcsy/B6vejs7MTOzg7i8TgAVhcz0n6OBwcHaGxshMlkQlZWFj5//szS1wapCrZoX9/a2rpUfj47Oxs9PT1JI6z6EEZERNeDwYsuucAFEonElfu8ENGfiUaj2NzcxNjYGEpKSiDLMsxmM3JyctDc3Izl5WWEQqFLQYvB6wf9z+Dk5AQvXryAxWKBw+HA5OQkg5eBsf3oz+MXuMDh4SF6enpQUlICt9st1hT29fXh8+fP8Pv94rH4GUBEdH0YvCgl4wc3EV1NH5CMo1ynp6eYmJhAYWGhGGGQZRltbW2Ym5tDKBRKegz9Yxof+yHTfgbRaBRv376F3W5HVlYW5ubmGLyucNWoqdZODw8PMTIygqysrKQqms+ePUM4HE75GPw5ExH9PQYvSokfrkQ/p++E6sOWvvre8PAwWltbkZubK/biam1txeDgIE5OTi49Xqp/81j8Qft5x2Ix9Pf3i+D15csXBq8/pJ9CqCgKJicn8fLlSzH9MCsrC62trZf2jDMWi0n1uEREdDUGLyKiP3TVXkpax3RjYwOvX78WHVmLxYLKykoMDw/j9PT00uPQrxlHvGw2GxwOB8bHxx9UOfnrYly/FYlE0NvbC5/PJ0a+tH2/wuGwaOda5UO2WyKiP8fgRUT0B1KNdOmnGcZiMbx8+TJp89pHjx5hfn4ekUgkaToiCxf8Pu1nHo1G0dfXB7vdDpvNhpGRkQezgfJ10gcvrf0Gg0H09PTA6XSKtlteXo6vX79CUZSk6pxERPTnGLyIiP5AquIXAHB8fIzJyUk0NzfD6XTCZDKhoKAA3d3dWF1dRTwevzRSpnVk6ef0HX39iBenGv49YzvURrRCoRAWFxfR3NwMu90Os9kMn8+HDx8+IBAIpNwzjT97IqLfw+BFRHSFnxUW0Dqs8Xgcfr8fnZ2dsNvtMJlMcLlcaGhowPr6OsLhMBKJRNIolz64cdTr11IFL7vdjpqaGmxvb7Pj/xf07Vlfbh74MZIbCATw7Nkz2O12yLIMu92OpqYmrKysIBaLXbqIwPeAiOjXGLyIiH7CODVQ/+9oNIrR0VHYbDaYTCZYLBaUlpZidXUV0Wj0UueU/l0sFsO7d+/gdDrR0dGBk5MTrpW7JvrRL1VVEQ6HMTMzg+rqapjNZsiyjJycHPT29oqS8/rjQfs3ERGlxuBFRPQT+tEpfRGHs7MzjI+Po6ioSBTQaGpqwvLyMhRFSTkdkf6e9jOMxWIYGBiA0+lEW1sbjo+P+fO9JsaqhaqqQlEUbG9vJ22HYDKZ0N/ff6moCQMwEdHPMXgREV3BuBbrAhc4ODjA58+f8fbtW5SUlCArKwv19fXo6+vD+vq6KKDB4HUzYrEY+vr64HA4RPDiOrnrYRzx0tp8PB7H1NQUXrx4gfLyckiShNLSUnz48AFLS0uIxWIAIKp7EhFRagxeRERX0JeL18JTT08PbDabuPpfW1srNkHWYxi4GZFIRKzxamtrw9HREUdarpGx4IYxSC0sLCS1f6/Xi52dHXFfIiK6GoMXERGSr/brv6b9W1EUrK+vi6mFJpMJjx8/xtzc3KV1XBzlul76n288HseHDx/gcrnQ1dWFUCjEn/cNuKqwTCgUwqdPn8TUQ1mW8fLlS+zt7fE9ICL6BQYvIiLgUgdTv9ZlZWUFjY2NKCwshNlsRm5uLiYnJ+H3+1PuIcUO6PXSh2JFUTA0NASXy4Vnz56JES+Oet0c/TEB/LgIsby8jKdPn4r91Kqrq7G5uSn2+9KPlLH6IRHRDwxeREQ6+umF0WgU29vbePr0qbi6X11djdnZWVFYgB3+m6fvtKuqipGREbhcLhQUFGBtbY3B6xakmoIYCAQwODgIl8sFSZJQUlKCsbExUWlSfz8iImLwIqIHKFVnUL+W6wIXCAQCaGpqQlZWFqxWK3JyctDV1YX9/f2kq/pcy3U7tPcrHo/j/fv3cDgcsNls+O+//8Q+aezg3xx94NKOFW1LhU+fPsHj8Yj9vp4+fYrDw8NLI2VERA8dgxcRPTi/ugp/enqKkZERWK1WSJIEn8+HgYEBMZXKWPWNbp6+nHxvby/sdjssFguGh4eRSCQ4snLDjHvS6acTHhwc4NWrV5BlWRTcGBwcxOnpKQBOvSUi0jB4EdGDZuywn56e4s2bN8jKyoIsy/D5fHj//r0Y5WIH/27oR7z6+/vhcDjgdDoxMTHB4HXLUhXeODw8RGVlJdxuNyRJgtPpxPDwMILB4F2/XCKitMHgRUQPkr4CIfBjQ+T19XX09PTAYrFAlmW0tLRgdXUV8XhcXOWnu6GF3kQigcHBQTidTtTV1WF3dxeqqorwRTcvVaGMc/UcoVAIo6OjouKhzWZDe3u7qHhoHCkjInpoGLyI6MExhqh4PI6PHz+iuLgYJpMJjx49Qm9vL05OTpJuzw7j3dEXPRkeHobL5UJ1dTW2tra4vuuOGbdSWFpaQkNDg5gO+uTJExweHor/16+l5PtGRA8JgxcRPTj6EKWt5/L5fGKK1OfPn0XRDH3oYvC6e7FYDO/evRNlzCcnJ1ngJE3og9TR0RGampogyzJkWUZjYyPGxsZE0Q1O231Y9OdRvuf0kDF4EdGDYrzSvri4CJ/PB1mW4XQ68fTpU4RCoZT3Yafhbujfr2g0Kopr2Gy2pDVedPf079Xk5CRyc3MhSZIoujE2NgYADF4PDIMX0Q8MXkT0YOinq+3v7+Pt27cidDU0NGB5eRnHx8eiVLbxvhzxuhvGMuZjY2Nwu91wOByYnZ3liFca0R8nZ2dn2NjYwKtXr2Cz2SBJEoqLizE7O4tIJJJ0H4aw+81YjIXooWLwIqIHQfvAVxQFR0dHaGxshNVqhSzL8Hq9mJ6eTrodr8ymD+PoyMzMDDweD3w+H5aXlxmI05D+PQsGg6irq4PFYhHbM0xPT0NRFAAMXg8B32OiHxi8iOheMxbGmJ+fR1lZGUwmE8xmMxobG7G/v494PA4AnA6ThvTvxQUuxIiXz+fD4uIig1ca0l/AOFfPcXR0hN7eXjgcDkiShIKCAoyMjODk5CRpbzx2zonoPmPwIqJ7TSs1rv29rq5ObPRaUVGB1dXVpKuxDF7pSf/+fPz4EU6nEzabDWNjY2LkhNKH/ljSqhiGw2G8fv1arPlyuVx49+4dIpHIpQ2aiYjuIwYvIrq39OtNAoEAJiYmkJ2dLaqszczMiLUmxivu7PylD+P6kJGRETidTlitVoyOjrK4Rpoyvm8XuMDq6ipqa2uRlZUl1nytrKwgHo9zxIuI7j0GLyK6V1IFp52dHTQ1NYmNkWtqapL26KL0Z6yWl5WVBZvNhv/++0+MqFD60r8/p6en6OjoECNf5eXlmJ2dvfL2RET3BYMXEd0bxvVciUQC6+vrePLkiejkvXr1Smy6y2mFmUN7jxKJBEZGRuB2u2G1WjE2NsYRrwxgfH+2t7fR2toKu90OSZKQn5+P+fl5sdaSI19EdB8xeBHRvaIFqXg8jq9fv6Kqqgomkwk2mw2NjY0IBAIAWN44U8ViMfT398PhcMDpdGJmZoYjXhlGe6+Oj4/R398Pp9MpCm6MjY3h7OyMxyYR3UsMXkR0b2j7POlLxptMJphMJlRWVmJxcTFlCWt27tKb/j3SgpfdbofH48HCwgJHLTOM/r3a3d1FQUEBTCYTJElCdXU1Njc3ORpNRPcSgxcRZaxU1QgVRcGnT59QUFAAi8UCu92O9+/fIxgMQlGUpKmI+seg9KW9P9p7NT4+LtZ4TU5OcsQrgyUSCRweHuLTp0+wWCwwm82oq6vDxsYGFEXhe0tE9wqDFxFlLOOaLgCIRqOorq6GJEkwm814/PgxNjc3xf+fq+eX9n1ixy69ae+XNgIyNjYGl8sFu92O8fFxsV0AZQ7jBY/9/X1R6dDhcOD58+fY29tLeVsiokzF4EVEGUs/HUm7cj4+Pg673Q6r1YrOzk5sb28n3c4Y1Cj96cuMq6qKT58+we12M3hlOP0WDrFYDCMjI3j06BFsNhtkWUZ3dzeCwWDS7YmIMhmDFxGlPWOHS+uE66chbW9v4/Hjx6KQRlNTk/h/rufKfNr7pqoqRkZG4HK5YDab8fHjRwavDKcP1X6/H62trZAkCTabDc+ePUuqQkpElMkYvIgoI+kLaezu7uLZs2cwm80wm814+/Yttre3GbzuEe29i8fjGBgYgMPhgNlsxvv37xm8Mpw+eAHAxsYGamtrYbfbIcsyqqursbe3x2OXiDIegxcRZRwtdKmqikAggLa2NlitVkiShNzcXBwfHwMAr5DfE/rAnEgkMDg4KIJXX18fFEVhpzzDGS+MrK+vo6SkBJIkQZZlvH//HtFoNOn2RESZhsGLiDJGqpGryclJsQ9QYWEhhoaGEI1G2TG7R/RlxbWqhm63G2azGQMDAwxe91AsFkN7e7vY+DwvLw+jo6NJe3wREWUaBi8iygj6whiqquLk5ASDg4Pw+XyQJAktLS3Y3NxEJBJJWvvFqYaZT/++acU1XC4XbDYbJiYmONXwntHe64ODAwwODuLRo0eQZRlZWVno6elBPB7ncUxEGYnBi4jSnjE4nZ6eoru7G06nEyaTCV6vF3NzcylvT/eD/j3VRrzsdjtGRkZwrp7f9cuja2I8dmOxGJaXl0Wp+aysLAwNDeHk5ITHORFlHAYvIkpr+oX3iUQCwWAQ79+/h81mgyRJqKurw+7urphuxtGt+0t7PycmJsRUQ67xuv/i8Ti6urrgdrshSRLsdjt6e3sRi8WSinIQEaU7Bi8iSlupAlRfX58IXXa7HR8/frzytnQ/6KeNAsDU1BSys7NhMpkYvB4AVVVxdnaGsbExEb6KioqwvLwsbsP3n4gyAYMXEaWdVKNWF7jA0dERKisrYTKZUFRUhBcvX2B7e1tc9Wbwup+M6/WmpqaQlZUlimtwjdf9pr3vwWAQvb29sFqtsFqtaG1txbdv3xCLxZIKsBARpSsGLyJKO/pCGhe4QCKRwPfv39He3g6LxQK3243V1VXR4dYX06D7xxjAR0dHxQbKDF73n/79Pzk5QUdHB1wul9g+YnNzM+l2PBcQUbpi8CKitKJ1nBKJhFi7MTc3h/LycpjNZhQVFWFoaAiKogD4MQ3JuFEy3T9aEAeAmZkZZGdnw2w24927dwxeD4B2bJ+r5zg+PkZvby8cDgckSUJjYyOWl5cvtQOeC4go3TB4EdGdSNUp0ka6tM2Rz9Vz7O/vo76+XmykOjExgVgsduk+DF33mxa8ztVzTE5OJk015Bqv+8041RQA/H4/WlpaYLFYIEkSSkpK4Pf7eR4gorTG4EVEaUN/VVsrG//hwwdkZWWJdV37+/sp78PO1v2lf3/j8TgGBwfhcDhgNpvR39/P4PWAaO+zoiiYnp5GQUEBZFmGxWLBzMxM0novVjskonTD4EVEd854RfsCF1hdXUV+fj6cTieKioowNTWFQCCAeDyedB/j3+l+SyQSGBoaEnu4dXd3i2mndH8ZzxGqqiISiSAQCOD58+ewWCzIyspCRUUFFhYWACBpnSjPEUSUDhi8iOhO6cOWdoX67OwM/f39kCQJkiShubkZx8fH4j7GDXPZqbrf9J1uVVXFBsomkwkdHR0MXvdcquCkP1/Mz88jNzcXkiTBbDaju7s75cUcIqK7xuBFRHcmVdl4RVEwPDwsiicUFRVhZmZG/L/+Krb2GHT/6Tvac3Nz8Hg8kGUZnZ2dDF4PiHGkW1VVKIqCqakp2O12sd5rdXUV0Wg0acSL5woiumsMXkR0J64qivH9+3c4HA6YTCbU1tZe2qdL63yzE/XwaO/9169f4fV6YTab8f79ewavB0w7f0QiEbS2tsLpdEKSJHi9XjHlEPjfBRvu90VEd4nBi4hunT5IaU5OTjA1NYX6+nqYzWaUlpZidXU1qcIhO00Pk3HEQl9OnlUNHy79FHJZ2MAAACAASURBVOVz9RyBQABDQ0MoLCyEJEloaWnB9va2KDOf6rxDRHSbGLyI6FYZKxdqoxifP39GTk4OJEmCzWZDf3+/uD2nFj5sxlHRz58/Izs7O2mNF9vFw6JvExe4EOFKURQMDAyI9V5tbW0IBALifgxeRHSXGLyI6Fbpr1Jrf1cUBS9evIDJZIIsy2hubsbm5ualNWBcq/Gwae/70tIScnNzIcsyi2s8YPrzgTYiDgALCwtwu92QJAlutxuvX7/G2dmZuA8R0V1h8CKiW2G8Qq39fWtrC0+fPoXT6YQsy6iursbe3p6oXMiRLjJaXV2Fz+eDLMt49eoVg9cDp7+Yo5WZX1hYQEVFBSRJgsvlwszMDOLxONeIEtGdYvAiohtnHKnSRrsURcHQ0BBkWYbJZEJLSwu+f//OvXfoEn1b0IpryLKMFy9ecKrhA5dqNPwCFxgYGIDNZoMkSSgsLMTk5CQikUjSfbSwpn2NiOgmMXgR0a0wdorC4TA+fPiA7OxsSJKEN2/eIBQKXVrPxc4QabQO8pcvX+DxeGA2m9HT0wNFUcT/0cNjDF7aOeTs7Azj4+NidNTlcqGnpwfxeDypaA+nMBPRbWHwIqJbpaoq4vE4pqenxaan2dnZWFxcFP+vn2bIzhDpO9QAsLi4iJycHJhMJjHVkO2E9G1EE4vFMD4+DofDAUmSkJeXh42NjaTba8U52IaI6KYxeBHRrdBfVT44OEB9fT0kSUJOTg7ev3+PYDB4qePE4EXA5eC1sLBwaaohEXB5CuEFLnB0dIQnT57A7XbDbrejs7MTu7u7l27Hcw0R3TQGLyK6Vqmm7eivLB8dHaGjowOSJEGWZbx580bcVpv2o78fEZAcwufm5uDxeCDLMjo7OzniRUlSrd86Pj7G+/fv4XK5IElSUlGWq6Yask0R0XVj8CKia3VV8AJ+bJLc3t4Oh8OBgoICvHnzBru7u1fejwi4POKl38erq6uLwYsuSRW+Tk5O0NfXB1mWkZeXh7dv32Jzc/PKAMbzERFdNwYvIroR+s4LABwdHeH169ewWCxwOByYmJhALBYTt2HwoqtobUIfvLQRr46ODsTj8bt8eZSGjOcUrQ35/X5UVlaKEffHjx/j8PDwl/cjIroODF5EdCP0aycURcHMzAxycnLEuq6joyMAHOmiXzOG+IWFBeTk5ECWZbx8+ZJrvOhK2rlFm8YciUTw4cMHMeXQbDZjaWlJnKuMf/K8RETXicGLiK6VsbOSSCTQ29srpoZVV1djaWkJiURC3EZfQp4oFf1Uw6WlJRG8tDVeRFfRB6lz9RzhcBjT09Pw+Xxij6/R0VHE4/FLoYvnJSK6TgxeRHTt9JUJA4GAqGBoMpkudXCMBTWIrqIvrqFVNWTwol/Rr/PSHB0d4enTp5BlGZIkobq6GuFwGADEHl+p9objuYqI/gWDFxFdKy1QJRIJ7O3toaenB263G1arFaWlpZemGBL9irGtzM/Pi+D1/PlzBi/6Lca1W5ubm2hoaIDFYoHNZsOXL18QDofFyJi2n6DxMYiI/haDFxH9M31nRrtKfHh4iOrqakiSBJfLhVevXmF/fz9pc2Si32HsMH/79g25ubkMXvRHUlUtPD4+RkVFhThP9fb24uTkhFMNiehGMHgR0T/Th65EIoH9/X28fv0akiTBZrPh7du3CIVCAJBy+g7Rr2htLJFI4PPnz2LEq62tjcGLfluqi0Tj4+MoLCyELMtwuVx49+4dYrEYgxcRXTsGLyL6Z/rOTCwWw+vXr2E2myFJEh49eoSNjQ1xu1TTd4h+RR/s9eXkWdWQ/oY+VMViMQwNDcFqtUKSJOTn52NtbY3rT4no2jF4EdG10DooJycnyM/PhyRJyMrKwuDgoFi0zuqF9Le0QiyqqmJjYwN5eXksrkF/TT/qda6eY29vD06nE5IkwWq1orm5WWzuTkR0XRi8iOif6Dswm5ubaGxshCzLyM7OxujoqAhdRP9CP0KxtbWF/Px8yLKMrq4uEbwY6ul3GaccJhIJzMzMoLa2VoSv3t7elJu8ExH9LQYvIvojxg6L1hHZ3t5Gc3MzTCYTHA4Huru7RaeF6F8YO72rq6vw+XyQZRmvXr0Se8KxU0x/St+2ztVzcfFIkiR4PB4MDw8jFApdWhdGRPQ3GLyI6LfpOx/6TUYjkQiamppgNpthtVoxNjaGs7Mz0Ulhh5j+hb4KHfBjA2WtqmF7ezsUReFoBF0LVVXx/ft3lJaWQpZl2Gw2NDU1IRgM3vVLI6J7gMGLiP6IcfQhEolgbGwMHo8HkiQhOzs7qYLhVRuREv0J/WiDPni1trZyqiFdC639RKNRjIyMIDs7G5IkwWw2Y3l5mecxIvpnDF5E9Fv0ow764PX9+3fU1NTAbDbD6XSira0N0Wg0aeE6RyPoX+kDvL64hjbiBTB40fU5PDxEe3s7LBYLJElCR0cH1tfXOX2aiP4JgxcR/RbjJrYAcHp6ivb2dkiShNzcXAwMDODo6Ajn6nnSuhsuTKd/YVxfs7+/L/ZdevXqFasa0rXRn6cODg7w7NkzsTVGQUEBvnz5csevkIgyGYMXEf2SMTwpioL19XW8ePECWVlZsFqtGBkZQTQaxbl6Lsp+64MWQxf9rauKa5hMJvT09DB40bVIdZHo4OAAPT09sNvtkCQJVVVVODg4SLo9t8kgot/F4EVEP2UsqAEAwWAQ1dXVkCQJDocDHR0dYvG5tkEyR7jouhiryS0tLSEnJwcmkwnd3d2Ix+N3+OroPjEWDgKAs7MzlJSUiPVeT58+xd7enqiEyLVfRPS7GLyI6ErG0KV1SNbX18Xah8rKSmxtbSX9vz6kMXzRvzKG+PX1dVFOvrOzk8GLro1xFEv7s6OjQ0w5dDqdGBsb4xRqIvpjDF5EdKVUUwyHh4eRn58Ps9mMmpoaLC8vQ1GUS2GLnRG6Lsa29O3bN1HV8OXLl6KcPNHf0rbFCIVCojiQ/iJSMBjE169fUVtbC1mWkZ+fj48fP3KDeCL6IwxeRHRJqrUOqqri5OQEFRUVkCQJXq8Xg4ODiEQi4v855YZuij5Yff36FV6vF5IkobGxEfF4nMGL/skFLhAOh7G3t4eTkxPxNQDivBaNRjE4OChG+8vKyvDt27dL+8ixLRLRVRi8iCgl/foFVVXh9/vx8uVLWCwWZGdn4/Pnz4jFYkmdDXY46Kbo29fXr1+Rk5MDSZJQXV3NqYZ0LVRVRSwWE0Fe/yuRSIiLT+3t7TCbzZBlGR6PB8vLy+IxjFOtiYj0GLyI6BLjldu9vT28fPkSdrsdNpsNL168QDQaTVqEztBFN0nfxhYWFpCTkwNZltHc3MwRL7pWqc5nWqBSFAXfv38XI/+SJKG7u1tso5GqOAcRkYbBi4gu0a7Wald4Ozs7YbFYYDKZ0NXVJSp66a/uspNBt0WraihJEmpqahi86FpcNUqlnecSiYRY6/rff//B6/VClmW43W60tbXh9PQ06fZsk0RkxOBFRJdoJeEVRcHk5KRYT2O32xEIBACk3sOGHQ26DSsrK8jNzYUkSSgsLEQsFrvrl0T3wM/OX8bCQeFwGK9fv4bVahVl5nd2dsRtGLyIKBUGL6IH7qpF4fF4HPPz86iqqoLJZIIkSWhoaEA4HE66Mqy/DzsadFP07XRlZUWUk29oaOAaL7oxxrVe+lH+jY0NlJeXi+A1Pj7+y828eY4ketgYvIhI0Hdu19bWROc2JycHvb292Nvbw7l6zs4D3SrjOkJ92+zp6fllZ5foOmnTDuPxeFL48vl86Onpwfb29qWLWRwFIyKAwYuIdFRVxbl6jp2dHbS1tUGSJJhMJnR3d4v1CwCv2tLtMra3ra0tFBQUiA2UGbzoNmnnSc3i4iIqKyshyzKsViva29vFejAg9fYcRPQwMXgREYD/dQ6CwSDq6upgtVrhdrvR1dUFv99/6XZEt8XY3vb29lBYWAhJktDW1iY28Ca6Ddo5UBv9VxQF+/v7Yi2sx+PBxMSE2G6D50wi0jB4ET1w2hQY4Me6rtnZWdhsNphMJjQ3N+Pw8JBTZOhOpdreoLCwELIs4/nz5xzxoluVagQrHo/jxYsXYj1sYWGh2N9LKzOv3ZeIHi4GL6IHTusIRCIRLC0t4cmTJ5AkCfn5+ZifnxeluvWbgvIKLt0mYyd3f38fRUVFkGUZL1++ZPCiW6Vfr6X9/Vw9F8WI7HY7rFYr3r59i9PT06SpiTxvEj1sDF5ED1Cq6S+jo6PIz8+HJElwOp348OGDuC3RXdO3w0AggOLiYsiyjFevXjF4UVq4wAX29vbE+li3243+/n6EQiEASFoXRkQPE4MX0QOkH8FSFAVra2tizYzVasWnT59wcnLCSlyUNvQXCiKRCMrKyiDLMrq6uqAoCtso3TmtDX779i1pvdfr169xenqKRCJxx6+QiO4agxfRA2Hcr0v7+8bGBqqrq2EymWAymfDs2bOkDgKDF9014wUAVVVRUVEhgpe+ghzRXdBPOYxGo5icnBQXsywWC+bn5zniRUQMXkQPhXFqofb3gYEBsSA8Ly8P3759QyKR4PQtShvGqbGxWAxlZWWQJAnt7e1sq3TnjOtg4/E4Ojo6IEkSJElCZ2cnjo6OeIGA6IFj8CJ6IPSjXefqOY6Pj/H27VtkZWVBkiT09/djd3dXlEBmeW5KJ/rwdXZ2htLSUkiShNbWVlEAhp1auiupKh3u7e2ho6MDTqcTTqcTjx49wuDgoChDz/ZK9PAweBE9APopWsCPq7HT09PIy8uDJEkoKCjA5ubmXb5EoisZO7X6Ea/m5mbE43FOiaU7Z2ynF7jAysoKamtrYTabIUkSKioqEI1Gxe3ZbokeFgYvontO3wnQ1sKsrq7C4XBAlmXk5ubiv//+QywWE7cnSjf6EVt98GpoaBBTDdl2Kd0kEgkcHx+L9upyufDx40ecnp4m7e9FRA8DgxfRPaffawYAQqEQurq6xNqDZ8+eIRgMitsSpSN921QUBeXl5ZAkCc+fP0c8Hr90G6J0oJ17R0ZGkJ2dLcrMDw0N3fVLI6I7wOBFdI/pQ9cFLhAOh9HX14esrCxYLBaUlpZibm5O3FZbe0CUTlKtn6mqqoIkSXj69KkoJ8+2S+lEf/49PT3F8PCwqHRYWlqKlZUVRCKRu36ZRHSLGLyI7in9h76qqkgkEpibm4PNZoMkSfB6vfjy5Yu4Lae8ULpKFapqamogSRKqq6s54kVpwdj+tPOqNsU7Ho9jbGxMVJEtLi7G0tISz71EDwiDF9E9YSwVbyyosbm5idraWvGhn5OTkzTaxU4rZYoLXKCyshKSJKG2tlZUNSRKJ/rZBtrfl5aWxDnYYrGgubkZh4eH4j762xPR/cPgRXTPGKdkAcD8/DwqKyvFB762zmB0dJR7IFFG0abEVlRUiOIa2ogXUbrRn4/P1XMsLCwknYctFguGhobENh6JRIKVDonuMQYvontGVVUoioJz9RyJRALRaBRPnz6FJEmQZVl86GdlZWF8fFxMg+FVVkpnxlFcbcSrqamJI16UlrSwpQUp/YiXLMuQZVlMOfz8+TNisRhDF9E9x+BFdE8YpxomEglsbm7i+fPncDgccDgc6OrqQldXF0wmE3w+HxYXF8Xt+WFP1+EmQ7z+cRsbG2E2m8U+Xmy/lI6MFwwWFhYgyzJcLheKi4vhcDhgMpng8Xiws7PDdkx0zzF4Ed0DqTq6e3t7qK6uhslkgtlsRmdnJw4PDzE8PAyz2Qyfz4dv374lPYb+T6K/cRObwurbprGqYXNzs6hqSJROjMfCBS6wvLwMSZJQV1eHzc1N9PX1weVyQZZl9Pf34+zsDABYcIPonmLwIspQxpEFVVVFOfhYLIaxsTFYrVZIkoSqqiosLy8jGo1iamoKDocDeXl5WF5eTnq823rNdH9p06vO1fOkr/3rY2p/Gtd4NTU1sZw8pTV9+NrY2BBrEyORCLa3t0VbLisrw+joKAKBAIDk8yXbN9H9wOBFlKGMwUtbS6AoCiYmJpCXlwdJkuBwOET1QkVRMDs7C6fTicLCQqyvr4vHIrou191JNLb1RCIhNlB+8uQJy8lTWjIGJ+BHdVmtGmcoFAIAjI6OIjc3V6zBff78+aXAxbVfRPcDgxdRhjKWKgZ+XFnd2NhAXl4eTCYTioqKMDg4iJOTEwA/Oqzz8/PIzs5GQUEB1tbWxGPxQ52uy02t79LoR7waGxsZvCgt6S8YaFMHt7a2xIhXLBYDAITDYczOzsLlcomtPhYXF6EoipjJwM3tie4HBi+iDKX/QNdGujY3N/Hs2TNIkoSioiKsrKwkTcM6V8+xubmJsrIy5Obm4uvXr0mPddMf7Ax4999NvMfGx7vAhQheLS0tYksEti1KJxeGX0By8NKKwmi/WlpaRLXD0tJSrK6uphw1I6LMxeBFlKGMV1IDgQB6enrgcDhgNpvR1dWVdDvtttvb2ygvL0dOTg4+f/6csnNwU69XC4l0f93kaFeq4hotLS0c8aKM8f37d0iShPr6ekQiEXFePFfPMTs7i6KiIkiSBJPJhN7eXnE//bmeiDIXgxdRBtF/8OqnGh4eHqKxsREulwsOhwMjIyM4Pj4W99H/3tnZQUVFBfLy8rC0tCQeS/8nUToxXhy4wIXYx+vp06csJ09py9gud3Z2YLFYktZ4abc7OzvD7u4uPn36JPZabGhowMzMjNhg+bZmJxDRzWDwIsogqa78h8NhDA8Pw+12w2w249GjR2JNV6r77+7uoqqqKqmqIYMXpTt929RPNdSKa7DtUjoyBqX9/X1YLBbU1NSI87Rx/dbOzg48Hg8kSRLTEg8PDwH8WKerXURjmyfKPAxeRBnEON9fURR0d3fDarXC7Xajt7cXBwcHl4pu6O97cHCAmpoa5OXliX28GLwo3enbpqqqYsRLX1yDKN3t7OxAlmVUV1cjGAwC+N+G99oshlgshsXFRVG502w24/379wiFQknTtTnyRZR5GLyIMoz2QRuPx/H582cUFhZCkiT09vYiHA6LD3Dj2i4tjPn9ftTV1XHEizKKMXhpI17aVEOidKVvu1pxjZqamqTgZRwZUxQF79+/h8lkgiRJsNvtePXqFY6Pjy9tykxEmYPBiygDRSIRjI+Po7CwECaTCfn5+djc3ARw+UNcP/p1gQscHR3hyZMnHPGijGGcYqufaqiNeLHtUjoytsvd3V2YTCYRvIznaP199vb20N7eDq/XC5PJBIvFgr6+PkSj0UujXmz/RJmBwYsojaUqKgD8qIxlt9vFni9TU1M/veqvv//JyQmamprg8/mwuLh4W98K0V9LtbZRm2rY0NAgyskTpSut3fr9fthsNtTV1SEcDv/yfpFIBP39/eJ8n5WVhZ2dHQBImsmgD3BElL4YvIjSmL4a4QUuEI/HMT09jaamJvEhPDAwgJOTk5+OWumD1/HxsRjxMlY1JEpHqS5AcI0XZSK/3w+XyyXKyf+O/f19dHR0wOVywWKx4MmTJxgbGxN7NGq0zwmWnSdKXwxeRGlO/0F6dnaG0tJSSJIEq9WK1tZWBAIBAPjp1U79Oq+DgwOxxotTDSkT6I8BrRCBVnigqamJwYsyxuHhIdxuNx4/foyzs7OfnnMv8GPTe+BH+GptbYXFYoEkSSgpKRGVDo3nbwYvovTF4EWUpozrtEKhEMbGxmC32+F2uzEwMID9/X0oiiI24Lxqrr/29XP1HFtbW6isrGRxDcoYxvUviqKwuAZlBOM51e/3w+l0JlU1/Nl9tQtqiqJgb28PL168gMlkgs1mQ2trK7a2tqAoCs7Vc041JMoADF5EaUy7cvn9+3fU1dXB6XTCbDbj+fPniEajAFJXxDLSPsAVRcH09DQcDgd8Ph+nGlJGSFUwRgteL1++ZPCitKedY7XiGkVFRVhbW/utc6++7fv9flRVVYky88XFxVhdXU06NogofaUMXqyQQ3S7Us3T1xscHBSLq/Pz8zE7Oyvu97sf3KqqIpFIYHZ2Fi6XC7m5ufj69WvK10CUToyFA/TBq62tTax1YRumdLe5uQmz2Qyv14uZmZk/brOxWAzv378XnweSJGFsbAwALlWw1fC4IEofHPEiumOpruZrH5TRaBTr6+soKyuDJElwu92YmZn57UXZxudQVRW7u7uoqqpCfn6+mGpIlO70nUf9Gq/nz58zeFFGuMAFtra2YDKZ4HK58OnTp7+qyBkKhdDf3w+XyyWOgYODA2jrH/XTDnlMEKUXBi+iO2a8Qqn9GYvFMDo6ipycHBG6Xr9+jVgsJtZz/elznKvnCAQCaGhoQFFRUdLeX/rbEqWzc/Uc5eXlkGUZHR0dDF6Utoztcn9/HzabDU6nE8PDw3+9FcLp6SmGh4eRk5MDp9OJ5uZm7O7uXnpeBjCi9JIUvH61ToSIrp++XLwmGo1ienoaubm5ooLVyMgIgsHgpZLBf7JGQFVVnJycoLW1FQUFBVhbW7ux74vouugvSmi/tHLyWlVDfnZROjK2y52dHZjNZjidTgwODv7x+kTtPK6qKs7OzjAyMgKPxyP2tJuZmcHR0ZEY9WLwIkovKYOXvhPIg5XoZhlHu7SRroKCAkiSBIfDIdZ06W//pyNe2p9+vx91dXVJxTWIMoG+3WsFBqqqqhi8KC2lao+bm5tiquHHjx//eMTLWEQjHo+js7MTZrNZzIzo6uoSo8CpLuwR0d2RgMsdPwYvopvzq2Pr8PAQjx49ElWrmpqa4Pf7f3qf33lO7dfe3h4qKyvh8/kuFdfg8U7pTN/p1Ea8Hj16hFgsxvZLae8CF/j+/TtkWYbH48HU1JTYp+tvHw8Avnz5Ap/PJ4ptFBYW4ujoSNyGxwZR+hAjXvo1IAxeRDfH+CGodSQVRcHq6iqamppgNpvh8/kwOjoKv98v9ur6l+fUrnzu7++jtrYWPp8PCwsLKV8TUbrS2rJW1bChoQHxeJxX9SntpDrX7+zsQJZlFBcXY2Nj45/b7AUucHZ2hrW1NRQXF0OWZVitVtTU1GBhYYHBiyjNJAWvRCKBcDicNOeYByvR9TOOMmv7az169Agmkwl2u11MFzHe/m+fTwtefr8fjx8/Rk5ODubm5rgGgDKSFrzq6uoYvCgtpTqvHhwcwOVyoaqqSoxK/etzaGZnZ1FQUCCmHdbU1OD79+9/XcCDiK6fmGqoqiqi0ShOTk4QjUav3A+CiP6NsVBAJBLB+Pi4KKTh8XiwsrIiSsZfxzGoP5YPDg5QU1MDt9udVM6YxzmlM+NxoE01rKio4BovSnta2zw8PER2djZqa2sRCoWu7XFVVUU8Hoff78fbt28hSRJMJhMKCgowNTXFTcaJ0oSkn16YSCTElCZeBSe6HSMjI2I/FkmS8Pjx46SO5HVcANF/OK+vr6OoqAhutxsjIyPiA/lfpjIS3TTjcaCNeGlVDTniRZnA7/fD4XCgpqYGJycnAP7topf+3K79fWtrC1arVXymlJeX4+Dg4N9fPBH9M0k/BcmIwYvo+hhDlKIo2N3dRX19PSRJgtfrRV1dHf7777+k4/Gq4/NPnxv4sf/RysoK8vPz4fV6MTMzc2lxN495SkfG40cLXk+fPuU+XpTW9O3S7/fD5XKhuroax8fH1/LYxjX5wWAQHR0dyMvLgyRJsFqtGBgYwP7+/h/vAUlE1yupqiEPRqKbkWr0an9/Hw0NDeKq5MDAAGKx2I0//97eHqqqqpCfn4/l5eUbeT6im6C/uq8Fr5aWFk41pLRlbJN+vx9Op/PagtfPTE5OipEvWZbx7NkzBINB9vmI7pD065sQ0d8wfrhpo8sAsLu7i+bmZmRlZcFqtaK+vh67u7s3Nl1K/1q2t7dRVlaG/Px8rKysXPtzEd0U/ebhWvBqbGzkiBdlDL/fD7vdfm3FNVLRjoXj42MMDQ2hvLwcFosF2dnZ6OzsxNnZmbgdEd0uBi+iG6IPWtoH4bl6Dr/fj5cvX4qRrpaWFvj9/qRO5XV/IGrPr6oqtra2UFpairy8PAYvyhj6Y0MfvLQNlLXbEKWzg4MD2Gw2lJeXY39//0aeQ//ZAwDz8/OieJPJZEJfXx/8fj+PF6I7wOBFdENSzb0Ph8N4+vQpnE4nzGYzKioqsLq6mnSbmxrx0jqtWlXDvLw8fPv27caek+g6XRW88vPzkyqAXvdzXleBG3q49O1mb28PZrMZpaWl2N7evpHn0S7yaeErFouhra0NFosFkiTB4XCgu7tbjBQT0e1h8CK6BsYPL31HTb9/VltbG8xmM7KzszEyMoLDw8Nb2WNF/3oODw/x+PFj5Obmig2UU30PROnIGLzKyspudG2kftTaWO33Ji+W0P10W2u8jG3y5OQECwsLqKurgyzLcDgcePnyJfb29lJOiyeim8HgRXQDtE5aIpHABX5UMBwbGxNl48vKym5sfv9Vrwf4sUbm+PgYDQ0NDF6UkbRjS9vHq7y8/Eb3KNIfF6lGvTgSRn/i8PAQHo8HVVVVCAQCt/rciqJgZmZGFNxwu93o7e0VZe2J6OYxeBHdMEVRMD09DZ/PB1mWkZOTg/7+/lvdK09/JTMYDOLJkyfw+XxYXFy8dBuidGSc8ldTUwNJklBYWIhIJHIj+9Dpj5sLXCAejyMSiSCRSFy6DdHv0DZQfvToETY3NwHcbhsKhUJ48uQJsrKyxLTDkZERRKNRjngR3QIGL6IbFIvF8OXLF/h8PkiSBLvdjqWlJTH//rY2LdZ/oPr9ftTW1iYFL+NVfaJ0Y5wOpY141dbW3uh0Xf1zRiIRHB8fi/L1RH9KC14lJSUieN0WbbQ4FothdHQUZrMZkiQhJycHQ0NDYsrubX0uET1EDF5E10zrkAWDQbx79w45OTkwmUwoLi5GZ2cnYrHYrYYu7TVpv7TiGj6fD/Pz87zKSRnBuAZFC141NTU3NtXQ+JyqqiYVLWDRDfpT2gbK5eXl2N3dvfXn19rqXFU5rwAAIABJREFU8fExenp6kJeXB1mWkZ2djcnJSYTDYbZnohvE4EV0DYydspOTE/T394srik+ePMHq6mrSRq83tWfXVa9P+xUIBFBfXy9GvFgogDLNBS5QVVWVVE7+pgLQz0aDeczQn/L7/XA4HCgpKcHW1tatP7++rcbjcczNzaGoqAiSJMHr9eLDhw8IhUJs00Q3hMGL6A/pK51p/9aHqVgshv/++w8FBQVi35Tp6emUt7+L4HV0dISGhgbk5+dfKmUPcJoJpS99O9XWeOmLa7CzSOlO20D5JsrJ/41z9RwvXrwQ+0oWFBTg8+fPSZ9zPK6Irg+DF9EfShWcztVzXOACiUQCCwsL8Pl8MJlMKCoqwqdPnxAKhS7d97Zfs34fr9raWuTm5mJubo5X7Slj6NtobW0tJElCUVGRKAzANkzpTgteZWVldzLVUE87Xg4ODjAwMAC32w2z2YySkhIsLCwgHo/f6swMooeAwYvoDxnDkxZqotEo1tbWxJV47cqhtvD/Lka6Ur1mbcTL6/VienqaVzUpY+jbaF1dHSRJQmlpKWKxGIMXZQStuEZFRQX29/fv9LUYC8eUlZXBbDZDlmXk5eVhfHwciqIwfBFdIwYvoj+kFcbQPrTO1XOcnp6itrYWLpcLZrMZ+fn5mJqauhS6tL/fNu05VVXF2dkZ2tvb4fV6MTMzg3P1/NZfD9HfSDXi9fjxY041pIwRCASQk5OD8vJyHBwc3PXLSfpsCgQCGB8fF9Pks7Oz0dfXh5OTEx5bRNeEwYvoDxkLYxwfH+Pdu3ew2+1iU8rp6WlEo9FLIe0uX7P+yuaLFy+Qk5OTFLw45ZDSXargVVdXx+BFGePw8BBZWVmoqKhIi+AFJH8+RKNRDA8PizVfWVlZ+PTp041uUk70kDB4Ef2CPmTpP6AURcHBwQHevXuHgoICcRWzra0NwWAw6fZ33SHUv4ZwOIzW1lZ4vV7Mzs6yNDZlDH37fPz4MSRJQllZmdh/iCjdHR4ewu12p82Il562TnlrawvV1dXwer2QJAmVlZX4+vUrTk5OkEgk+BlB9A8YvIh+wrguSz96dXBwgObmZphMJkiShPfv3yMcDifdVz/idZf0r//o6AhPnjxBbm4uPn/+nBYjckS/YrwwoK3x8nq9OD09ZfuljHB4eAiPx4PS0lLs7Ozc9csBkDzbQbsQF4/HMTQ0BFmWIUkSPB4P+vv7cXx8zGON6B8weBH9hHFaoWZ/fx+tra1wu90wmUwoLS0Ve7JoVw21+6VDsNEHr+PjYzx58gQ5OTn48uXLpe+PH6qUzrS2rO3j5fF4EAwG2W4pI2jFNQoKCvDt27e0aLfGi4vn6jnO1XMcHBygu7sb+fn5ouBGR0dH0gVGIvozDF5Ev6CNWmlroYLBILq6usQc+GfPnuH79+9QFAVasY1U+3zdJX0IDAaDaGxsFFUNjcU17vq1Ev2MdjxVV1eLEa9AIHDXL4vot2jBKzc3V1z4ukvGWR3aZ5j2uRCPxzE1NYWcnBxIkgSz2YwPHz7g+Pj4Tl83UaZi8CL6BS14qaqKk5MTvHjxAk6nE5IkXdqEWD9VI10YR92CwSCampqQnZ2NiYkJUXmRKN2lWuPl8XhweHjICwaUEbTg5fF4MDU1hUQicdcv6dKxY7xYGIvFMDQ0hOzsbMiyDLfbjTdv3tz2yyS6Fxi8iP6f/sPGOOddURR8+fIFpaWlsFgssFgsaGlpwdraGuLxeMqrhulE/7pCoRCePn3K4EUZI9Wx1dDQIEpe+/3+tDvmiFI5PDyE1+uFz+fD3Nxc2l2ou0okEsHq6iqePXsGWZbh8XgwMjKC09NTcRseg0S/xuBFZKAPXefqOaLRKDY3N1FfXw+TyQSHw4GSkhLMzc2J6YXp/oGj/57C4TCeP3/O4EUZI9WFDW3ESwteRJlAC14lJSViXXA603++navn+Pr1K7Kzs2E2m1FcXIypqamk4jbp/llIdNcYvIhS0KYWHh4eouv/2Dv/iFbf/4/PzMwkmczMJDNJkmSSJEmSHEeSJEeSJEmSHElikiRJMkmSJEmSyWSSJDOZyUySmZnMzMzMzNzWen7/ON/r+tz3fVanc07nXWvX40inunf/uO7r1/N6va7Xa3wcGo0GUqkURUVFsFqtiMfj4DgOHMflRAJi/oSV5PHSarXY3NxkwouRE4j3oPCjGrLgGoxcgeTxqqmpyTnh9YQnpFIpXF1d4cuXL5BIJFAoFBgfH0coFMoZ6x2D8Z4w4cVg/D/i/VnxeBwrKyvQ6XR0gGlsbKSuFfy9Xx8d/j6vWCyGwcFBJrwYOYPYzfAJT+jo6KB7vAKBQE60QwaDCC+NRgOz2fzhExOLLc2ZTAaJRAIbGxtQKpV0r/Ps7CxCodB73y6D8eFhwouR1/BXycleLpLramlpiYquuro6zMzMwOVyCRIOk++5sNrOj2rY3d1NN3cTd0kG46OSbe+kWHixOszIBYjwKigowPT0NGKx2Hvf0qvht8FwOAyTyYS6ujoqwKampnB7e0sj+37UPc8MxnvChBcjrxEPCiTq37dv31BYWAiJRIKysjLY7fZ3vMu3I5PJwOv1oq2tDXq9HsfHx1mtCQzGR0NcT4mroU6nY0ldGTkDSaBcUVGB8/PznLfUut1utLS0QCKRQCaToaWlBRaL5SfxxWAwfsCEFyPvEQ8Mp6enkEqlkEgkKCoqgslkoquSuTqA8Cetfr8fX758QUlJCfb395FOp38SnwzGR0MsvMhkjwgvBiMX8Pv90Ov1qK2txe3tLYDc63PFbXF5eZlavSQSCRobGxEOhwUu7sz6xWD8gAkvRl5CBgP+z1arFd++fUNNTQ0kEgkaGhpwcnKCh4cHPGYef9oDliuIB7toNIq+vj66x+uj7zFgMICXLV6BQOCd747BeB0kj1d1dXXOelKIhVQgEMDp6SmMRiMkEgmUSiVGRkZwe3v707HZ/jEY+QQTXoy8QNzJ8wNjcByH29tbOmjI5XI0NTXh5OREcI5cCaQhRvzsfOG1vr4uEF5sEGR8VMT1uLW1lQovv9//vjfHYLwSIrzq6+txd3f33rfzRzwnnKxWK1paWmiuyy9fvsDpdCKZTDLhxWD8P0x4MT49xFJFvvgd/mPmESsrKzAYDJDJZNBoNDCZTAgEAjmTo+t3eMITIpEIent7odFosLGxQYVXrlr0GPmBeA+ieI8Xg5ELkD1eTU1Nn6Le8tslx3EIBoNYWlqCTCajY+rg4CB9Vv54/NnGVwbjNTDhxfjUZOvY+T+7XC7U1dVBIpHAYDBge3sb8Xj804kQ/jPH43EMDw9Do9FgfX1dEE6eDYKMjw6poySBcklJCQtjzcgZ/H4/SktLc9rilQ3+WOvz+VBeXk73fBUXF8NisQiOJd/FAoyJMcZnhwkvxqdG7NKQyWSQTqfh9/txfHyM4eFhlJSUoKysDPPz8wiFQoIVuc8Cf1BLJBKYmJiATqfD9vY2E16MnCKb8AqHw+98VwzG6+ALr/v7+/e+nTeDL5hisRgWFhbQ2NgIlUoFiUSCwcFB2Gw23N7eCgI68Rc5mfshIx9gwovx6SEraul0moZT7+/vp6txzc3NsNls1LXws4kuQDgoJpNJTE1NCaIa8o9jMD4i4glZZ2enwOLF6i4jFyDCq7m5+dMFhRG30WAwiJGREUHEw7q6OsTjccHx/M8w4cX47DDhxfh0iC1c/NW0+/t79PX1QaPRQKVSoaOjA8fHx3QgyGQyNILhZ0K8GjkyMgKdToednR1m8WLkBM8JL5ZAmZFL+P1+lJSUfDqLl5hMJoNUKoWbmxusrKxQ10OFQoGZmRlcXl7S41jIeUY+wYQX49MhDqaRyWSQTCZxfn6O7u5uSCQSqNVqLCwsIBgM0s8AwkHgM8Ef0OLxOMbGxlBaWoq9vT1m8WLkFOLgGlqt9lNPYBmfCxJcw2g04ubm5r1v559AAlfxx5PNzU2o1WqBpwmx+JHjyWfYOMT4zDDhxfhU8Dt80nmn02ksLi6isrISMpkMOp0OMzMzAisX3yr2WSHPlkgkMDk5Cb1ej+PjY4Fb5Wd+fsbnQhxcI9cmbLl2v4y3wev1Qq1Wo66ujiZQ/myIvU6e8IRoNIrNzU3U19dDKpVCoVCgu7sbDocD6XSaCS9G3sCEF+NTwRdRqVQKVqsVHR0dKCoqopELHQ4HIpEIgPzazEueMR6PY2BgADqdDru7u3jMPL7znTEYv8/Xr18hkUig1+sRiURyrh3nU9/D+B8+nw9qtVrgaviZ64B4f/Hd3R11dZfJZDAYDNjY2KDH8MXaZy4XRv7ChBfj00A66nQ6jXg8DpfLhZ6eHsjlchQUFECn02F8fJwKDb5LYj508Pw9XiSB8tbWlmCPF4ORK3R0dFCLl9hl+KMjDibAyB98Ph9KSkpQV1cHj8cD4HPXAbH1CwDcbjdGR0dRUFAAiUSCrq4uuN1uxGIxcByHx8zjT/u+GIzPAhNejJzluc24fr8f3d3dKCwshEwmg0KhwP7+PqLRKJLJZNYVtc8WxZCPuHzC4TB6enqgVquxsrKCZDJJj+N/ZzA+MkR4keAaQG7UXTaRzG8+ax6vXyEeb2OxGA4PD1FbWwuFQoHCwkL09vbC6XQKhBf/s6zdMD4DTHgxcpZswiuZTMJqtdJNvHK5HO3t7fB6vQAgyB/CP8dnRlxO4XAYfX19UKlUWFhYoMKLfzyD8dERC69casu5cp+MtycQCKC8vDzvhJcYsu9ra2sLZWVlkEgkUKlUGBoagtPpFBzHXA8ZnwkmvBg5hVg08S1VDocDc3NzaGxshEwmg9FoxNTUFG5ubsBxnCDKYT4hFqfRaBSDg4NQq9VYXV0VCC82uDFyBb7w8nq9OVl3c/GeGX8HEV5GoxEul+u9b+c/h9R54vKfSqWwvr6O+vp6KJVKSKVSNDU1weVyUTf4bIusrN0wchUmvBg5gbjjFVtwzs/PYTQaIZFIUFBQgIGBAUGoXv7+r3wMJsEvL6/Xi7a2NprHix9OPt9EKSO34E+8SGoIrVYLt9vNJmKMnCAQCKCyshI1NTUCy04+wd/zRcYcr9eLzs5OyGQyyGQyNDQ0YG1tDbFYDAAEEQ/Fi64MRi7xpsKLDXyMfwV/lUscEOPg4ABGoxFSqRQSiQTV1dXw+/0AhHm58imQhhj+YHV9fQ2j0QitVguz2YxUKiU4jsH4iIhXvHt7eyGRSKDRaODxeNhEjJETBINBNDY2fupw8r+CjEVkLxdpu1arlSZaJhFLrVar4HPZ/s9g5BJvIryymYHFv2cw/gbxRlvgxwrY1dUVmpqaIJVKoVarMTIyApvNRq1afLGVz3WR//yBQACdnZ0oLCzE9PQ0zWfGP47B+Ijw6yc/j1cwGGT1lpEThMNhtLe3C6Ia5hv8hUD+2BSLxXB5eQmTyQSZTAa5XI7q6mr09fUJ3DLzeRGVkfu8qfASb4DM98ku420g/uD8evbw8IDNzU00NDRALpdDqVRiZWUFoVCIfkbcqedzXeQ/eywWw+DgIIqKijA7OysQXgBzN2R8PLKtdIsTKDMYucDDwwNqampQXV0Nu93+3rfzrmRbqAeASCSC/v5+qFQqav0aGhrC3d1d1nDzDEYu8VfCi1R4/upDKpWC3+9HKBRCMpmkX/zcSeT7rxrNWzaqtziX+PPZJvfPHfun95aPHctL1tNkMgmLxUKTIsvlcrS1teHg4IAKCCa0foZfHtFoFCMjIz8F12BlxcglOjs7aXANn8/33rfDYLwKkkC5pqYG19fX7307Hwb+GJVOpxGNRmGxWGAwGCCVSqFUKlFRUYHZ2VlEo1G2qMrIWf7a4sUXH5lMBhcXF+jo6EBnZyemp6cxMTGB6enpnFyRfKlhZ2vo5HdkNYbx+7xU5slkEicnJygpKaGrYEajEVdXVzRMPOuIs8MvC2Lx0ul02NzcFOzxYjByha6uLhpcw+fzsfbOyAl8Ph90Oh1qa2sFAaDyGf6YzV/MTiQS2NvbQ11dHR3zCwsLsba29pOLPIORK7yJ8OL/Ozs7Q0NDAwoLC6HRaKBSqVBbWytwAcuVRvJa0fWYeUQsFmMT2DeGlHEymcT19TU2NjbQ1dUFuVwOvV6PtrY2mM1mRKNRejwTXtkhZfGEJ8TjcUxNTUGn02F7e5uG7GUwPjr8dv3161eBxYu1d0YuQBIo5/Mer2yIx+1MJgOO4xAOh7GxsYGWlhYYDAYolUo0NDTAbDbj+voawWBQsPDKYHx03iyqIb/CHx8fU6uETCbDwMDAT3t0sokZfp6lX/nvZptkv+bfazdkij+T7Yv8PRaLYWdn56cIRdmu/dy+o+euI/77S/eaazwnlMTPY7fbUVpaKrBynZ6e0mPzMTfX7yIezMxmMw0nLxZeuViXGPkDqZ+NjY3U4nV/f//Od8VgvA6fzweNRoPa2lomvJ4h27wnmUzi7OwMra2tNIJxYWEhRkZGBK7Gzy2Us3GN8VF4E4sX/zsAnJ6ewmAw0IaxtLT0KsEjFh2vufZrxNSvJufZGuVL5+X/7THziO3tbbS3t+P8/Fxwvtfe00vHvaYscrVTeU6AEu7u7mA2m9HZ2QmFQgG5XI7W1lYcHx/T3B6sU30d/HKKx+OYmJiAVqvF5uYms3gxcpKWlha2x4uRc3i9XhQXFzOL1wvwt6/w55iJRAI2mw2NjY2QyWQ0ncTk5CRubm6yLiKyOQLjo/FPEigfHx9TC4VKpcLOzo5gxT0QCOD+/h6RSAT39/ewWq2w2+0CqxjwI+zq9fU1XC4X/H4/bDYb9vf34XA4kEgkAADpdJqu4t/d3cFiseDg4AAnJye4v7+ngQNIzgiPx4O9vT3YbDYEg0HasBOJBNxuN25vbxEOhwXPEwgEsLOzA7PZjIuLC4EQenh4QHV1NQoLC2EymeDxeAS+x+l0Gj6fDzabDScnJ7Db7UgkEj91BtFoFA6HA4FAAF6vFw6Hg7rQPWYecX19jePjYxwcHMBqtSIQCNDnytVORWzhIj+Tla3u7m7auRoMBkxOTsLtdv90jlx89v8a/sphLBZ7NrgGK0vGR4ZfP/muhg8PD+94VwzG6yHBNerr63F3d/fet/Mhybaozp8nXF9fY2Jigs4P5HI5GhoaBFEi+Z9n4ovxkfgnwuvw8BA6nQ4SiQRFRUXY3t7GY+YRfr8fa2traG9vR0NDA7q6utDc3Ay9Xo/Gxkacnp6C4zgkEgk4HA4MDAyguroaRqMRLS0tKCsrg1arRVVVFfb29sBxHJ1Mut1uNDY2orS0FFqtFqWlpWhubsbo6CisVis4joPX68Xg4CA0Gg3KyspgMpkQiUQAADc3N6itrUVdXR3MZjOAHx3k2toavnz5Ao1Gg8LCQtTU1GBpaQmBQADxeBxzc3NQKpWQSqXQaDQwGo3Y2toCADidTkxPT6OpqQllZWUoLS1FTU0NBgYGcHJyQu//6OgIg4ODqK6uRnt7O9ra2lBVVYXDw0OEw2Hs7OzAaDRCp9NBq9VCr9djbW0t5zuUbFa/dDqN4+NjlJeXQy6XU1einZ0dgRDNxed9T8TCdn5+HsXFxVhcXKTCixzHYHxU+PWzu7sbUqkUOp2OJkxnMD46JLhGfX09c5H9BdncBsmcLxQKYWxsDBqNhm5D+Pr1K87Pz5FKpQTijR9+npyHwXgv/rnwIhFoMpkMPB4Pzb0ikUhQUFCA6upqFBUVQSqVoq6uDjabDbFYDOvr61Cr1ZBIJJBKpaiqqkJLSwu1pDU0NMDhcOAx8wifz4eBgQEaWnxnZwdHR0coLy+HTCZDVVUVLi8vEYvFMD4+Tq8/NjZGJ/NOpxMSiQQKhQJra2sAgIGBAahUKqjVahwfH2NhYQF6vR6lpaWw2WzgOA6Hh4coKiqCQqFAV1cXzGYzPB4PYrEYenp6oFQqUV5eTq1wAwMD9FlJBzE8PAylUimI2mMwGNDX14cvX76gpKQEXV1dsFgs2N7eRnl5OXp6eqhlLheFl3g1K5lMYn19HR0dHfQdl5eXY2FhAXa7Hclkkj4nE16/D7+8IpEIBgYGoFarsba2xoQXI2cQCy+yMOP1et/xrhiM1xMIBFBVVYWamho4nc73vp0PT7YFZiKmotEozs7O6LySBN7q7OyE0+kEx3E/zRnYGMd4b/6J8Do5OYFer4dEIoFSqYTJZMITnmgYa9JA2tvbYTabqa8+sWxwHIeLiwt6juLiYqytrcFms6G/vx9SqRQGgwHHx8dIJpPY2dmBWq1GaWkptre36UTy69evkEqlUCgUmJmZQTQaxfr6OrWkjIyMIBKJUNO1VCpFeXk5Ddzw9etXKg5jsRjsdjvq6+uhVCpxcHAA4Meqi1arhUqlwsbGBpLJJDKZDBwOB6qqqiCVSjE0NEQjHu7t7UEmk6GgoIBa3BYXF1FUVERFZmNjI1ZXVzExMQG1Wg2ZTIbv378jHA7D7/djaGgIPT09CAQCPwmYXIC/EpVOpxGLxeB0OlFTUwOpVAqpVIrCwkKMjo4K3D7FLgeM18O3Lt7f36O5uRlqtRpms5lF42TkDPx239PTQ8cN5rLFyBUeHh5QX18vmGswXua5oGSEvb09VFVV0QVshUKB8fFxuN1upFIpmkeWfy4G4734J8LLbrejtraWWrUWFxdpZTeZTJBIJOjt7YXX60UikYDZbEZhYSFKSkqws7ODdDqNQCCAyspKur8nFoshnU7j8PAQGo0GlZWVsNlsCIVCNIJic3OzYLOqzWaj4k2j0WB5eRkejwffvn2DXC6HUqnE/Pw8otEoZmdnUVJSgq2tLbp/LBgM4u7uDn6/H6urq2hsbIRCoYBEIqFWsWg0Cp1OB5VKRV0qA4EA+vv7IZfLUVlZKdgX5vF4aDQug8GAw8ND+Hw+9PX1QSKRQK/X4/j4GBzHwe120/DpSqUSxcXFaG9vh8fjQTQapas5uSZE+G6FNzc3aGpqolbPgoICDA4OIhAIIJFI0HLjiy4WwfD3Iat+mUwGt7e3aGlpgVarzRpOPpfqEiO/4NfN3t5e2rff3NywesvICci+cCK8WL19PeL5DpkPpFIpRKNRmM1mNDY2QqlUQqFQoLS0FNPT0/B4PHScE4s4BuO/5p8Ir4uLC1RUVFDhRaIaAsD8/DwkEgm+ffuGh4cHpFIpbGxsoLi4mE4ESQAOIrwqKiroqvzh4SGNCHR1dYVIJAKVSgWJRPJTJvibmxtUV1fTvWZzc3OIRCLY3t6mYq29vR0ulwudnZ3o6OigwRtIg4zH4zg5OaHPQ76WlpYA/AhUQIQXCSJye3uLtrY2SKVSVFRU4Pz8nJq6Hx4e6EqtTqfD1tYWQqEQpqamqHsdiY4Yj8exvLxMXS7JJGNmZga3t7fPrv7kAolEAlarFYODg9Tap9frMTExgcvLSwDImog6V5/3veFbGcPhMPr7+2n9Y8Lr48DK/mX45UMSKOt0up9SeTCEsHr1cSBzm+rqajgcDgDs/bwW8X4v8UKsz+fD0dERdUMm/cPY2Jigj2DzCMZ78lfC67nKe3Z2hvLycmry/f79OzX1EuHV3d0Nr9eLVCoFs9mMoqIi6lLIcRyCwSAVXvX19XRyuLe3R4NcnJ+fIxwOU+FVVlYGm81G78nlclHhVVxcjNXVVXAch0AggObmZury2N3djaqqKhwfH9NNmel0GpeXl5iamoLBYEBzczOMRiMKCgogkUhoAI5IJAKdTofi4mLs7e0B+LFfjGRaLy4uFlgVEokEZmZmIJPJUFhYiOXlZYRCIczOzlKRSYQH8MPqtrCwAIPBQHNXEIvh/f09LdeP1IG81KmlUinY7XbMzc1Bq9VSd9Ta2lpYrVZq5XptNKJsftvZPvcnHa34+OfOmQvww/MmEgmYTCZotVqsr68LXA1z5Xn+lpfcVvjHiI9/62uLf8/cYJ5HXGYdHR10YkWivDJ+IO6n+K5Wb3Ve8e/53xnP4/f7odfrUVtbS8UAK7c/J1tffn9/j66uLjoPJYv95+fn8Pv9Wb1m2Dtg/Ff8lfB6bpJgtVqpi59cLsfY2BidVHz//h0SiQSdnZ3w+XzgOA57e3vQarUoLCzEzMwM4vG4QHiRPVbAD+GlUqmg1WpxcHCAUChEA3mUlJTQaIcA4HA4qPDSaDSCZLFDQ0MCIVNZWUkDbQA/cm2QzzY0NCAUCtFoexKJBNvb2wB+uA1otVpotVrYbDYAP1wta2pqqPBcXFykk9twOIyRkRG6j2l5eRnRaBSLi4v0Pq6urgD8ECkejwdXV1c4PDzE+Pg4qqqqaAAOk8lEQ9d/lE7jOdGTTCYRCASwt7dH60ZRUREqKiowMTEBl8slcCt8zWbYbALoVxPpt0i2TM6dS4mb+WI2mUxidnYWOp0O29vbSKfTAD5OHfovEIuc55K2k+P4P7/FtcV19rm/Mf4HE16/x2vq1Z/Us5fOw+rtryEJlOvq6pil9o3g9+f8unh6egqj0Ui3iKjVanR0dFDX5FxcRGXkPn9t8eJPlknF5SdQ5guvVCpFowp2dnbi/v4e6XQa19fXqKmpoe6AiUQC4XCYiozS0lIaLvjo6AhqtRparRaHh4eIRCJUIBUUFGBmZobu0To/P6eT/NraWlxfX9N7XF5eptYrIu7IBPQx84iDgwPqjvjt2zekUilYLBYacY8IL7/fD61WC51OR90c7+7uqEVNJpNheHiYCq9AIEAnDBUVFTg5OUEqlcLq6iqkUqkgm30kEsHExAS+fPmCRCIBjuNgNptpAIrBwUEEg0Fa/u8NqQPZEkM7nU5MTk5S4VpYWIju7m5sb28LAmhk29P11vf4lmIpVzps/qCUTCYxPT2NkpIS7O/v/yS8cuF5/pa3EuF/eu2XFhNypU69B0x4/R5kLI3FYoLJKan3v1v/xZNVcT+fKwtR7wkJJ88f6xl/D6mb/C0KqVQKx8fHqK+vFyy0j46O0rmT+POsD2b8a94YiF0dAAAgAElEQVREePEnMRzHYWVlhbr/SaVStLW1IZVKIRaLYWBggAovj8eDVCqFnZ0dlJaWQi6Xo6enBz6fDx6Ph07SS0pK6MrQ2toaFAoFlEol5ubmEA6HYTabUVZWBqlUipqaGmxvb+Py8hLd3d1QKBQoLi6mbmykMd3d3aG/v5/m4Pry5Qt9hsfMo8Bqp9frMTU1hZaWFho1p7m5Gaenp9TiplAo0NLSgm/fvmF3dxeHh4f08+Xl5XC5XPD5fDCbzVSoraysIBwOw2630z1hxcXF2NzcBPAjYiLJO7a3twefz4fd3V16D0NDQwiFQvRdvFdHIe6s+MIrEonAarWira0NxcXF1P1yYmKCht3nd5TPWQLEBAIBLCws4Nu3bzCbzTg7O8Ps7CxGR0cxMjKCkZERDA8PY2RkBOvr69Sa+acrvASO4+ByubC0tIT+/n6Mjo7mxODJF14knPxze7zyAX7i9L29PVpXRkdHMT4+jpGREYyNjWF0dBSDg4MYGRnBysoK7u/v/3pySaJ5Op1O7O7uYn5+Htvb2zTCKnM3fB184cXyeAkJBoNYXFxER0cH2tra8PXrV/T09GBkZEQQiOR365m4n0+n0yxYwW/i9/tRVlaG2tpauqec8TaI+89MJoN4PA6Hw4HR0VG6X764uBhtbW2YnZ3F5eUlXaxn4ovxX/DXwTX4E+1UKoXDw0NUVVVBJpPRr4qKCgQCAbr3SSqVQq1Wo7+/H9fX1+jo6IBCoYBUKqVBKmw2G0pLS+mxBwcHiMfjGB0dpRaf1tZWOBwOxONxGlJeLpdDp9OhvLwcCoUCWq0Wk5OTWQeIy8tLVFdXo66uDsfHx4K/RaNRNDU1QSqV0v1YMpmMXlsmk2Fqaopa5kgGdYlEgoWFBXAch+/fv9PP1dTUwGg0QqvVQiqVYnR0FJFIBJlMBtPT04LzDw4OIpVKIR6PY2xsDAUFBSgtLYXRaERlZSXN0n5yckJD538E4cUXrul0GlarFV1dXdDr9bTMGhoacHBwIFht4n/+tc9xc3OD+vp6SCQSqFQq6PV6KJVKyOVyKBQKyOVy+q7UajXNl/K7k1rx/cTjcczMzNCFBZ1Oh7Ozs98orfeBX7bRaJTm8VpZWaE50vIJ8rypVIruOyVfpN+Sy+WCNq9SqWAymajb899cO5lM0siSSqUSdXV1tI7m27v4U3p7e2kCZWbxEhKJROgiH6nXZBH05uaGHve7fSGfeDyOUChEFzRZvX0dgUAAFRUVqKury4lFu1xBXP/E3i3BYBC7u7vo7e0VhJ2vrq7G3t4e3d7AhBfjX/PXFi/gf5O6x8wjHh4ecHV1BZvNhsvLS9jtdrhcLnAch1gsBqvViqWlJSwsLMBisSAcDsPhcGBrawvz8/Mwm83wer2IxWI4OjrC1tYW9vf34fP58Jh5hNPpxOLiIlZWVnB2doZYLIZMJoNkMgmPx4Pj42NsbW1hfX0dx8fHuL29RTQazboql0qlcH19jbu7OxpUg8/19TUODg5wcHAAm80Gh8OBi4sLHB4e4vz8HMFgEBzH4fr6GltbWzg6OoLdbqdWqGg0CpfLBYvFgo2NDZjNZuzv78PpdCIcDlORcn9/D4vFAovFgvPzc3i9Xipibm9v6d/W19cxPT0Ni8UCn8+HVCr1W2Llb8lWhuQ+yd/ISn5HRwc0Gg2dxHZ2dlKrnTgM/p90cmT/GxGmxAJ4eXkJj8eD29tbnJycoLW1FTKZDHt7e1R8Z3uO5+5DLAjJ+yLh/w0GAy4uLgT39pE7bDLpn56ehkajyes8XmRQdrvd1DWYBPM5Pz+H2+3G9fU1XC4Xpqam6AIKP2fUc4P9r9olx3FYXV2lK7ClpaWwWCwAkDVBuHhxQvy3fEBcniSnI7N4CSH9VDKZxPj4OBQKBWQyGbq7u3FzcwOO457dQ8vvA7O54vL/Njc3h4aGBlit1qxWc/H7Ym6IP/D5fNBqtczi9Q95rh/mOA7hcBgnJyc0zyuJAdDf3w+Px0MD0fC9cPh1N1v/zGD8Dm8ivLKtFDxnWXjMPCKVSiGZTCKdTtNjOY5DMpmkye6e8ASO48BxnGDC/Jh5BMdxPyXFI/dDrC1kcCG/f25AEU+8xceT8/GfkeM4gY88+R3/evyGSp6PPEu2ciTXyTbQkd8TK5h4s/9/LbzI/8X3mkwmcXR0hNbWVsEq65cvX+B2u+mzP5cM8Xef4QlP2NraogLPYrEI6sQTnuB0OtHT04OjoyM6Ocg24eB/5lcThFQqRYOhaDSaZ5Ng/uqZ/uvOm9xPIpHA1NRUXkc1BP73rNFoFDMzM1TA9/f3/2TVImK7s7MTXq/3Ved+qR5xHIfLy0u6F7ayspKmkXgt4j7ssyNuT/y0HMziJYSU09raGoqKiiCXyzE9PS1wqeJ/F3+O/F/cnxJub2/R3NyMkpISHB4eZg3QQ8a954RdvtRbMWSPV1VVFQ2kxXhbnpuL8ueWTqcTZWVlgrnKt2/fYLfb6UJ8Pi90Mf4db5LHSyxaXvuZbJ8Vr1CIK774c9kmH2KBxd+Hlq3jzyYAskXIEd//SyvbLzVa8fFiIfXcM4uf7b8cxF66FnEj3dnZQWtrKwoKCqBWq1FRUYHu7m4aQOS5Z/nTZ0in09jY2KDC6+rqSiDQk8kk3G43tra2cH9/T8stFovh7u4OTqcTTqcTNzc38Hq9VJil02kEg0Hc3t7i9vYWXq8XbrcbNzc3CAaDSCaTWFpaosLLarUC+DEZIefzeDzUlTQej+Pu7g5utxvBYDDrfrb/AnKtRCKByclJaDQarK2t5a3wIsTjcSwuLtI9iIODg4hGo4KyIKukJycnVJSlUikEAgG4XC44nU7c3t7SIAakrkWjUXi9Xtzf3yMQCMDv98Pv9yMajeLy8pIO/JWVlbi8vEQqlYLf76fH8xOlp1IpRCIRRCKRnya0+YC4vfDzeDGLlxBSTltbWyguLqZBrkif9Ny49ph5RDAYxM3NDU5PT2G1WuFwOOB2u2k/EQqFMDMzA7VaDbVaDZPJhNvbW6RSKaTTaQQCATgcDpycnGB/fx+np6fweDx0oTXf6q0Yv9+P0tJSVFRU0EjIjLfhV/Mw/s/xeBxra2v48uULKioqoFKpoFKp0NPTg93dXTrei8frfK+/jL/nTSxe2X6f7W+/mmTzhRT/d9kS6b50LbEwIZ9/6fpi65j4PC+JqJee7XeO4U/YskUGBJ4Xov+C5+6Lf83HzCN6e3shl8vpylFJSQlWV1fpKrS47N/K5SSdTmNzcxMajQZyuZz6y5PVV7vdjoaGBpqsG/hhldve3hbk91AoFKivr4fP5wPwY2IxPDyMkpISGAwG1NbWoqioCEqlEiMjI4jFYlhYWIBEIoFWq8Xp6Sme8ASj0UjTBJSWltLIl9fX1zAajSguLsbU1BTdU/VcvfrXEFfD4uJiLC8v032C+QS/zGOxGEwmE03k3dXVRdM0AD/qOHFhJkFa0uk0Tk5O0NnZSUMVl5WVYXV1lQbJiMVimJ2dRW1tLSorK9Ha2orGxkY0NDRgY2MD5+fnNHJrWVkZzs7OcHt7i/b2dlRWVuLLly9YXFyE3+/HY+YRNzc3mJqagslkws3NTd5PZPnBNe7v79/7dj4UpE7s7e1Rd9ampiY4HI4XXa2DwSAmJiZQUFAg2Les0+lo/3p8fCzYE0kWKx4eHuDz+dDd3U33RZNxoaysDKFQCE94yurZkU8Qi1d1dTXsdvt7307eIK7v/O+BQADT09N0DCDpboaGhgRutOK5JYPxJ7xJcI3X/v5vKutLYiPb6l02kfOcsHtJLD33LOLjsomrP+VX53hL4fXS58ViiX+s3+/H3t6eIBFyaWkp2trasLCwgFAo9Kxl5606rMfMI/b391FSUgKZTIaJiQm6f9BsNqOvrw9yuRytra10RTwUCqGpqYlOBvr6+qi719bWFlKpFB4eHtDR0SGYeGg0GpSXl1PhRSxeOp0ONpsNj5lHwWfKyspwfHwM4EdOuNraWuruwxde79GBkzxexcXFWFxczGvhRQTSwsICDZhSUVGBpaUlrK6uwmw2Y35+Hi0tLRgYGKCLCYFAAC0tLVAoFDAYDOjp6UFJSQnKy8vx/ft3RCIRBINBms+PH7hDpVJhaWkJl5eX9O8k+bvf78fQ0BDd/N3Y2Ain04nHzCPNSaPVamE2m/PyvfEhwkur1cLj8bCJEA/S9+7s7ECj0UAikaCmpgbn5+fPWrxSqRQODg5QWVlJg1d1d3dDpVJBqVRibW0NyWQSTqdTkE+ytbUVNpsNkUgEs7Oz1NvBZDLBaDRCIpFAqVTi7OwM6XSaCS+fD2q1GrW1tYJAJ4z/Fv68huzd/v79OxoaGuhihVarxdzcHKxWK/V04C/k/+r8DEY23sTV8CPzGlGVzw3kV4JWLA6SySTOz89pKH7iG11fX4+DgwP4/X567L9eGXrMPGJvb4/mW8v2JZVKMTQ0RHOFkUGvqKgICwsLeMw8or+/HxKJBAMDA4jFYkgmk9jd3aVWsZqaGmxublKLRCqVwsrKisDiBYDmeZNKpaiqqqLRDu/v71FbW0v3ur2HlYv/HhKJBL5//47i4mIsLS3l5QSeX/7xeFwgvEhOQH6ePxJtlFhOHQ4HjaJJkr6TPUcymQx3d3eIxWLo7+9HYWEhFekjIyNYW1vD7e0tXC4XXQQwGAzUZfXh4YHWPYPBgLOzMzzhCQ6HA3V1ddDr9djf38/LoCj89zYwMACpVAqNRgOXy/WOd/XxIMJmfX0dKpUKUqkUjY2NcDgcWft54Effvr6+DrVaDb1eD5vNhpOTE5SWlkImk6G3txcPDw8Ih8MYHBykqVb29/fBcRx8Ph91162srBTkbZTJZBgfH6fW4Hwed0kC5ZqaGjidzrwui/eECC/+eEyCtK2vr0On0wksviaTKWs6EfFCRr7Xb8avyQvhRaIter1exONx1ih4vEZ4EUKhENbX11FRUUHdqyQSCbq7u3F5efmsL/S/KmuO47C2tga1Wg2pVIqenh4sLCxgbm4OQ0NDdNCfnJykq1WRSAR9fX1obW2ludVaWlpobjav14snPAkmxWNjY9TFDPjhZra+vk4ThO/s7NBzDw8PQyqVoqCgAMvLy0gkEpifn0dlZSUODg4EQVr+S/jW3kQigfHxcajVaqyurual8OIPnmLhpdFosLS0hJ2dHYyNjaGmpgaFhYWYmJigE0e/34/Gxka0trbi5OQENpsNDQ0NdJJ5e3uLx8wjbDYbTfDe1dWFu7s7GoiHCCm+qyHw412R35MFglgsRpO6T01N0b1k+Qb/mUdHRyGTyZjwygIpp+XlZZqqhB9KPlv//Jh5RCAQoBF4bTYbenp6aFqFvr4+BINBhMNhGtW1oqICx8fH4DgObrebjgsymQxFRUXQarUoLi6mbYrkbczHuksIBAKorKxEWVkZTk5O2HzkHeF79PDHhFQqhY2NDdqnk7Q1HR0dtL7zz5HtnAzGc3x64QX8EAytra0wGo0YHBzE3d0dS/ooIptbIcdxeHh4gNVqRV9fH+rr66nbSnV1NRYXF3FwcACfz/diwIh/KbyWl5ehUqkgl8tpcIJkMolIJIKdnR20tLRgY2ODigviUjA/P4/m5mY6qSZWKrvdjic8IRAIUAtGb2+vIO9YKpXC8vIy7ZBJwutMJoPLy0vU1tbSCElnZ2eora2lq8XvhdjiRTbHE/ehfINfHrFYDHNzc1R4dXR0IBQK4THziGg0ipubG0xPT2N1dZXu/UqlUjg+PkZnZydqa2thMBjopFOn09HIh9fX11RE8fcaZjIZXF1dUVHGF16ZTAYrKysoKiqCVCpFc3MzbYNSqRRHR0eC58gn+M9L8nhptVpBiH/G/8ppcnKSCqfu7m5aTvzJJn/FPp1O4+rqCv39/aioqBDkO5qenkY8Hkc0GsXk5CRkMhmqq6txenqKdDqNu7s72ga+fv2Kq6srXF9fw+FwwOFw0MAe72Hx/0iQ4BpqtRrr6+t5mcD+I5DN84k//0mlUri5ucHs7Czq6+tpWga9Xo/+/n4cHR0JonmK63Y+13HGy+SF8AqHwzTEuVqtpitvwL93h8slSOdBQvvf399jbW0Nzc3NNCGxQqGATqfDwsICDU380vn+ZbkSixeJ2kUS0BIeHh5wdHSEm5sbxONxpNNppFIpnJ2d4evXr3TiQFwKjEYjXREOBoPUBbGjo0MQNS2ZTAqS7pIgGsCPujY8PExdFAcHB6FSqbCwsPCurmH895BIJGAymajwyleXNbJYEIlEMDU1RV0Le3p6qIWTlNvNzQ2urq4Qj8dpWofl5WUUFxf/FEhAr9fD5/PhCU+4urqiwosvvjOZDOx2u0B4kQhnmUwGTqcTtbW1dO/k5OQkampqoFKpaN64fLQc8J+XRDXUarWvCvGfT5ByIpYp4ipIAgiJJ4okGfLt7S3GxsZQWFgIrVaL6upqFBQUQC6XY35+HslkEtFoFBMTE5BKpTAajTg7O6MLWkR4jY6OCu6HRHfNli8z3/D5fDRwE5m853uZvAfPlTmJikyOCYVC2NnZQW1tLZRKJWQyGeRyOZqbm+F2uxGJRJBMJn/a+8XeKeM58kJ4kcTLra2tkEqlKCkpoZOclyIm5iNkL0lrayvUajUKCgoglUqhVCrR39+P8/NzhMNhJBKJn4SVuMP51x2QOKrhxcXFT0kPOY5DNBpFf38/Tk9PcXNzg+LiYuh0OiwvLyMSiWBwcBBSqRTd3d0IBALIZDLweDxob2+nEbvIHjFAmMersLBQYIHIZDI4Pz+HVCqFTCaDQqGAVCqFxWJ5146YXJuE0x8aGoJWq8Xm5qYg1H++DBb8ATIUCtE9K0QgRSIRAEI3LJfLhZ6eHszNzWFqagoqlQqFhYUwmUzw+XxUCCgUCmpZcDgcqK+vpxYvEpwjnU7j+PiY7ompqamhEc5Izr6rqysolUra/oqLizE3N0dz+eVbHi9A+KwjIyPU1VC86JLvkLoxNzdHIxT29fVR4c9v6/F4HE1NTVCr1SguLoZCoUBHRwd8Ph/29/fpHq/+/n5EIhHEYjHMzMxAoVCgtLQUe3t7NC8SEV61tbU4OTlBIpEAx3HY29tDTU2NwN06X/H7/TAYDNDr9YIcaIyPAd/yReaHqVQK4XAYdrsdExMT1EumuLgYarUa7e3tNP8XgLyPOMt4mU8vvPiDy/z8PG0wxD2MHJMvDeRJ9I9PKBTCxcUFFSIkqIBarUZfXx+urq4ESYjf21Uzk8kIhNfx8bFgEOM4DrFYDJeXl6ioqMDm5iaOjo4glUqh0+mws7MDjuPoJv3e3l4ajfH8/JxG5BocHEQoFKLnJRYjIrxI9EIy2XG73TSgAvENv7y8BPB+k2TxRGt0dJSGk+cnVc2XtsB/xlAoRK2bZC8WsYg/4QnJZBIPDw9YXl6mVoDy8nLaNnZ3dxEMBmmUPRJcA4AgZDx/4stxHCwWC7WyiYUX8MNiy69Her2eCviP0P7em6GhoZ/2eOVrWfDhL7IMDw9DJpNBKpWiqakJ5+fnCIVCiEajNMfc7u6uILCMRCJBZ2cn/H4/lpaWqMtra2srnE4n4vE4VldX6cLc9PQ07u/vcX19TeuzQqFAW1sbTk5OcHR0hPb2dtTX1wtyLebru/L5fNBqtdBoNMzV8IPykiuux+PBly9f6LYLMg/o6uqCw+EQJB3PZgHL13rP+B+fXnjxG47P50Nvby8kEgna29txcXFBQ3vng9XruX1toVAIl5eX6O/vp6HhlUoldZXb2dmhOVj4n33PiV8ymcTV1RX6+vroPoTOzk5sbm7i4OAAu7u7MJvNGB0dhdFohMFgwM7ODrVUKZVKdHZ2Ynl5mU6MKysr6b41fjS6xsZGmiconU7DbrfTwBsSiQRLS0tIpVK0DpGoX8RF5+vXr++eZ0jsavj9+3cUFRVRC0q+DgbpdBrn5+fUrY8InK2tLZycnGB7exsmkwnd3d3UOtXd3Y36+npqiert7cX09DSNrimTyXB8fAy/34+BgQFq9WxtbYXdbgfHceA4DgsLC7TulpSU4ODgAMD/3lU0GkVTUxNkMhndo0Nc6pjwArq7u6mr4e3tLQA2qSHPHw6Hsb+/TxN0k0W0qqoq9Pb2YmRkBENDQ3TvSlFREWpqalBZWQmlUgmNRoOuri6UlpbSzyuVSgwODuL29hYWi4UGL1KpVBgYGMDV1RW+fv0qiAaqUqlQUFAAlUqFnZ2dvNxPKobk8SotLcXBwUFezD1yCb7Fi9/H8n8OBoM4ODhAa2srysvLaT/e3NyMzc1NuFyunzxJ8rmvZgj59MLrCU8C14bT01M6GFVWVtKwzJ+5YfA7Dj7RaBTn5+cYGBiAXq8XDJbj4+N0MkMQuze9Z3nd3t6isbGRTij4CZyJtY58KRQKTE1NIRKJwOVy0bxdZJJcWFgIhUIBhUKBiooKNDc3Q6FQQKlUoqCgADqdDtfX1wB+CL6VlRVotVpqPR0eHqauiKSciYtZVVUVrFYrOI571/Lii+VkMomZmRkUFRXBZDIJkgXzj80H4vE45ubmYDAYUFpaitLSUuh0OkEON1KnlEolSkpKcH19DZvNJki2SeoL+XloaAg2mw06nQ4qlYpGeJuenkYkEkE8HqcBOchE1WQy0ft6wo/gNoeHh9Dr9SgrK8PR0ZGgHn3W/uq1DA4OQiaTCYRXviKuB9fX1/j69Suqq6tRXV0NvV6P2tpaVFdXo6amBrW1tTAajTAajairq8PU1BTcbjfsdjv6+vpo7q6qqirU19dDr9dDr9djaGgIXq8XPp8PnZ2dtP9cXFxEOBzG7e0tpqenYTQaUVhYCJ1Oh/r6ekxOTlIX2Xyvt4FAgFrNbTZb3pfHR+Ilb4Jsv0skEri4uMC3b98EY0ZlZSVWVlayzqHYu2Z8euGVTqcFpt9kMomjoyNUVFTQgApkP8dnbRT8ziKRSMDpdGJtbQ3fvn1DRUWFQKgUFRVhZmaGBhfgm9v5++Hee7AIhULY2trC3NwclpeXsbq6itnZWZhMJqyurmJ+fh5TU1MwmUwwm800THwqlcLJyQkWFxdhMpmwtraGra0tmM1mmM1mXF5ewuPxYGNjg37t7OxQYZVOp+H1enF0dITNzU0sLy/TaIqkXDiOw8HBAaqrqzE0NIRgMChYMXsPxMJrdnYWhYWFNFJZtmPzgVQqBbfbDavVCovFAovFgqOjI6ytrWF5eRkrKytYWlrC8vIy1tfXcXx8jFgshlgshrW1NXz//h0mkwnr6+tYX1/H7OwspqamYLfbEYlEsL+/j52dHWxtbWFrawtXV1dIJpNIJpPY3NzE2toa1tfXsbS0RHP6kPZG9oEZDAa0t7cLUhoA798G35uxsTHI5XImvLKQSCTgcrlwfX2Nq6srWK1WuFwuOBwOOJ1OuN1uuFwuOJ1OuFwu6tFAgmRsb29jY2MDdrsdbrcbFosFJycnCAQCNAny5eUlVldXsbm5KXDFTiaTuL6+xtbWFiwWC9xuN6LRKD3/Zx1nXwsRXhUVFTg/PweQX31urpHNw4fUZYLX68XKygo6OzuplZgkF19ZWcHp6algcZYtnuU3n154kU6ev9KWSqXQ2dlJ3SfIfozP5Hv+XMO+ubnBly9fBKv1/K/KykpcXV0JzkHI9dVKfkf5p59/6dlJMI+Hhwf09fWhuLgYi4uLVNj87fX/Bv57IxavwsJCTE1N0fvL1ff6N/zpM/+te9Bz1+VblZPJJCYnJ6FQKNDT0/PsZ/LxvQFCi9fd3V3eloOYPykHMka+po96LiCVOBfSc9dhwTX80Ov1AuHF+Li8ZAET13mPx4PZ2VmBi65cLkd1dTUODw+fPWc+t4d85NMLL+B/DYRfyTc2NmhQBpPJhHA4/FNEvI/ESw002+/5IjKTySAYDMJisaCrq4u65RH3qerqarq5Wq/X4+TkhJ432/U/SifB7/heysvGP0YsxMWfzebXnU28k+vz/52enmJ6epqKrubmZtzd3QmSJr9X2fGvn0gkMDExgaKiIszOzuZlUvFs7z7b84vrznPHi3+XbWD91T8Cx3EIBAK4urqi+2iGh4fp/WS7dj7y7ds3mseLWbyE/KqOZfvbc31ftnr/3OfFfV226+drfSX4/X6UlZWhuLgYS0tLbN9bDvJc3U6n0wiFQjg8PERtbS11PyTBbVZXV3F+fo5EIiGYV5BzZvvO+HzkhfDKRiKRoJGZVCoVhoaG6KDxmpW7/5psE0PxAEl+fsw8Ip1OI5FI4P7+HisrK6iuroZWq6XJNOvq6rC6ugq73Y6bmxv09PRAKpWitLQUVquVnl98rY/UGbxmEpvtuF999k/Om0wm0dTUBKVSCblcDp1Oh/X1dUHH+p7w7z2ZTMJkMqGgoACTk5M/5az6SO/4X/Grd/u7x/3ttcl5A4EAxsbGUFFRgdLSUiiVSnR1ddFw6bludX5LSJ/FhNfv87d93++e57N4krwFgUAAlZWVUCgUGB8fp1sdGLkPsRhzHAev14v5+XmaEkQmk6GoqAg6nQ6dnZ3Y3t5GPB7PuljB+NzkpfAiFTsej2NlZQUKhQJlZWUCl8OPVvnFDfKlgfEJT3C73RgdHUVlZaUgJLVarcbU1JQg6g7JZSWTyVBeXk5dDbNd/6OVC+G97ouUyWPmEV1dXZDJZCgpKYHFYqGrWh9hXxxfACaTSczNzUGpVGJ0dJQN/O9EtvYbDAbR19dHV0qbmppgt9vz3j0rGyR8v0ajgdvtZuXzm/yJ0Pqdc/Ov8RHH1PciGAyivr4eKpUKCwsLNJ0HI/cR1/N4PI79/X10dnYKon2SHGAjIyOCPeKE99yWwPj35K3wIn7q9/f3MBgMKC4uxurqKvx+vyDK4UfhJeEF/Fhh8fv9cLvdOD8/x9jYGNRqNaRSKVQqFSoqKlBVVYXBwUF4vV5BPq5oNIqxsTHIZJawaNkAACAASURBVDJUVVXRCH6M10EmFhaLBX19fZiYmEAsFqP17CPUo+eE19jY2E8WL8Z/B78NP+GHG+j+/j6am5vR2NhIV0U/Wn/0ESDh5DUaDW5ubj6EZTnX+Beii5yXf34mvP7Hw8MD6urqWDj5Twi/vpOfE4kE7HY7hoeHUV1djaqqKqjVashkMhQUFKCrqwuHh4fweDwIhUKC5Mv/om0y3p+8FV5kIOA4DouLi1AqlZDJZGhra6OWr49UyV9qfBzHweFwoKGhQRBWXSaTobKyErOzs4hEIoLIhPwOgpSBXC5HVVVVVosX43n4ZSmOAPlRJh38ukOiGpI9XkQk8idLjP8e0hYfM4/0ix/wgA28QkhyYI1GA4/H8963k5P8y/rEJo3ZCQQCqKqqgtFopC7EjM8BX3QBEMwFyP/T6TQ2NjZQX18vCGymVCrR19cHp9MpSKrN2tDnIy+FF/A/q9dj5hEejwd9fX2QSCTQ6XTY29vLevx78NzgxXEc7u/vYbVasbCwQHOqkJDwDQ0NGB8fx/7+Prxeb1bTNTlfKpWCyWSCXC5HRUUFLi8v/+vHfDPE7+kt31u2jo8vVsSiln/Me+/N4QvDWCyG8fFxFBQUYGpq6ifh9Rn4k4GKL5Bf87m3LDP+ufj3IV4NFwvkz/TOfpfx8XHI5XJoNBq4XK6cLotfvUtxff4X9e5f8Jrz5/J7+xNCoRCam5tRWVmJi4uLD/H8H+EePhp/Wybifpr/LxQKwWKx4Nu3b2huboZWq6VbQbq6urC4uIiLiwv4fL6f5hLkO7OU5i55Lbz4329ubmjl7+npQTAYpH//rybNr5mwP2YeEQqFsLe3h/b2dqjVasH+rdraWszOzuLu7u6nVZNs13rCD1P49+/fIZPJoNfrYbPZ/ulzinlpRedPyv0x84hIJCJ4/rdEPEEm/7JZtv5msvSWIlL8vk0mE83ZFovFfrrXXILcczKZRCgUEkQJe+55nntWIqBfUw7kfadSKbqf71fnf+kZsv0TP8dL0eXyAf5zTkxMQKFQQK1W4+rqKqfLQNw+/X4/fD4frcvPvXNSX1OpFMLhMAKBAGKx2KvrMOm3UqkU7u/v4fF4/jrKnrjPe8IT4vE4Li8v6UQyH+suIRgMoqmpCSqVCouLix9ijxf/HSSTSQQCAdze3uL6+hoOhwMejydr2pHn+tB/8U5fOudbXY8/lvP78+cWVV9zrpfqezqdhs/nw+bmJhobG6FUKul8rry8HJ2dnTg4OIDT6RTkceTfYz62oVwnb4UXIGwYsVgMc3Nz0Gq10Gg0WF1dpXsr+NEO/1WHwm/w2Ro+8MM3fHt7G11dXYI8EXq9Ht3d3djd3c3aQLM1TPGzE+FVUlJCw8n/F2TrkCKRCE5PT+H3+wXH/IpMJgOfz4f19XUMDw/j4uLin9zzS+Hlf+d+f0W2d/Y35+JPstbW1qBSqTA3NyfYQ5RrnTh5B4lEAmtra+jq6sL3799xenpKk7Zmg5TF/f09Njc36QpjKpUSRJl67rPkmFgshu3tbUxPT9PIen9TjuK+IBwOY39/H3t7e1Qgk+cWfyYf4D/n0NAQdTV0OBw5XQbk3qPRKNbW1tDW1oa2tjasrKw8G/yGvHeO42A2m/Ht2zd0dnZicnISDodDcN6XPp/JZHB5eYnOzk60trZif3//WcH3O8/Dv7/j42MYjUb09fVR66R4PH0pFP1nIhAIwGg0QqFQCPbYfgQ4joPVakVbWxsaGxthNBpRXV2N+vp62Gy2n97HS/OKl/rP332nz9WL19SX3623/AW1m5sbLC4uYnFxkbozv7So8SfPBfwod4/Hg/HxcRgMBsGWkdLSUhiNRszMzCAQCLyqTBgfm7wVXvwKShpbNBql+Rd0Oh3sdjuAP1vt+JN74a9g8Cd2DocDIyMjqK+vp1Y5iUSCiooKmEwm2O12BAKBP5qMkQ6Gv8frLVwNf+f6/GM5jsPu7i4MBgOWl5d/61xkAkLys83Ozv7dQ/zintPpdNZQ/m9ZV96qM+Wfhx9OfmJigk7scrHDJvecSCQwMDBAfeUNBgPGxsaQTqezfi6VSmFrawu1tbVQq9UoLCzExMTEqyZBpK2m02lYLBaUlpaioKAAGxsbgnv6m2ci7XJ1dRUlJSUoKyvD5uYmEokEvT7/2Fx8d38C/zl7e3tpcI1cDwhEniuZTGJ3dxd6vZ56MfT09MDpdP4kTEg/Ew6HUV5eDqlUCqlUioaGBtqHZ5uQiX+XTqdhNpvpPueenh46weNf51f1LNu9kWdaW1uDQqGASqXC2toa/cxj5hHhcBiJROKnvvOz1m0STl6n02Fra+ufeWb8LmT88vl8mJ+fp1sXyOIuf+93tncifvcvHfPad/qcsHhtbrnfrT+kDB4zj/D7/RgdHUVhYSGKiopovX3ufH9SV8WLD6FQCE6nExaLBd+/f0dLSwt9B4WFhairq0NHRwcODw8RiUR+2v/7GdvLZySvhRf//+TneDyOwcFBSCQSrK+vI5VKCYIm/Bf3RFxH/H4/tra20N3dDYVCQRugQqFAVVUVFhcX8fDwQD9POgz++X4lAsjAu7q6CoVCgdraWrhcrjd5lt/tXAFQ65tEIsHIyMhvub1wHIednR1oNBpIJBJMTk7+0b2/5n5JfSAJE2OxmCCB6FtZR9+qM+VPukhwDblcjv7+foFbbS512uJQ/SsrKygqKhIsTPCtRPxni8Vi+Pr1q2Bz88zMDBXTZADOBjkPx3E4ODiATqf7SXiROvA3kOiTxJ1uYWGBPk8mk0EymRTcbz7Af87Ozk4qvN6iz3pP+Kvofr9fUDflcjlmZmbAcdxPHhEcx+H09BQqlYqODYODg3RceC4BMv/ndDqN/f19lJeXQ6fTYWZmhi7GPDfBzcZzwotYUSoqKtDU1ETzRD5mHnF3d4eNjQ243e6siwlvMZn+aBDhpdfrcXR09KH26pByvb+/h06no3Wws7NTIMb54wn/s7+aJ/3u+xMfz69fz9XLv6kn5Nxku8LMzAwtg/n5+az39SfXEi+S878TgsEg9vf3UVZWhoKCAoEQbm1txfr6OtxuN120+AxtI1/IW+GVDVJhNzY2oFKpYDAYsLu7i2QyKYguJj5e/H/+78RZyfl/Eze4VCqFeDwOp9OJiYkJlJeXo7CwEHK5HHK5HCqVCr29vbDb7QgGg4Ls53/S6Mj9pVIpzM3NQS6Xo7Kykrqp/Ev4HSgJn8pxHI6Ojuhqb3l5OQ4PDwUrgr+aZIbDYQwNDUEul2NhYSHrdV9zT8/9jfyfTHwPDg7Q3t6Oo6Mjal351TX+lj9NuEiOI8JLqVRieHgY4XAYwMfMX/cS4vflcDhQXV0t2PO4v79P6xf/+fx+P4qLi2lOFYlEgtXVVXpe/vds1yR/SyQScLlcODs7o+XIP+65zz/3POLjQqEQdnd3sbe3h3g8Ticcd3d3GBgYgNVqBcdxWc+brS7zyyzXB2kivLRaLdxu93vfzl/Bf0/pdBojIyOCRYHy8nKBtZOMRxcXF6iurqZ1WK1WY2Vlhe7H4Y9Z4mi2T/ifZ0UymUQwGEQwGKT17LnJrrhOiQUT+T/fIyCVSiEUCiESidCcRS6XC83NzSgsLITZbKa/T6fTL+5PFl8r1/D7/SgvL0dRURHm5+c/xB4vMV6vl3rXyGQyTE5OPpt2RFwn0+k0kskkXbTmw69X/Mit5DziusYnm0WUf33yfxIZVnyPv6oz2f52eXlJ2xaZT7zUf4uf4XcQtzHSboLBIPx+PzY2NlBbWwuVSgWlUomCggKo1Wq0tLRgf38fd3d3P9Wll8ay1/yd8W9gwosHqXwPDw+Ympqi+a/I5O1XK+Di34knUvxVGj6pVAqBQAALCwvo7e1FWVmZIMRoSUkJBgcHcXBwgHA4nHWC9qfCC/ixIkmEV1lZGc7Pz199jr9B3Ine399T9yHy9eXLF9zd3WV9ZkIsFkMgEEAkEoHT6UR7ezsUCgWWlpYEzwn8KOtIJIJIJIJYLIZ4PP6TOxrZqB6NRhGNRhEMBRGNRqmFgXTu5+fntCNcWlqie4rI9SKRCPx+Px4eHqhFjPCYeUQikaCTkXg8jlAohFAohFQqBY7jEIlEEAgE8PDwgLu7O/h8Prq6JX6u3yGZTGJmZoaujodCIcH5PtIK7EuIxYPL5RIIL6lUirq6OuoyzLcSHB0dQalU0kFVIpFQVxJSvmTQCwaD1Kop9u8nE0xSL/gTCeBHHQiFQgiHw0gmk9RqwSedTiMWi9G/8628mUwG8XgckUiE1tO7uzv09vZCpVJhZmaGDraPmUckk0l6Hn7ZcBwnmAjlyjt+CZLHS6vV0hQguQx/EjQ+Pk4nvRKJBCUlJVTYk+O8Xi++ffsm8IYoKCjA+Pi4YBEgkUjg9vYWNpuNuqWLLfOJRAKRSESwt4u0lVAoBIfDgbOzM3oOfn18wo/gGS6XCxf/H4nt5uYGh4eH8Pv9tC+7ubmB3++nE+7l5WV67729vXA4HPD7/bBarbBarfD5fIhGo/Re/X4/7Qc/inven+D3+1FWVgalUikQNB8Jn88Hg8FAIz1vbW0hmUxmnWPwx3CfzweLxYL5+XnMz8/TBRGxUHp4eMDFxQWsVitOT0/h9XoF/SP/+Hg8Do/HA4vFAqvVCrfb/dOxwI8+7vr6Gtvb27BYLAiHw7RfBn70eYlEAg8PD3R8DwaDgkBcZC52d3eHUCiEo6Mj2rb4C7mkXbjdbjidTlrPxeXxu4jncvy5CcdxCAaDuLi4wJcvX+jCIbF0l5WVYXFxEff394hGo79cQM62YML4b2DCiwe/AgYCATQ0NEAikaC+vp4OAPzJGz/RXbbz8Cdh/BUc4td+c3MDi8WCpaUl9Pb2QiaTQSqVQqPRwGg0orOzEyaTCaenp3S1U3ytv5lAkfNxHIfV1VXI5fL/NKohv4NJpVIYHx+n+wC0Wi3N7j43NycIeU7KMhqNUutga2srRkdH0draSjPEf//+nZbXw8MDrFYrVlZWMDo6itHRUYyNjWF6epp20uFwGJeXl1hdXUVfXx/Gx8cxMjKCr1+/Ynh4GMvLyzg6OgLHcfB6vfj69St9ZwaDAVtbW0gkEkgmkzg+Psb4/7H3/RGtvv//MzMzMzMzMzNJJpMkmSSZJEkyySRJkiSTJJkkZpJkJkkyySQzSZJMkmSSZDIzxySTZDKZmZmp9fj+0fd6vu97rfM6r8/r/KhzzjM5r1e7d9/XfV3P63k9fz6e4+Po7+/HwMAApqen4ff7EYlE8Fx4xvX1NWZmZmC1WjE8PIzZ2Vl0dnaiu7sbW1tb2N3dxdDQECwWC3p7e2EymdDc3Iy1tTVSqv+vUQtuxMtms70p3v8sQrj43c/OzlBdXc0z3JlxeX9/T/s2FAqhu7ubl7rBjXg9F54RjUaxvLyMrq4udHV1obe3FzabDT6fD+l0Gs+FZ4RCIfj9fng8HmxtbREYzHPhGalUCqenpxgaGkJ/fz9sNhvm5+exsrKC8/NzpNNpUla9Xi/sdjsWFhawsrKChYUFBINBRCIRbG5uwul0YmpqCqenp8jlcpiZmYFMJiPDcnNzE7lcDufn51hcXMTc3BxWV1dxcXGBp6cnPDw8wO/3w+VyIRAI/DYNmXt6esgoub6+/tXD+U9UrHAxw4tb37G8vIxkMknrxk2rZg4EiUSC0dFR2tNXV1eYnZ2FyWRCbW0tqqqq0NnZCZ/Ph0QiAebwmpubw8DAABYWFnB9fU3P2Nvbw8DAAGpqatDU1ISqqioYDAYMDQ0hGAyS02F+fh61tbXQaDRobGwk8IjFxUUcHR1heHgYFRUVlAaZSqWoJpO1QOns7ITT6URNTQ1UKhVMJhMWFxeRSqWQz+cxMjKC2tpaWK1W3Nzc/LK1+q/E+nh9JFTDYorH46iqqoJAIEB1dTUCgUBJ0CFuZOb8/BxdXV1Qq9WUft3Z2YlYLEbRT9YGp7e3F5WVlTAYDFCr1Whvb8f8/Dw8Hg+Ojo4oMnp5eQm73Y6Ghgbo9XqoVCrU1dVhaWkJ6+vrODo6IkTOlZUVNDc3w2AwoLKyEsPDw9jd3SWD6OzsDDMzM+js7ITVasXo6Cg6OjowMjJCoGSrq6sELDI6Oko6oEAgwMLCAoBX42xzcxM9PT3E6x0dHVhbW8P9/f1/MryA0k577k+hUMDt7S22trbQ3d0Nk8kEvV5PulNDQwNGR0fh9XpxcnJCSKfMUOWmK7M1/OxnwWejv4YXh7jMCABjY2N0KDDEMuA1whIKhXj1FqXuw/W2MCoUCri+vsbCwgKqqqreKH9lZWWYnZ3F7e0tz6NY6od99n8ltuGenp6wv78PiUTy0w0vJggymQx0Oh3EYjGGhoYwOztLBlRZWRkpVlxjcXt7mxTturo6tLe387xAIyMjNIcOh4MiHG1tbbBYLATdqtFosLKygr29PR54SalftVqN+/t7nJ2dEZS/WCxGbW0tNaoOh8OQSCQwGo1wuVyYnZ2lfHmLxYJsNgufz8eLtnB/m5qaUFlZCY1GQwo7S79saGgoCev7rfMNvHrAZ2dnCdWQe/B/JgFcvAcODw/JS8v9ValU8Hq9dO3k5CQPtrfY8Mrn8+ju7qaIAztcWQT67OwMmUwG9fX1vDocVuMFANvb2ygvL4dEIkFnZyfa29tpvRsaGrC/v09Nz0vxQGNjI/r6+kg+sHSf+/t7NDc3866tr6/H/f09JiYmeH8fHh5GJpPB2dkZPae+vp7QuT678dXR0fHbRLyKo+E2m+0NT+j1euzu7tJ17Hzi/spkMkxOTpLhNTAwQHy7sbGBoaEhiEQiyGQy+Hw+AIDH4yFZK5fLMT8/j1wuh2w2i7a2NggEApjNZpyfn8PtdtMes1gsFH0qdngwnnU4HHA6nVSD1tjYiGg0iqenJ6rlFQgEaGtrw/r6Og4PD2ldBQIBpqenKQOARTirqqoQi8V+7gJ9R7q9vUVtbS2BG3Gjkx+Frq+v6cyprq7G4eFhyfQ9dn7H43HilYqKCszNzaGmpgZisRijo6MU1bu7u8Po6CjvzGTPYb+tra2IRqOIRCKUTqzT6dDb2/tGvlssFiQSCUxPTxMfMWeVUChETU0N1TsODw+XlLV6vR4+nw9er5fO/87OToyOjvL0CVbjFY1GodPpIJVKMT09DafTiYqKCgiFQmxvb/Pm5nvI12IjrFjfvL+/h8fjQUdHBzliuA6bwcFBLC8v83RYdq9SOuVf+vH01/DiEMtPZkx4fn6OyclJ1NXVYWRkBHt7e4hEIpibm0NnZye8Xi/Vf3GpeNM9Pj4iEAhgbW0NdrsdVqsVBoOBmn82NTVhcHAQTqcT29vbvKZ53Nqyb9kk37p5uEIzl8thZWUFYrEYFRUVPy3VkL1HNptFIBCASqVCc3MzTk5OcHl5SQqmWCzmpToA/6sPEIvFsFqt2Nvbw/n5OVZXV2EymUjxfHp6Qjweh9lshlAoRFNTE87OznB5eYn5+Xny6jEkMLvdDr1eT9dOT09jZmYGzc3NkEgkkMlkmJ2dxfHxMaxWK8RiMaRSKWZmZhCNRhEKhag+w2AwYGJiAv39/STAKysrKSXSaDTS+zU3N2NychIOh4OiURqNBna7HScnJ3C5XOjq6sLMzExJnvvW+QZAqIYqleqNx/UzpqCx9zo+PqaDubq6mneg2+12SrdrbW2FRCJBW1sbz9DmGl7t7e2QSqXo7e3F8fExz6jZ2NhAOp3G0tISzGYzRRo8Hg+A18L09vZ2KJVKzM3N4eLiAqenpxgZGYFarYZEIoHFYkEkEoHT6aTU4urqakxMTGB6ehoejwder5fHI1NTU0in07Db7VT72draShGv9fV1cgaIRCKMj48jk8kgHA6jpaUFWq0WTqfzTbryZ6Xe3l4IhUJotVpelOYzEteJ8Fx4JqOqtbUVRqMRQqEQUqkUfX19iMViuL29RWtrKxQKBbq6uiCXy0nRmp6eJkV3dnYWBoMBvb29uLi4gM1mI6hqllobDofJcJLL5XA4HLi7u4PH40FZWRnKy8sp0n57e0tKrlarhd1up+g9M65UKhX6+vqwuLiIcDiMk5MT1NbWkiLMgFA8Hg+Ne3Z2luqW/X4/pQyzCFkul0NTUxMBArEMkM9I8XgcFRUVkEgkGB4eplTvj0SxWIxkSXV1NQ4ODt41vF7wWos6MTGBjo4OrKys4Pj4mOQaK9d4eHjA+vo66T6Dg4OIx+NYWVlBZWUlGUGrq6u4v7+Hw+GAWq2GQqHA6OgoRazYuHQ6HQ4PD5HJZDA3NweNRoPV1VXE43H4fD5yfrKa9b29PTQ0NFDNfHt7O8nazc1NNDQ0oLKyEpOTkzg5OUE4HIbdbie5Pz8/j0KhgI2NDSiVSiiVSvj9fsRiMSwtLcFqtfLS2v+tMVPq2lJO9uJ7FwqvbUeY/jM1NYWRkRFUV1dDIpFAoVDAaDSip6cHTqcTTqcTwWAQiUSipHP/L/14+mt4cYgrSJgCmsvlMDc3B6FQCJPJhImJCVLWuru7cXd399UIVDKZxNbWFqqqqt542aurqzE1NYWTk5OS6V6lNsP38qBwDa90Oo3x8XGIRCJUVlbyYGN/NBUKBdzf32NgYAAymQyDg4PUOJTr0W1ra0M0GqX393q99BnXC8xSsQSCV1TEF7xgd3cXWq2WogZsbR8fH2Gz2SCRSCAUChGJRPDw8ACr1QqZTMaDPd7a2iLjSa1Ww+v1wul0kgLscrmol5RYLH43mqVUKnF7e4uHhwdCz1QqldjY2OAZlSzSUVZWhvHxcVxfXyMej+P+/v4NeuW/JZZqqFarsby8TEXtwOeOgpyenhKstsPhwNjYGK1DT08Pkskk7u/vYTQaodVq4ff7eVErtt5PT09YWFhAY2Mjzs/Pkc1meYYXazr9XHjG0tIShEIhRCIRVlZWAACrq6uQy+XQ6XS8eq1wOEyGmlQqpfo+xgdjY2O898lms1TzKJPJyOje399HRUUFpZ8xfo5GoxTZEolEGBwcpJTHmpoatLW1UYrWZ11n7pgnJiYgFouh1WoRi8V+i5QZJpdZqqHP56N6TK7s2d7eRllZGerr6xEMBimizgwvlo1xdXUFt9uN3d1dzM3NkaNJIBBQuw7maGCyaHl5GeFwGK2treT95zoD9/f36R6VlZVUk8WU58rKSlJAgdd6IZaWbTQa6TOfz0ceerfbTXIol8uRcVdfX4+Liwuk02nodDpotVpsbW3RXH1Gurm5oRYU3OjkRyA2p9FolIxio9GI/f19Xn0rcwhzAS++fPmCy8tLJBIJeDweXu1hb28vQqEQRkZGIBaLIZFIYLfbAbyewyxtuKOjA9fX10gmk2hqaiJjzOv1olAoIBgMUvZBdXU1jfvg4AAOhwOhUAiBQACDg4PUl3R7exsv+F/bHIVCAalUivX1dfr+0tISnRPcCOTFxQWdxQsLCygUClheXoZCoaA09svLSzw8POD+/p5XBvA9nJhf43GuHldMmUwGHo/nTXYE++3s7ITL5cKXL1/eANn809nwWc+Oj0R/Da8iKjZyXvCCcDhMG431iGIb//j4+I3XIJVKIRwOY21tDV1dXRSG5irf/f39ODo6wv39/RvI+h8dAubel0W85ubmIBaLUVlZ+V36eP0Tcd/16OiIFGa1Wo22tjaMjIzwlASNRoONjQ0SEuvr6/QZC+8Dr8rq/Pw8BAIBJiYmALymfel0OohEIthsNrpHNpvF4uIiVCoVRCIRTk5OkEqlMDY2BpVKxYMHD4fDaGxshFAoRGVlJfb39+FyuaBUKiEUCjE7O4tEIoG5uTk6cIxGI2w2GwYHB9Hb24u+vj7Y7XZks1k8PDzAZrNBKBSiqqoKR0dHZEzFYjFSSEQiEfHLyckJr9bv/4KaBLwWK4+NjZGHkGt4ca/7DMTdH4FAAOXl5RCJRNjd3UUgEKBD02QyIRAIYHd3F2VlZejr64Pf7+dFxbg1Xnd3dwgGg1hbW4PVauVBK7OC+Hw+z1MwlpaW8PT0BKfTCZlMBp1OxyucTyQSGB4epsjpzc0NUqkUJicniV+5BnUqlSLDSy6Xw+l0IpvNYm9vj3L67XY7FVJnMhm4XC7yCNfV1eH+/h7z8/OorKzE2toacrncp1rfYuKO3WazQSQS8SJexe/20d/1PYcdS8M7PDzE3t4etUmQyWRobW1FS0sLVCoVpaVzDS/GE8CrUstqQZgMLOb3XC5HCpparcbGxgYikQg6OzshFArR19eH29tbGuPp6Sk9z2AwwO/3Y2dnhwyvmpoanuGVSCQobZabUcFamAgEAng8Hh4gjNfrJbCnvb09fPnyBTqdDrW1tRQx++hr+x4xcA2xWPxhIl7FfFgc8To6OuKdN9wziP3LQIu6urpQXl7O03l6enpwdXWFyclJyGQySkEEXueDpZc6HA6k02k8PDyQ4cUig/f39wiFQjCbzRCLxbBYLJShlE6nEQ6HMTo6SmjQLCq7sbGBp6cn5HI5OrMlEgncbjcZjg6HgyKsXEOYi2rIUg0vLi6I/xUKBWpqamCz2chJx52fH7lWxWtRHAB4fHxEKBSC0+nE+Pg4GaxMTuj1epjNZthsNmxtbfEMx1LOfu56/+h3/N3pr+HFoWLGOjs7w97eHjY2NnjRKgaoIBaL0dvbi3g8jmg0ioODA0xOTqK+vh4VFRVQKpUQiUSUzzwzM0OoPFxh+ys9tS94rZdikZry8nIcHR390Gcybxmrg7NarRCJRFCr1ZTawn4ZiIBQKERLSwui0SgZitzULzZ/yWSSohPMo7azswOdTgehUIje3l4yvAqFAvb398no29nZQSqVwvT0NKRSKaEYPReecX9/j/7+fkgkEnR0dODq6grLy8tkIDkcDjw8PGBhYYEM9JWVFTw+PuLh4YEQCxmC0sPDA0VkmpqacHFxgRe80AFxenqKvr4+MvIlEgnKysrQ1tbGa3j85lB9PAAAIABJREFUb3nnBa8NV3t7e6FSqbC4uPimV9pnEqbcsR4dHZFCc3JyglgsRoaVVCpFeXk59Ho96uvrcXh4yPPScxXRQqGAk5MT9Pb2QqfTwWAw8JBG5+fnCVXL4/FAKBRCJpNhfX2dF0XVarU8hTWZTGJ8fBxSqRQSiQR+vx+pVIoOfa5TgB2cLBIhkUgwPj6OVCpF76lQKOByuXjGVCqVwtraGjQaDaRSKcbHx6l/EuvX9r28sb+CuOs9MDBAYERXV1cl98JH5mXu/uUqMdyIF2tTMDAwQLJALBZDJBKhvb0d0WiU6mOZU49BlL/gBTabjUAJ7HY7xsfHKR2XRXhzuRz6+/vJ8eXxeHB7e0tRg9bWVgIFAoDLy0tyipWXl8Pn88Hv91MUZ3x8nKe8hsNhNDc3QygUQi6XE0iB2+0mQ3Bzc5OUPgCIRCKUSl5WVoaqqipotVosLS3xUs4/I7E+Xsyo5fbi/BVUysHLRTU0mUwIBoMlFe7Hx0f4fD4cHBxgdXUVRqMRarUaVquV0lfFYjFsNhsBXJnNZohEIpSXlxMwlkKhQH19Pa6urkgnCQQC5BCQy+WwWCwwm82Qy+WoqKiAz+ej/eP1elFdXQ25XI7q6mo0NDQQPy8vLyOfz+Pu7o72ETO8mOHmcrkgEAjQ39/P082Oj49J7judTgAgA47rUGf18VwnMJurn0nFOgEXFTcWi+Hg4IBqxrl6rEajgdFoRGdnJxYWFhAIBHgovqVkVakgwV/6NvpreHGo2OvT1dUFhUIBhULxbuoYq9HS6XRQqVRvGh23tLTA5XIhFotR363iZxZ7F34mAzMht7CwQDVeP9LwKhYMrL5AKpVid3cXsViMaqWurq5gt9vJ2yuXy7G6uooXvGB5eZnmeXV1lZSC6+trKsidnJzEC16wtLQElUoFoVCI7u5uXjrA8fExHYJHR0fIZDKYnJykKBbwKrxYuoxYLEZDQwPOz8+xvLxMaacjIyNIJBKEDimVSnkNF4H/hf93d3eRSCTI8GKQ50whTqVSODw8RCwWg8fjgdlsJr6Sy+U8BLd/wy/s2nQ6DZvNRmlJDKyD0WdSyrlGxNnZGaqqqiAWixEKhfD4+IiRkZE3e5YhOZ6envJSDbmpVxaLBRKJBGazGZeXl1hcXCQZsL6+Tr2GVldXSQ5sb2/jy5cvpGSq1Wqcn5/T+IoNr93dXTL0BYL/NQznKjWsYJ0pL6lUCvv7+ygvLycluTiKdXNzQ4oxS6O1WCx0DRdK/LMR9z2ZYaDRaHB+fv4G6r/4+o9GxVkO7F8uuMbBwQFe8BpxL05Vn5ubw9PTE5LJJMkhVqOVyWRwfX1NXu7m5maqLWWRBK7hNTY2Rs4vj8eDL1++EO+pVCriM+A1fZHV0RoMBuzu7hKYDHs+4+PnwjN2d3dJiZdIJJSJsLKyQu/EIl6MJ9PpNObn53kN0Vm0jDnuPvLafo0YqiEDkmIOkV9F7xleTIbU1dWR4cWVG/l8HpubmzAYDCgrK4NGo4FGo8H8/Dxubm4ohZoZP8xZ5fP5IJfLyRCXSCSoq6uD3+/n9apjDeTZ+rPaLKYHsNrkx8dHQsgcGRlBNBrF8fExteLx+/14enrC4+MjpqenIZfLIZfLsbm5Se/idruJn/f29nhIiMw5wByx+XwemUwGwWAQLS0tPJ1vYWGBhxPwX0oC/q/ryKVi5MIXvNbUX15eYnNzE93d3eTQEQgE5ERUq9WE4svaT5R6XnGW1l/6NvpreHGo2PBioAjMM8AYk/3Laju4RhlTBAwGAwYGBrC3t8fzoBR7Cko9/2cS24izs7MQi8Vv0kR+xPOYMMhms1hbW4NWq0VDQ0PJBrSHh4c8gIGBgQGCc2UCcXx8nFAgI5EI1SaMjIwgk8lgc3OTFBOz2cxr1Lm1tQW9Xk/KeiqVohSm6elpGsvZ2RlMJhNEIhGam5sRCoXgdrsp4mWxWBAOh7G+vk5/6+7uRjwex8PDA+7u7rC7u0uQ8Le3t2QUsFQOJtxCoRA6OzsRDAaRTqexs7NDh6BCoSBEr38r7Nj1mUwGU1NTkMlksNvtVA/Cve4zEDvY2HhPT09hNBohkUhwfn6OfD5P68tVWJeWlpDJZN4YXqzvWzqdpprMqakpAp9h121ubuK58IxcLge3201G1vb2Nm5vbylSqVKpcHBwQON9eHjAyMgIJBIJjTGZTFIt48jICDWvBV6jVwzJjSms6XQaXq8XarUaMpmMIpZsLpiHkynG3FQfgB9d/4yHJXe8w8PDJG+Zp/wzvRP3LChWYBhPMOTBRCKBsrIynhK6sbFBnzGZw6KcyWQSh4eHFKnt6urCzc0NvF4vGUFMSczn8xgcHCQ+9nq9lNLFzjrmFABeldGKigpK97q4uCDjitUtMT7O5/Pw+/20B5kDAQCWl5dJaZ2cnMT19TUprblcDru7u5SNwORuOBzmZUx8RmKohiKRiNI4fzUVRzG+fPlCvFNVVYWdnR08Pj4ilUohlUohkUjg8vISPT09PP1Hp9NhbW0N0WiU1+B8eXkZmUwGqVQKbrcbcrkc5eXl6Ovrg8ViweLiIs8AfcErYAe3rYLRaKS2Hjc3N1TicXV1RZExBgJzdnZGdbYsmsqcXHK5HCqViiDygf8ZXlKpFGNjY7i9vUU2m8Xh4SG93+LiIs3N6ekpbm9vsb29jb6+Poo4M97nzunPXMNiYnKFwflzZX82m8XR0REGBwfR0NBAEWs23yyN0ul04vj4GNFoFLe3t3h8fHzT+/Qzyd2PQH+U4fVvGSORSJCyXAyYUGxwyeVyEgw7OzvUmJcdDr86ssWlYiGbyWTgcDh+uOHFfWY6ncbKygopEwyBjTs+JuQsFgvNtVqths/no3oeppRarVZ4vV5MT0/TPRsbGxEOh/H4+Ija2lo6BM7OznB/f4+DgwPU19dDKBRSKtb19TUsFgsEgtdC30gkgng8/gaGOZ/P4+TkhDzKKpUKLS0tGBgYoENAJBKhuroaFosFJpMJYrEYOp0O9/f3iMViBITAIJxZfyUm7Lu6uqhxL0s5k8lk/2fDi32HGV6sHqQ44vUZ6bnwjMXFRSgUCohEIiwuLiKdTuPx8ZFAUFhk6urqCplMBvPz8zz4XafTiefCMyKRCDQaDYRCIRoaGrCzs8ODIh4cHEQ4HCY0LaZQrqys4AUvuLy8hFarhVgsxsTEBGKxGFKpFILBIJqamiAUClFbW0vNMJnxNzQ0xFuLVCpFtQ9CoRD9/f14eHjA6uoqvWdHRwf29/epJxPjh76+Pt6ecbvdAEq3vvhMVMrw0mq1CIfDPPnyWah4D+dyOZ7SOjQ0hOvra6TTaTgcDuJjk8lEQAbr6+v0d6FQiPb2doTDYWxsbFCdjkwmQ0dHB88J0djYiGAwiFwuR8/TaDTwer1IpVJYWVmh71dUVODw8BDRaJTAixjwBQOf4dY+n5ycAHg1MhgKJ3uuxWJBoVDA6uoqRbxEIhFMJhMPrCqTyVCNo0QioUjEZzOwi4kZXuyM+Sg9yV7wmv3CXWP2W1lZiZGREYyOjmJ4eBidnZ10zkokEmoFIxC8gmG0tbXx9KOysjLs7OxgdXUVGo0GIpEIZrMZc3Nz6Onpgd1ux+bmJoLBIB4fH5HL5QjEgt1jYGAAm5ub8Hg8WFtbw+7uLtLpNILBIKFg2mw2eDweOsNZSu7h4SHW19fJQFKr1fD7/SQPd3Z2iNclEgkGBwexsLBAUV+B4BX8KJPJYGlpCRqNhurzuAaizWbj1fX+aucA2yOl0gKZUcaciNFoFA6HA83NzaiqqnqTwSWXy2EymTA8PAyfz4dQKPRb6A6/gv4Iw6uY4UoZQVxiNTjhcBg7OzvUbLVUuiFT2ufn5xEMBpFKpX75ZvsW4s7D09MTNjc3CX71R4BrcDc7AEJak0ql1GgxmUzyEPuy2Sy2trbQ0NAAnU4HvV4PvV6P9vZ2+P1+zM/Po76+ng5vuVwOtVoNrVYLvV4Pq9WKq6srAMDCwgI1V6yvr4fVaiXh0tXVRY0Yz8/PyZiSy+VobGxEW1sbampq0NjYSFEJ4PUAHR0dhVQqpX5PbrcbBwcHaG1tJaWewbmazWbMzs5SY8ja2lqqO2pvb6cD+PT0FGq1Gnq9Hj09PRgfH4fJZEJVVRWsViuBKfwb5aPY0+V0OqFQKKiYmXvNZyHu+ycSCfT09BDMb3d3N0VB7u/vYbfb0djYCJfLhVQqhcvLSxgMBgK6kMvlVMCdSCTQ0NBAe1ypVPIUC4lEQpDdrE5FoVBgc3MTwKv8GBoagl6vJ4V3bGwMZrOZ/v/w8BD39/c8j25bWxtisRjtk3A4zDMMTSYTQqEQpRpyFVYGmczmZGdnh96vv7+f1wfvdyHWD4gZXp+Z2Lrd3d1hZmYGZWVlUCqVKCsrg8vlQjqdxs3NDWZmZtDe3o61tTUkk0ns7OzAZDJBJpNBKpWSA4jVOLKGtixlvrKyErW1tVCr1aipqcHW1hYymQyh2up0Ouzs7OAFL1R/aDabUVlZiZaWFnR0dKC+vh7t7e3wer0USWhtbYVKpYLRaERDQwMBEx0cHFArA61Wi6qqKgwPD1MNT319PVQqFcrKytDa2koOBHZOsHrd8vJyXnPaz2Zgc4lb42W1Wj9ExAv439mwvb2N5uZmVFdXo66uDvX19TCZTKivr0djYyOamppgMplQV1dHijgDIdLr9XR21dbWoqKiAlqtFkajERsbG1hYWKC2A6V0KaPRCKfTiVgsVjJNnAsOo9FosLi4iGg0SuewUqlEeXk5qqurUVNTg7KyMhgMBoyMjKCrqwt6vR4VFRWoqKiA0+kkQz6RSFBrD3aes5REmUxGrV0eHx/JSFMoFJiensb09DQ1F/f5fLy6qI/Io1/ThXO5HG5vbxEKheDxeDA9PU3Nq7mpznK5HLW1tZiamsLy8jKVTzCguOJn/V/G9zvTb294cRVO9m+x1c/1sN3d3WF7exsDAwOor6/nhV5L/YrFYiwvL79BNvzoxhd3Dp4Lz/D7/ZBIJKipqcHFxcUPeR43nYZ1mnc4HHA4HFhbW6P0FCa4crkcLi4u4Pf7CTlra2sLGxsbuLq6oujE0NAQGhsbMTw8jOXlZWxubmJ3d5eaqrJ3jMfj8Pv9aGlpgdlsRn9/P9xuNx18hUIBV1dXVANhMBjQ09ODrq4ueL1exGIxqkNg4wuHw5iZmYHNZqMGhUzZX1lZQW9vL1wuF05OThCPx2kOEokEwTBvb29TKgfwmrPO+nEwNES3202GPXuffyPcuddls1k6AOfn53l9vD4Tcd8/mUxib28PKysrcLlc8Pl8pKgBr2l+19fXdNB++fIFs7OzmJqagtPpxMLCAn2nUChgb28PXV1daG5uhtVqhdPpxMjICBoaGmC1WimqzeDk9Xo99vb2aFzJZBI+nw8dHR0wm82or6+H2WzG4OAg8UkqlcLGxgYsFgva2tqwuLhIHv9CoYBQKASr1Yquri5YLBaMjo7i6uoKyWQS8/PzMBgMqKiowMDAAKXpsvm4vb2F1WpFeXk5AoEAffZZqZSiMDExQUA2rCn0ZyW25qx2ZGlpCS6XCwsLCwgGg1RzksvlyEEFAPF4HF6vl/r/LS8v4/LykpwpkUgEa2trWFxchMvlQiAQwPn5OdbW1nB8fEx1NwzVtqysDIFAgOa4UCjg9vYWgUAAm5ubcLlc8Hq9PK9+Pp/H0dERVldXKSWJ9YpLJpO4uLjA5uYmvF4vTk9PyQmQSqVwcnKC1dVV7OzsIBqNkuONvR+rt2WtEdiYPrNyxvp4icViqg3+1cTdW+l0GrFYDMFgEKFQiJoZR6NRXF9f4+bmBuFwGKFQCOFwGMlkkvjE7/djfX0dOzs7uLy8xP7+Pq373d0dpedbLBb09fWhtbUVnZ2dMJvNlN7N0hW7u7uhUChgNpthsVhgsVjQ3t5Ove3EYjGMRiPC4TAikQhmZmYwOzuLra0tnJ2d4fz8HDs7Ozg4OEAsFsPJyQm2t7cJ3TYUCvF4LZ/PY29vD7OzsxgbG4PD4cDCwgIcDgfW19fJMRqPx2G32zEyMoK5uTnMzs7SPmVnKdNjPgsV68lcikaj2NragsPhoB60XAOYOZcHBwcxPz8Pj8eD4+NjXgkDV9d+r7b1awbh70a/veHFbT78HpoXOyACgQBmZ2d5sJvsVyaToby8/E3ndJFIhNHRUTw8PHyqQsNiw2tnZwdSqRRVVVU/NNWQK+iYosEO/1LG8T/dD3hVLk5PT/Hw8PAm95i7JsBrXRcD7nh4eOChyDGDqbu7m9J8WO8nrhAtLuxOp9NkEL3ghcaQyWSoXQB3zF8zyrlCKZPJIJlMEhIi9x7/Vy/SC16ogfJnN7yAt4igrK6keN8z4s4dqznI5XLI5XKUGszuwfrSxONxZDIZ3Nzc4PDwkHoaMXQrVtvA+smx+z8XnhGNRnF5eYnT01NcXl6SYcc1gmOxGK6urniRR5aXf3t7i3g8jpubG9zd3REfJJNJuFwuuFwuXF5evpkX1jS5qamJIn+fmUodyKwZsEaj+S0iXsVyijX8BkojUXLlN+NhrpzgFtZz78X9jNH09DRFvHZ3d989x56ennjgLNz9Vaxoltqb3Hfl3rMUcfvYLSwsUC3jZ1fM4vE4ysvLP5ThxQV2+d7E1un8/BwtLS1QKpUIhUK4v79HOBxGPB7HxcUFNjY2SL/q7u5GWVkZamtrcXZ2hpubG9zc3ODLly+IRCJYWloitEvWXiCdTv/rs6xYL2SgHo+Pj8hms7SviktGWK1bLpcj/aX4fp8pKlu8p4r3V6Hw2nbo5uYGS0tLb+qm2a9EIoFKpYLJZMLOzs4b3YVLrE6zWG/+7Pv7W+i3NryKDzPmzTk/P8fCwgLsdjvGxsbQ2dmJ5uZmgkJl/UPsdjs2Njawu7uLw8ND8qLs7++ju7ubUg/1ej3m5uZ4zQQ/OnGZO5/PY2Vl5YejGnKFEns2d75KHehcgVds8HDHX2pzl1IOmADhRq64Y2FNeCUSCcHHFt+rWEBxlXz2jK+9M3fs3L8xLxn3flyEpGKh/m/nnlEmk4HNZoNKpcLCwsKbw+oz8C9Qeg7Z378mzJlRw67lEndunwvPZMS94IUO2Z2dHczNzeHi4oJSBSsqKniRJfYdtp7cA7x4fPl8nlf8zL7H/saNbnLp4eEBDw8PpFCHw2GsrKxgY2MDnZ2d0Gq12NzcpNrBz7Ku71HxWo+MjFCN12ePeAFv5RW35Ubxvufy8tfuV+oMZN/xer3o7OyE1WpFRUUFpFIpBgYGcH19zXt+KSOsWB4W8ylX3paSs8Uykl17dXWF0dFRdHZ2orW1FZWVlbDZbIjFYm+i/J+Vn7mphgyA6VdT8bq9d25xr+VeU9xcudRZZbfbqYfXyMgI3G43VlZWKLuDrffY2Bjm5+epdmx6ehperxc+nw8rKytwOp1obGyETqfDzMwML9pfvD/e45X33pP791LzU+qexXvrs/JoqXGX2qvJZBInJyfY2dnB7u4udnZ2sLy8jI6ODkojZf1OzWYz2tra0NnZicHBQSwvL2Nvbw93d3fv7ufPOn//hn57w4vrOXx8fEQgEEB3dzfUajUkEgkvZMp6bplMJrjd7q/21/D5fNQLQSAQoKmp6U0j2o9MXIHz9PREhpfBYKAGl9+TmAHBns1VgEuFnbnXFf+UMm6LN+57h/t792WeLgarLxQKYbfbSyrKpULkpQR3qTEXH07vXfOClzeGKONl7nO+lbjPTqfTGB4ehlKpLGl4fRYqnvdSCt57n33N2/a1ewGA1WqFSqXC6OgoD5yF1RMWf6fUAcNdw1KKcal3YDxQrDSwf1lzUIbSqdFoyJv+b/nlMxADvNFqtZS++VmJy3fFvFlslJeSI+we3L9x71XM2wAIOZFbM8Pqu7jXFvMxd8xfk8+l+JidA8XjesGrA2J9fZ0HqGAymSgD43fh4WJwDW57kI9A7zmsuHz2Hh8W8w3jQeB/EWqRSET1iGq1GhqNBnK5HCKRCJ2dnYhEIri6uoJMJiNAK4PBgJqaGuh0OuqPajAYCFSHObi4//0thuN7cp/L8+/J52Ijjfuc95xlH5lKjbXUHJa6LpfLIRgMYmhoCFqtltqYFEfEVCoV6urqsLCwQCnRzClZSiZ8tjn8VvqUhtfXmIAJdwaQcXl5CZfLhfr6epSVlUGlUtHmF4vFkMlkaGpqwtzcHEKhEK6vr5FIJHg9t0oxAksRWlxchFwuR2VlZUk49I9KxQLn4OAACoUCXV1duL6+/u7jf0/Yfa+f9w7l9wRmqYPD7/fDYDBAJpNBJpOhubkZZ2dnvPQaADwBXyx0/814Syn43/Lzf51/NkeZTAZjY2NQKBRwOp08w+sj82wx/df5Kl6Pf7oPW2+bzQaFQgG1Wg21Wo3+/n58+fKF15j7a/f81vGXGmux04H99+PjI0ZHRyESiQhNc2Nj400q7Wem4ncYGxsjcA1Wz/nZ6d/Kgq/xTjG/FP//8fExBgYGKCWV29OPXctVaN/jX64xx/6fycxiGffenmDPikQiGB4ehslkQk9PDwKBAA/J8HegeDyOyspKiEQiDA0NfYhUw1L0rXz2Ld8FXg1On8+HiYkJ9PT0wGq1orm5GbW1tejp6eH1jEqn05ibm4PZbIZCoYBcLkdraysGBgbQ29tLveaYIV/KUcYdB/vvUk7b4vEW/734mm8xDn4HXv036w281sg9Pj4iHo/jy5cv2N7extzcHLq7u6lXq0gkgkQigUKhgEajIaCTtrY2LC8vY39/HxcXF7i7u3vTn5I7puLxfe3zj0ifxvAqpSxzKZ/PI5lMIhKJYG9vD263G52dnTw0MlarpdVqYbVaMTMzA5fLhXg8/s3RKu4h8YLXsGtnZyfGx8c/FdQtd4xPT0/Y2NiAXC6H1Wr9MPC230L/NN/FysHXvGA3NzfY2tqCx+OBz+ejPlrc7xcL938SxqV+uPf6WcR933Q6TYbX7OwsDxL2M/Du96ZvWTMusf4ta2trlDZR6n7/5jnvXfO1+xbz1PHxMQYHB2G1WnF4eMhLk/wdogXF7z81NQWJRAKlUom9vb13a4U+G32PPfhPPPyC1whTOp3G3d0d4vE4yTrgbXNn9p1SzyiOLHOv5Z6V/8TX7PsPDw/48uULUqnUb2d0AUA8HofBYIBQKMTAwMAvb6D8I+g9/mNp1+l0Gul0Gvf39/jy5QsSiQQvrb5QeC0JiMfjODw8xN7eHm5ubpDNZpHJZErWhHOf/TUD/z0d4N++1196pffkw9PTE611OBzG4uIirFYruru7UVlZCZlMxouKicViSKVSlJeXo62tDUtLS7i4uEAymUQ6nX63Vowra7hrXMwfH2ndPoXhxZ0wdmAkEglcX18jEong5OQEXq8XY2NjBE8rFosJjtdoNMJkMqGzsxNzc3M4PT1FMpmkgnq2WFzv3reMh/3c3d3h8fHxQy7we8QdYy6Xg9PppA7yDJr6d6CvCeFi4qb2cNN7uHzxf4lQlXpu8b1+xjywn0wmg+npaUilUl5xd7HS9KdR8eHNPayL//5eNOBb5q4UHxV/zr3ma/fhHjRPT09Ip9NU0My9x8829H8EFc/V4OAgRCIRlEoldnZ2PhWK2D/Rf12rUo4idt9S/Ma9ltU2/hPPFH/+Xkoju2cpfi8lH9/LBPhdiEW8GJz810oaPjt97dx977PiOudSKWjsuq+dx1z+/OiK+GenUnPLiM09K/d5fHxEMBjE/Pw8+vr60NLSgtraWuh0OsjlckilUmozZDQaMTw8jMnJSayuruLy8pJ6qyaTSQJBKc4+4p7ZxXzyEehTGF5cymazuLi4wPT0NMxmM8GKlkJXGR0dhd/vx8XFBR4eHngHc6lNWtzd+2vEPVhKpVp8dA8zlwnz+Tw1UK6urv5hqIYfhb6WlshVEr6FF4qVlvfu+bXPfwZxx8BtmN3X18eD0/+T6Z8E83sKIder/y33+jdr/k+8w+VZbkos9/D5DPLoW6h4HljTX7VajWAw+AtH9vHoW5UM7nVcR1Op6771udyz9FvHU6wcFdf+fhSF6XsQA9eQSqWYnJzkQfP/jlTKEHrvGq7yzP37P927FL3HO78TL30EKnXuFetF3L8Vn0X5fB63t7fweDwYGhpCd3c3Ojo6eE3X2a9arYbRaERPTw8cDgfcbjd2dnZwfX39qTIefprhVbwBvqaEZrNZJJNJRKNRBAIBeL1eLC4uYnFxEVNTU+jo6ODBWVZXV6OlpQXj4+MYHx/H5OQkXC4XwuEwpSuUGkspJnlvvF/7Pnfsn+WQ4I7/6emJQCV+VB+v/0qlhGc2m6WmfaXWglvnd3Z2hi9fvvCaDxdTqbSaTCaDeDyOu7s7RKNRnJ+fIxAI4OTkhK5jP9zG29FolA5U7thY/65kMvlTeYXL46lUCmNjY5BKpbDZbFSb+Dso59+D2Dwlk0mcnZ3h8vISt7e3FAXgGlrFtQRPT088pEFGxfLi8fERNzc31LuumB4eHr6pUXaxzCoV4fpdlNfiOWRtH1QqFQ4PD//yL4fYPN3c3CAQCMDj8cDr9cLv9+P8/JwXES020F/wQs3kuenW3HsDwN3dHfb397G2tgafz0doiACoFQJzfHJTw742XkbvRex+B2J9vCQSCUZGRni14b8jFa/hc+EZFxcX2N3dfXNGltLLWFPfYDAIv9+Ps7OzN/U/6XQa0WgUR0dHuLi4QCKRIDkNvMrb4+NjhEIhakvwl74P/ZOe/N7/c+m58IyHhwdEIhHS11wuFyYnJzE2NobR0VG0tbVBoVAQ4ArLZmtoaEBvby/sdjscDgfm5+epb6Hb7cbe3h6urq5wc3Pzj2mq3Pcp/vd70nc1vEoZI6V+uJ8VUzqdRiAQwNLSEgYGBmA0Gt9tYqxWq9HS0oLt7e2SvWy+ZZz/NMZv/f5nJDb258Iz1tYgBp8SAAAgAElEQVTWIJFIUFtb++EMr1LznE6nsb+/D6fTSYX1XKUTePUsLi8vo7OzE01NTRgYGMDW1hZPqBffn7v2+Xwep6ensNvtmJ2dxeDgIFpbW2EwGGC1Wt8oBtFoFMvLy+jr68PAwAC8Xi8PuII1zK2rq+MZbj+DuOOMx+OwWq2QSqWYmJjgpcn+ycRVRB8fH7G2tkbNO+fm5hCJRMirVsxrjO7v7ykloriXGJvfZDIJr9eLqakpUli5lM1msbS0BJ/P91vWuPxXYnPR09MDgUAAuVyO5eVlZLPZXzyyj0NsjlijbYlEArlcDpVKBavVitvbWx5fsnOAfS8SiaCjowNtbW0IBoO83osveCEeZf2oNBoNQXszp+n8/DyMRiMhp5ZSxP5Eurm5gVarhUAgQHt7O2Kx2K8e0g+l4nVPJBLo7u4mXaOUvsjthXl0dITp6WmYTCYolUoMDw+Tw4p99/z8HP39/eSE93g8PCfA4eEhGhsbMT4+Tk3q/1T++4xUKLy2mpiYmEBHRwe0Wu2bJs7v/ZaXl8NqtWJ8fBzb29s4PT1FLBb7KppzKTuAqzf+V975LoZX8YBK/byXb/5ceKbmpOvr6+jp6UF1dTXle3InUCgUQqvVoqWlBbOzs9jb20M0GkUmkymJgPI93ut3JvZ+hUKBGijX1tZ+yBovLpJgPB6Hw+Ggvms7OzsA+Ibkzc0NpqamoNfrCU1HJpOhvr4ekUiEUrOKeZG7qUKhEDo6Ogi9Ti6XQyKR0IHJ5Y9cLoeenh7o9XrIZDLI5XIYjUaMjo5iY2MDy8vL6O3thcFggEajedNs90cT9zk3NzewWCyQSqUYHx+nDvOf3ZHwX4m9ezabxdjYGLWLYIA8LS0t1BeLez3XWHO73aisrITVakUkEnkzl9lsFlNTU6ioqIBKpYLBYIDFYsHBwQFubm6wv7+PkZERlJWVobu7G9ls9m8kp4jYnLJUQ7lcjrm5OR5IzF96lV/19fUlHZYul4vX343LxwDg8Xggk8mgVCqxurrKyyp4eHiAw+FAWVkZ775arRadnZ2wWCzUZ6m5uRmnp6dvetIBv//5+h6xBsp/guHFdU7F43F4PB5YrVbI5XLo9XocHBzwIq5cXnx6eoLf70dVVRVUKhW0Wi3a29vh9XopavVceEYsFsPQ0BA56EUiEYxGI5aWlrCxsYGpqSnU19fTeffw8PBHn3OfgUqtTz6fJzCW/f19bGxswOFwoKenh3qvvmeMyWQyqFQqVFZWorq6Go2Njejt7YXL5YLf78fh4SEODw8Ri8XepCwWO4u+RwbJfzK83nt4KQWuUCggn88jk8kgkUjg8PAQU1NTMJvNqKuro83FUE6EQiF0Oh0aGhowOzuLo6MjBINBXsiQS9/DCuVO6rcCMnxm4hpex8fHkEqlqKqq+nA1Xtz5D4VCqK2thUqlok3lcDjIowq8GhZWqxUKhQI6nQ4Wi4WUBKFQiJaWFlxdXb3ZUMXrzHqbsR43Op0OOp0ORqMRLpeLvpdMJuFwOAilp6mpCbOzsyQMjEYjdDodhEIhxGIxJiYmcHt7SzU5P3MOC4UC0uk0ZmdnIRQK0dbWRgf/78jj/5YikQgGBwehUChgMBjQ29uLqqoqiEQiCIVCVFRUIBwOA3jrCfN4POTJ1uv1OD095cml6+trDA8PU3+avr4+UgjKyspQW1sLvV4PkUiE8vJybG1t8ZC+/tIrsbloa2sjw2txcfHT9qP7HlTMI1dXV+jo6IBUKkV1dTUcDgfxHjOSuM4f9t3nwjOCwSAaGhogEAigVCrhcrlI0X3BC/x+P+RyOUW5jo6O0NraColEgvr6el4ZwPLyMhltxfUdfypP39/fo6mpiWQAq7H9HYlreE1OTkKn0xEPqlQqrKysUCkIF6zo8fERQ0ND0Ov1aGhowObmJkKhEG5vb+msz2QyWFlZQW1tLTlV19bWMDAwQOdufX099YVra2tDKBR643T9Sx+b3jv/CoUC2RPRaBQXFxc4OTmhps6sMbdWqyX9rTiQo1AooNVqUVZWxktdbGlpQUtLC8bGxrC3t4ejoyNekOe/2hv/2fAq9TcGI8mgPx8eHnB2doalpSXYbDa0tbVBp9ORhSqRSCCTyaDRaFBfX4/BwUG43W6cn5/j7u7uTY45l7jpPN/D8Cq+z+9sfHGV8f39fUgkEpSVleHg4OBXD41HbJzPhWdcXl6ivb2d58kdHx/nFShHIhFUV1ejubkZgUAADw8P8Pv91LSyoqLiTaofVzFgxsnU1BSEQiG6urpwdHSEy8tLXFxcIBKJUHoe8NpMmykbLI0wGo3CYrGgoaEBe3t7GB4ehkQigVarpUjIz+Qn7vNyuRxcLhcEAgHq6+sRCoV+yhg+A21vb6OqqgrT09O4urpCMplEMBhEa2sreVMZkAN3/8RiMXR2dvLSG1iKFuMnt9sNjUYDsViMoaEhqoExmUzo7++H1WolpYTB/HOf8TvJnv9CbB5YHy+ZTIb5+fk/3vDiGjWhUAjd3d1wOBwIh8PIZDIIh8MUJRSLxfB6vQD+V0+Vz+cRCoXQ1dVFnmOVSoWlpSVK40wmkxgZGYFAIEB3dzfi8TgKhQIGBgZQVlaGaDSKxcVFKBQKlJeXk5xlYyw+W/9Eur+/h9lshkgkwuDg4G8JJ8+Iy5dHR0fwer1wOByEWjczM0P7lvFhJpOB3++HVCqF0WjE8fFxSQdlPB6HyWSCQCCA0WiEz+dDKpXCysoKdDod/H4/tre3KS1tcXHxTXTtL30eKqWHv2eDvOB/7TKOj49xdnaGYDAIl8uF8fFxmM1mVFZWQq1WU584qVQKsVgMoVBIvxKJBCqVChqNBjU1NRgaGsL29vZ/zq74bqmGLI0gkUhQjdbs7CwGBgZQXV1NaVpMoDNrs7W1FWtrawgGg2RkZbPZksW4pVIV/ilq8W/fg2s0Fht131tR/tUbn2vQ7O3tkeEVCAQ+xPi4xMb69PSETCaDjY0NUnJZE2DGh7lcDvf390gmk7SG6XQaDocDEokEZrOZmkRzi7iZUM5kMtjc3ITBYKDoxezsLI6PjwkUgyu4x8bGCEnT4XDg8fERBwcHaGlpwdzcHLLZLLq7uyEUCmGz2UrWO/yM+QNe91A2m4XD4YBIJILVakU8Hn9z3Z9K2WwWd3d3PCU+k8lgfHyceOHq6or3ndvbW/T19fHSHORyOQKBAPHfyckJKisrIRAI0NzcjEgkQuiStbW1CIVCWFtbo5QI9oy/htdbYvOwtbUFpVIJuVyOtbW1d/u8/EnE+IS1FuACCTw+PmJ8fBxisRhdXV28SDfwCpZRV1dHjlCRSASNRsNLNby8vERTUxMEAgFcLhde8IJ0Og2j0Qi9Xo+7uzuMjIxAJpNhamqKByJUCv3zTyQGJy8QCNDT0/Nbw8kDfD0jn8/j6uoKCoUCCoUC8/PzvIhoLpfD+vo6NBoNJBIJ1SBzne/s32g0SuUoIyMjyGQyiEajVAMUj8extbUFoVAIs9lMDsbf0Yn+O1Px+VdseL13NhafnayHXDabRTqdRiqVwv39Pa6vrxGNRrG+vo6pqSl0d3ejubmZ6vm5qOlyuRyTk5MEiPN/5aPvFvHKZrMIBoOYm5tDR0cHpVdJpVLyFIvFYqpr6OrqgsPhwO7uLh4eHv4R9eh70nvKzO3tLQKBADY2NuDxeHB6ekqWbSnEu+L7Aa+H25cvXxCJRHB3d4dkMol4PM5L1eB+n3nDS1nQpQyIHzUPR0dH1Lzu+PiY984fQUAVz9329jZtCLvdThGv9zZhMpnE5OQklEolpqenedEERszwenx8JGOKOQkqKipgsVhIwePyz9DQEAQCAUwmE87OzsjIq62txe7uLpLJJBobG6HVauHz+d7lnx891+z+rI+XQCBAS0sLotEofc7990+jUkY48Oqh7u/vh0gkQldXF6UGsXk6OztDRUUFpFIp5HI5hEIh5HI5r6nv9vY2pbzYbDYkk0nEYjG0tbWhrq4ONzc3mJ2dhUAgQGNjIy/96K/hxSc2D7u7u9BoNFAoFNja2vqpZ8hHplKyJJ/P4/DwEM3NzdDr9VhfX+edScBrpoBUKkVFRQU6OjqgVCqh0Wjg9XqRz+fx9PSEvb09VFRUQKFQwOfzAXhVgPV6Perq6hAMBlFXVwej0YjDw8M36/E3xQuEaigQCGCxWHBzc/Orh/RDictjhUIBoVCIDK+FhQVe/eD9/T2GhoYgFoshFovR2toKl8uF1dVVhEIhnp4UCoXI2TU9PQ0A2N/fR2VlJZRKJb58+YLJyUkoFArMzs7+I2z/R9F1/tLPI65DiJ3JR0dH2N3dxe7uLtxuNwYGBtDU1ASDwYDm5mbs7u6+QS3+t/SfI16MUVntDdfrq1KpUF1djY6ODthsNkxNTWFtbQ2Xl5dIpVL/qs/H9ySuB+bp6QnZbBanp6fo7e1FWVkZReZqamowPT1NCGXFChn3foVCAfF4HE6nE01NTTCZTOju7sbIyAi6u7sRDod53r6Hhwfs7e1hbW0NExMTmJmZIS94MplEJBLBysoKuru74fF4/vNCvzcP7N+zszOqNeFGvD6KMCoey87ODgFdjI6OIpFI8AxJtr6JRALn5+dwOp0oLy+HSqWC3+9/YzyxlDDgNcKxurqKuro6aLVaSv8SCoVQq9XY29sj/i0UCujr66PIWzKZxPn5Oaqrq9He3o5QKISlpSU0NDTA7Xbj4eEBoVAIJycnlAJU6v1+5Dxms1ksLCxAIBCgqqoKp6envDH8qcRdg0KhQKmAU1NTKC8vh1wux8TEBJLJJF2fSCRgs9mgUCgwPDxMaJFKpRJ7e3vkMNnY2KD6VZ/Ph3Q6jcnJSUilUlgsFgQCATQ1NaGyshJra2tIJpP0ywA2/vT1YcTmIBAIQKfTQaFQYHV19S9M9P8nrlxjfS/dbjdqamogEAig0+mwsLBAkNtPT0+4ubnB9PQ0ysrK4Ha7sbKyAqVSCZ1Oh62tLeRyOeTzeWxubkKtVqOsrAwejwf7+/sYGBhAY2Mj1tbW0NPTA7FYjNHRUdzc3ODg4AAbGxvw+/08iO8/mZfv7+/R2NhI0W9WM/q7UrFjkRleDFWXG83y+/0EPCISiaDX66FWqyEWi9HQ0AC73Y7Dw0Pk83lcXFzQuTw9PY3r62v09/dDLpejra0Na2trqK+vh91uRywWQzQaxfHxMY6OjhCPx3ntQf5UXvxL/6NS+j1LfY3H4wiFQohGo18tffpW+m7gGufn5wRgoFAoYDabsbKygvPz83c9Db9K+HI3Wz6fx8HBAWprayEUCqHX699AVZrNZmQymTfFwVzKZDKYn58v2fRNp9NRatsLXmtsuNcajUZUVFSgqakJExMTGB4eRkNDA2QyGSQSCdxu9w9BbWT0ghcEg0GKeBUbXh+Big0Tv99PazQ1NYVUKsVTmlkkcXV1FdXV1aT0isVimM1mqmPjeuK498/lcri6uoLf78fc3Byqq6tpPQ0GA7a2tmhsNpuNQDVGRkbQ0tICtVqNhYUFLCwsQKFQwOl0UqsEk8kEvV6PpqYmbG5u8lIPf0bEK5/Pw+v1Ui3S/v7+D3vmZyJujV8ymaT0wuK9zFA/s9ksXC4XNBoNbDYbIpEI7HY7ZDIZ9Ho9dnd3KeK1s7MDpVIJgUCAiYkJOJ1OAj5wOp1obW1FZWUl/H4/oSMODw9jeHgYKysrvHTQP53YHjk8PIRWq4VUKoXD4fguB+LvQFw5wlL/GO+xX6lUSjVe+XweIyMjUKlUWFxcRDabxfLyMqXWuN1uMmojkQja29sJvECpVEImk2F7e5uyJurq6jA3N4e+vj4CQRIKhXA4HATl/ScjdTLDi9UP/0kRrxe8tl1RKpWEMsiNYk1MTEAsFkMkEsFsNmNrawvLy8tobm4mR6vBYEAikcDNzQ2VA1RVVaG9vR0GgwFDQ0O4uLhARUUFTCYTIpEIVldX0dTUBJ1OB7VaDavVirOzM4rA/jW+/kzirnnx+r/HD99Dfn23VMNkMgmn04mqqipYrdY3BZHFm6+UovmzGZ95BEdGRiASidDU1ISFhQXMzMygsrKSlHW1Ws3L6SxFiUQC7e3tEIvFMBqNqKmpgcFgQGVlJYaGhniRjaurK/J4KZVKbG5uwm63l4TBNBqNODk5+WG58YyJTk9PIZFISgJPfAT6muHFTVfgGtWpVArLy8uor69/AzM6MDDw5r5cAcx99+fCM1ZXVykvXyAQoLe3lz73eDw8lEWWQsKAEwQCAQKBAK6urgikgWvUF9fz/Mg5BEAwvcyQ2N7e5n3+pxKXd+7u7mCxWOiw5/76fD48PT0hFAqhqakJdXV1iEajyGazmJ6ehlwuh1KpxP7+Ps1pOBxGc3MzGf8MtdXtdsPn80EkEqGnpwfhcBhbW1vQaDT0PL1ej42NjV87OR+I2JweHR1Ru4iZmRlyvvzpxJVj6XQaOzs7GBsbQ3V1NU8Ozs/PA3hNra6oqEB5eTk5SdfW1ihrZW1tjc7yfD6P5eVlapmhVqvR3d2NWCyGiYkJAkxwOBxkcJWVlUGn06GyshL7+/t/vJJ7c3ODsrIyCIVCDAwM/NbgGsDbM/b29hZKpRJKpRJLS0u8FOGhoSFq4bGysgLg9fzd3d2l81cqlVLkYW5ujlK4BQIB+vr6cHNzg4uLC0pV9Hq9vNYHrOxlenr6u4Kz/aXPR8W8WaxDcmtmi6/5L/TdwDXy+Tzu7u5wcXFBSkipARYrt8XG2M8irvd/a2sLbrcboVAIDw8PuL+/50HqqlQqRKPRd8fH7sFSM+bm5nB8fIzT01Ocn58jFovRBr++vkZvby/kcjkaGhrg9Xrx+PgIv98PrVYLh8MBp9MJjUaDjo4O7O/v4/Hx8Yd4CNkcPBeeCU5epVJhdXWVd81HIS6P7O7uUgrgxsbGmx4gwKuBkUgkEAqFsLu7C4/Hg5aWFggEAnR2dvJSXko5BYqb3p6enmJ6ehpCoRAWi4XGdX9/j0AgAJ/PB7/fj52dHQSDQczMzKCmpgaLi4uYmJhAQ0MDVCoVxsbGsLm5iaGhIaqhKH6/HzmH+XyewEkMBgMODw/ps7/0SrlcDqFQCHt7e/D7/ZiYmKADvrOzE1tbW2huboZMJoNarYbFYkF3dzeMRiN5bLu6uhAMBpHNZinla3t7Gz6fDz6fj1pk9PX1wWQyweFwwGq1oqKiAlqtFtPT0xStGB4e/tVT8mGI8enZ2RmMRiPkcjmvSe+fTsVyMJ1O4/b2FhcXF/D7/bBarQSvzfoLMkCNrq4uWK1WQoBlEaze3l5qwXF3d4eDgwMEAgEcHx8jHA7DZrOhpqYGKysrWFhYQHV1NaRSKex2O05PT7GysgKtVguXy/XHg6AkEgm0tbVBKBS+ATf6HalYsY3FYlAqlVAoFFhcXKQyinw+T/OiUqmo1hwAUqkU+vv7CcRqc3OTdM5AIAC/3w+/34+TkxO43W60t7fD4XBgeXmZ2oG0tbXB6/Vie3sbGo0GLS0txIt/Da8/k0oZXsX6IIA32W7/lVe+i+H1GYk7sdlstmQNFavdUavVvFRB7j0KhQISiQQGBwchELw2auvv78fW1havQJ4t2unpKfR6PYRCIex2O9LpNPL5PNbW1lBdXY1wOIzt7W3IZDIsLS3xnvW9hQO7F/MoMThNu93+3Z7xvaj4vff39yl9hhV5s+vem6unpyeCUf9/7V1/ROv/908mSSZJkiSTSTKTJEmSZJIrSZJMkkkykySZMZkkk8kkSZLkmplkkiTJTGaSZJIkySSTTJL7vvfx/eN+z/k89+r1Wrv39n7f+363c73c9no9f5zneZ7neZ7n83nOeYoLL9F/T27hJZ42Hh4eIisrC93d3bJ4EQQCAbS0tHDUKjrpKigowNHREYd0z87Oxvz8/HuSKgGk/Ap8n+AWFhYSTlTp+0c2ASKQ25E/ODhAZWUlm1/V1NQoXtZIT3Z2Nsxms2LUsi9fvmB1dRWVlZWYmpqCw+FIuKD7/PwcOzs70Gq16Onp+Sea/q+CQCCAqqoqqNVqOJ3ODx1OnsatVI7ROxHcbjcyMr5fJTE2Noby8vI3eTknJwcej0c2yBOdmJWVleH6+hrDw8PIyMiATqfD0dERgO9moaWlpWw2/5Hh/v4ePT09yMjI+M+bGsqdJohRDe12O19V8Pz8jKamJp4n9/f3E/jYZrPxppbdbpddwO/v70Or1SIvLw+RSARer5d52OFwAPhuIl5WVoa6urpXAWbSkIZ/Aj7swksOSMmmO03ogs6WlhY8Pj6+WvXS78vLS76nSYz9X19fD4/Hk+D07fP5kJWVhaqqKuzs7OCvr39heXkZer0enz9/5hOxmpoahEIhDv6RzGzzV9pLbfZ4PMjJyYFKpcLo6GhCmj8ByCmb6OD1ejliJvklAP9TPCi99Mg4GAzyiZU4GYhXGIhlSMvz+/3Izs6G0WhkvKSC+/LyErW1tWhtbcXZ2RmCwSCqqqqQkZGBgYEBPD09IRwOQ6PRJAQz+TtArv+enp5gtVpZOZLeS/WR4Ru+JUReo/F+dHSEmpoa9ilcWVlBVVUVhzMvKipCfn5+ggJbWFiI1dVV9g8Vx9vLywvm5uZQWFiIxsZGXF9fY2xsjH1k6aRsZmYG+fn5GBwc/J1k+SOBgmuo1Wq43e4PrdCLMo4CZjw/P+PLly8JGwlfv37lTRer1Yr7+3tsbm6it7cXnZ2d6OnpQU9PD8srlUqFT58+wePx4P7+/pW8e3p6gtvthkajwfT0NM7OztDU1ITi4mK43W7E43FcXl6iv78f9fX1ODw8/PAyhtwS6NSRosr+V4F4kuZjOvFSq9V83QrxldlsRnZ2NvLy8uD1ehMWbRQ9ODs7G+vr6682TOk+OZVKhaqqKtzc3HD03pqaGgQCAY7gXFpaCovFkmDmmJ7/0vBPQXrhJYA48OgSXrVazXbISmaTLy8viEQisNvtaG1tTQjOUVlZyeF4ge875yUlJdDpdNjd3WVH28rKSlxeXsJqtUKn02F1dRWXl5dYW1vD6Ogotre3X0XA+1W/L3GRQY7RKpUKFoslIc3vBumOGZC48BoaGmIfPAqqQSaedMs4La6Wl5fZFpzKjkQicDgc8Pv9fMfD0dERQqEQYrEYL/guLy/Z9It2z0jJITp9+fKFfXYsFgu+4Rt8Ph80Gg1UKhVmZmbw+PgIt9uNzMxM9PX18YnI301romE8HmefQp1Oh0Ag8I/U/6cDjWOfz4fj4+MEp+/Pnz+jsLAQGRkZHE42FArB7/dja2sLBwcHWFlZQUNDA18KPzk5iXg8ztFTaVEHfDf/0ul0yM3NxejoKG5vb/ly256eHtzf3yMajUKv1yM3N5f57aP3kdh+n8/HF2AuLi5++IWXOB+cnZ1hbm4O6+vriEQifKdXMBhEW1sbVCoV+w1++fIFsVgMsVgM8Xgc8XgcDocjwb+QaCvK4OfnZ/h8PtTU1MBkMuHy8pJPIRsbGxGJRHB9fY3R0VEUFBRgfHyc/ZlIEf+IcH19zaacDQ0NCIVCvxulvxXEzcvn52dsb29DrVazPyBtmgLffQsLCwuRnZ2dEAL+7u4O7e3tbFUUCoUSgiF9w/egHTU1NSgtLeXIsGI4+fv7e4RCIXR2dvLVBx9dnqbh90B64fX/IE4oV1dXMJvNqKiowNTUFO7u7hKEhzQf/f/8/Mw2xwMDA8jPz0dmZiZqamrw8PAA4PtpiNFohEajQW9vL0ZHR9HQ0MC+XcXFxTAajbi4uGChUVRUhOrqakxNTeHy8pInrF91UhZxPzo64kszxROvP8X0jPB4enrC8fExnw5kZGSgsbGRTxaB7xE2tVotWlpa4HQ6sbm5Cb/fD5fLhcbGRjQ3NydE8qOw3o2NjfD7/fB6vaiqqkJ1dTXMZjM2Njawvr6Ovr4+lJSUwGg0IhwOJywGv+EbRy1sbW1FU1MT26jv7u5Cq9UiMzMTAwMDWFhYQFNTE9cnnrT9XSDlUzK51Ov16YXX/0MkEkFfXx/y8vJQXV0Ni8XCt9739/cjNzcXOp2OL+IUd3HJ5Hh8fBxqtRparRZHR0e8aBdPX29ubrC6ugqtVovR0VGcn5/j4uKCT9h7e3txeHgIp9OJ0tJSdHZ2ssnWR+8jsf0bGxsoKChAXl4elpeXP7zvkChD3G43W140NDTAYrHA4XCgtbUVRUVFHMhFBHE+WV5eRnZ2NqqqquD1el9dvwF8N/eurKxEcXExAoEAXl5esL+/D51Oh8rKSrjdbphMJhQXF0Ov1+P09DTh2o6PCtfX1xwll6wi/stA/BIKheByudDa2gqVSgWVSoX6+npsbW3xpvLV1RUmJiZQUVGB0tJSTE1N4eDgAA6HA2VlZVCr1ejo6OAFmeg7Pzg4iJqaGiwtLeHp6YkvqM/Ly8PIyAg2NjbQ3d2NoqIiPiFPn3al4XfAh1x4SQeYdNDNzs6yKYZcqG/p6Qu9k+7idXV1scmReOnq7e0tXC4XRkdH4XQ6cX5+jqurK54oZ2ZmYLFY2OF5fHwc9fX1UKvVsFqtSdvyM3T4hm84OTlBbm4usrKyMD4+/tNl/l1AtD4/P38VQZDMD0iRCAaDr8Ink29Oa2sr77pSP5K9vU6nw8bGBpaXlzmiJT1ZWVmorq7me0ekSjdFhtRoNCguLsbBwQGfcohmq2K0ymAw+Mq59++YAKRl06lc2tQwEcLhMEcelD5ZWVno6enB8fFxQqQjsf+fn58xPz+PvLw8tLe3J4TOFhVWk8mEzMxMDA4Ocgj05+dn9o1RqVQoKChAVlYW7HY7otEogPSiS8qfa2tr7KS/vr7Op4kfFUTabG5uJkRyIz+turo6zM3NsaIrNaemMsLhMNrb2zE+Ps58LN18JH612Wx8OhyNRjE6Osq+ipmZmfj06RPfhSk1ffyI8PDwgJGREahUKgwMDPznoxoSmM1mFFSjouYAACAASURBVBcXo6ysDGVlZdDr9aioqEBbW1tCZN+Xlxfs7e2xhYE4xw8MDODi4iLBPxsAX3/gdDrx5csXNuema1PEp7W1lTfTP/qcl4bfAx9y4SUFGnyxWAxerxcmkwn9/f04OjqSDS0JvI5yIjo3Uxqr1YqcnBzk5eWxAy2Vc3Nzg0gkgtvbW1xfX8PpdKK8vBxWqxVOpxNlZWUoKirC6Ogojo+PMTAwgKysLAwNDSWU8x7t/vr1a8LCi26BpzR/AhCuNLGPjIzAbDZjZGQEIyMjsFgsrCDc3d3B5XJhZGQEw8PDnNblcr265gD4brI0MTHBl3xeXl7CZrMl5Hc4HNjc3EQkEuFFl3Qxfnx8DIvFArvdzjtyxDNra2uMq9lsZv8H6aLo76K3iKcY1bCqqiohuMaf0t+/Ax4fH+Hz+TA2NpbAWyMjI5iamkIwGORTVbnx/vXrV4RCIVitVmxsbCREdhXTzc7Oor+/P+G0E/h+gmAymWA0GjE0NISxsTFEIpGEu2Y+MkjHyNbWFvt4uVyuDx1cA0iU1be3t1hcXITFYmGZMzMzw+bt0vRiWG3g+1g4PDzE2dkZm2uL37/hGzweDyYnJxEOh5mPX15eEA6HMTs7C7PZDJvNht3d3Vc+uB9Zzjw8PPAVNp2dnUkjJv+XIBAIcNTfz58/w+/3Y3NzE9vb2+wqAHznETLHF+XwzMwMB6aS0mtvbw/Dw8MIhUIJMuL09DRBjk9OTsLv93MZYjkfoQ/S8GfAh1x4ySlDX758wfb2NjQaDUwmU4LZCgkCUUkCEu/9kdsRpN3vgoIC3rUWd8ip7OXlZRQXF2NsbAyxWIzN6Lq6unB9fY2XlxdYLBY+/ZK24VfoQOUEg0G+sJlO1f6kHaFU8Ugl3a9+TyW9qKAolfd33c0mByI+z8/PcLlcyMjIQEVFBXZ3d/8RHP4LoNRf4u7rW/lfXl5e+cyI5Up9lf6kcfg7QUqHQCCAiooK5OTkYHh4WDF6ZBreH6S8+BZ/fnTeFeHu7o79ObVaLTwez4c3kxXhV+df6eltGtLwp8GHXHgB/xucpCydnp6y/fvS0hIHTXh8fITf74fD4eBF0MXFRUIwBzrWFpVbABgYGIBKpYJWq+UTEHGxQ0qwwWBAUVERDg4OcH5+zndNzc3N4eXlBU9PT2htbUV+fj6HHn+P3W8RF7rHKycnBzab7dX33wlyiqf4W/xfujMrDX6RrCzpglxaRzKlm75J/Xnk6pD793eDWAddX5CRkYHy8vL0PV7/D3I8oHTFgFJ+cWNFzh9UWpYSv8ml/+ggpQVdzZGVlcV+sWn4DlLZJXdC+6tly/Gw9Pt71flfgng8DpvNhoyMDPY3EgNM/FdBaf7+kfRKc6d0sSXl/TQvpuFPgg+78KIB+fLyArfbjerqar7RvLKyEg0NDWhoaEBdXR3fsxOPx+Hz+aDT6WA0GhGJRBCPx9HV1YWWlhbMzs4iGAzyBcx6vR4FBQUcMlUK5BdUWlqK7u5uPD094fT0FE1NTcjKyoLX68XT0xPW1tZQWlqKvr4+nJ2dyU52P0sD+kcnXmq1GrOzs4zfnyCklHaw5BRicUEt/Vsu7VvKtlxdUpDWK9b9Mwr83wEi7vF4nMPslpeXczj7P6Gvfyd8wzf2D5Cb0JONN6U+lqZRUhxEHpLjz4/eN8DrMUjBNVQqFTo6OhCJRH4zhn8myCmevzpvULlS2SpNl+bf13B/f4/e3l72/3a5XB9i4UXwI7ygtICid3LfpfOu1LIkzYtp+N3wIRde4mQQj8dRXV3Niw61Wo3s7GxehGVlZaGkpIQjlLlcLmRlZUGj0cDn8yEWi0Gj0SAzMxN5eXmorKyEwWCATqeDwWDAysrKq6iINFmFQiF0dHTg06dPODg4APDdDMFkMkGlUmFwcBDj4+PsgBoIBF4phj8rRKQKIkU1zMnJgd1uT0jzp4DS5K70t5wwVipHfC+npLyldCdTqsV0Ul+KfwpEnGKxGF8OXlFRwdEXf5Wn/gsg7Te5hZESiGHjUyn/G/53Z5gSz8nx70cF6bhaXl5GXl4en3j9U9cy/BtAas5O735lISTHl2J9yYKbpPvkfxCLxTAwMIDMzMwPt/Ai3qG/30onlcVK87hUVkrTJbNESEMa/mn45YWXVBiL78XvyUy4xP/lyn7rnVw5ckq43L+vX7/i6uoKp6enOD09xdnZGXZ3d7G8vIy1tTX4fD6OPvcN33B9fY3FxUVsbGwgFovhy5cv8Hq9GBgYQF1dHQwGA8bGxrCyspLgGE94EB2i0SiGhoZQUFCAYDCYEO1pc3MT1dXVKC0thU6ng8Viwe3trezOTbKTLyWFTtovf339C4eHh3yP19jYmGLfKvVJMpOpVPsjWf8SJDuNkgNpG+SEshJd5HbQpGnkBP3P0CbVUw45/JKNByl9vn79ilgsxhHJSkpK4PV6E/JI8yrRWEoTEZJNkEr9p0Qjud9yk2cy071kdUp/y5Ut9o0S3nL0SiWPEn6p1C2Hp/S3XBulPCGlXzI83qJzqrR5qw+kCpo0/czMDF+B0dnZiaurK9k2K/WHUjuTjWU52iuVl6wvktUv4inlyWQ0VMJZKrtTKUOprdK2yOVJVracfPvRv5PRLhntlfBXmtvk2i2lTbJ09E3KT+Rjm5mZmXBPmpQ+Su0R65WzrJDmk5u/3jIPlWuHUh8q8ZAUL6VNUDlc5HBKlc6p8Jy0/GT8IVe/HI5KdaTSj0p1JeuXt2gtRxcl3Uep7+TwVsI/GZ3FdGJgMqX6f+Q7gZxsl8NRrg1SmkppIdLyPTZB3+XES7rTK0cgKTO8xVjSfHIMrCTEpeXKMYIS03z9+v2i3fv7ezw8PHBQDVqgvLy84O7uDrFYjPPQhburq6vY3t7G2dkZ7u/vE+4+ke60xONxuN1u9Pb2JlwqCQA3NzdYWVmBzWaDy+VCKBRKuOtJri1SeskJIalZiHjzO12gTBcXivjI9cVbA0JJ6Ip4y5mpyP2WMr7Yz0qgRBexHDkcxXtmlNpHkGwyEcuVo6HSZC/Xf1I6iCDF4a0FIPA9qpbZbObLKN1utywu1EdSQSkXFERpDKaqyFNblMav2DdKvChHZzncpOVK2y1tgxJtpG2U62OlRZwSjeRwk/tfTsGS+ydXt0hrJVoq0V2KmxwNRFNbpX6XeydXtlIbAWBychI5OTnIzMyEwWBIuJdKqY9TGSNyPKVEn2S4J+sHuT5RKlcpjxxNU6lHLn8yZUKuLrlxrSQ3lXhWaXwkwzvZ+2T8nmrZqfTXzwKVSwsvlUqFsrIybGxsvLpW5L0hmRxOBaRzgFI5ydK8lU+pHLkIwkp9LXdPnFJaJVkjl/et9iTL+1aaH+2LVMsl2S1XjxI95frvy5cvCZYZyfrqLR6RkwvJ+oe+Kel94m9RVxG/Set6qw1yOBMO7zU2f2nhpdSR0jQiEyg1WEkBAvBKYEvLUVLslUBUYJIxplyeVMoXO09JiQDACzwxGpqY/uXlJQG/ZIueZIyfDEf6e39/n8PJ04mXVNjKLQiUyv6RHRO5fkiFweUGi9IiXe73W/2ZCn8r5X1vUBIWPwPxeDzhAmoyLU213jSk4U8Ah8PBJ14Gg+FdLqJ9D15/zzHzq5P9N3w3Z6W5RFrWj1xoLJ0DxDLkzAy/fv1+t51c+G8lPJ+envD09ITn52fGmaKA0jvxobaJbaBy4vE4np+f8fT0hMfHR8Tj8VdlU73xeBzxeJyVTApqJfdQ2ng8jsfHx1fv5J6npyeuMxaLYXx8HCqVCiUlJXC73YjFYlzn4+MjHh4ecHd3h/v7e8RiMcRiMdzd3eH29ha3t7eIx+Oc/uHhAQ8PD0yjWCzG6R4fH7lvaFOZ+iMej+Pm5ga3t7eIRqO4vr7mv+/u7hjvp6enhP4lHewtXYCCk9G1KV+/fuU+SxWoP6R8JaeXfPnyJaFvpXxPaek9vSOcRP57enrifMR/It8RbtQ/1B9iHYQP9cX9/X0C3zw/P/Ni4enpCdFoFLFYjHlA5DeiI+lJz8/PeHx85PcinxHulE78DSDh738SkvGKqOvK5ZOCKMukPJKKvJQu0iifKEeSbdL9KrzLwktkamKofwJ+ZoKTDgwACQNXFObShQzlkS7c5Ha4STiJeUScxW/iYKZv4sQip3DLTZh/ff2LBzPhSwymxGiEG93jRWHsn5+fX+FNILZbbD/hLP1ND00MYpvldkFJ2NFgpMmC0kiFqxx9xP4RcaXBTf1N70Q8Kb10UqP6Hh4eWECK7RIndamyQEKSJlU5ASyWIfc3tYHqpTrEiV8U1oQ7Cefn52fE43FEo1G+JDwjIwOTk5O8CSAKf6qH+pLoEY1GOR21SVQQaCKi9Pf396xEiDSgh+qlNFQ+/ab/6dv19TVubm4Qi8US8t7e3uLy8jJBgaB78q6urnB9fc3vrq6ucH5+jouLC1xeXvJ3UkQuLy9xcnKCSCSCi4sLXFxc4Pr6Gnd3d4hGo/yb6r+8vMTl5SXOz89xfn6Oy8tLXFxcIBKJ4OzsDJFIhP++uLjA+fk5mzZHIhH+HQqFEAqFcHJyguPjY4TDYf47FAohGAzi+PiY0x4fH+Pk5ITzUR56QqEQjo6OEAqF+B2ZVW9tbWF3d5fzUvn7+/sIBAIIBALY29tDIBDgOo+Pj7mOQCCAo6MjBINB7O7uwu/3w+/34+DgAIeHhzg8PMTOzg78fj+2t7exu7uL/f19HBwccJq9vT3s7u7i8PAQgUCA8dzZ2YHP5+N3lP7o6AiBQACHh4fo6+tDVlYWMjMzodfrsbKywu3d29vD1tYWdnZ2cHBwgKOjI5ydneH4+Jjbtb29Db/fj/39fc6zs7PD5R8cHCAYDDK+gUCA04ZCIWxtbcHj8cDr9WJ3d5dp5vF4sLKygrW1NXg8HhwcHCAcDuPg4AA+nw8ej4frOTg4wPb2NuNKePl8PqytrWF5eRkrKyvweDzY3NzE58+f+fF4PPysrq5iZWUFy8vLWF5exurqKjY2NrC4uAiHw4GpqSksLCxgaWkJq6ur8Hg8WF5exuzsLFwuFzweD9bX1xnn9fV1LC0tYWlpCSsrK1z2wsIC3G43VlZW8PnzZ6ytrWFubg4rKyvY3t6G1+vF2toaVlZWMDMzg8nJSTgcDjbdp3I+f/6M5eVlLC4uMs5zc3OYmJjA5OQkrFYrpqenMTMzA7vdDpvNBrvdDofDAbvdjqmpKczMzPDvhYUFLp/KGR0dhc1mw+TkJMbGxjA+Ps5l2+12OJ1OLC0twel0YmxsDGNjY5ibm8Pc3BzsdjusVismJycxPj6OiYkJ/j06OprwjI+PY3x8/NX70dFRrnd8fBwOhwMzMzPst00Xs9fW1sJsNmN2dhZ2ux0WiwXDw8MYHByEyWTC8PAwhoaG0N/fj97eXhiNRoyOjjJdzGYzhoeHMTU1BavViqGhIfT29qKvrw/j4+NYXFyEx+PB3NwcxsfHMTU1hfX1ddhsNvT09KC3txf9/f3o6upCT08PjEYjBgYGMDY2xv2xuLjIfLq6uoqFhQUsLy9jY2MDXq834Rv17/z8PCwWCyYmJrCxsYGlpSXY7Xa4XC58/vyZ7/Dy+XzMS8SbPp8PGxsbmJubg9PpxOrqKvev2+1mvllYWMDCwgJcLhemp6e5b+fm5uBwOOBwODA/P4+lpSXmN/q2uLiIxcVF2O12zMzMYHZ2lvvYarVibm4Oy8vLcDqdsNvtmJ6exuzsbML7wcFBDA8PY2xsDFNTU1zm9PQ0nE4npqen0dfXh76+Pr6bcXR0FBaLBTabDU6nE7Ozs5iYmEB/fz+Gh4cxMTHBdJuYmOB7JScnJ7G8vAyPxwOHwwGz2QyLxYLJyUlOR3mWlpawvb2NmZkZ2Gw2rKysYG9vD5ubm5ifn8fe3h7Ozs6wt7fHss7v9yMQCLDM29rawtraGrxeL3Z2dlh27+/vY2trCz6fL0Em7+/vJ9zRtr29jc3NTayvr/MY93q9CIVCCAQCnN/r9cLpdGJhYQE+nw+bm5vwer3w+/0sT+j+t93dXWxsbMDtdrNMmZ+fx9zcHHZ3d7G5ucnykuYgKmt7e5vlJY1zkq8kj0g+Li8vw+12w+12J9AgEokk6KI/C++68IpGo/B4PNjf308w1ZPu/jw8PODq6grRaJSVL1Li6DspVaR4kTJGuwZPT0+4u7tLUKikiibtGt3e3uLm5oYVsMvLS4TDYZydnSEajbKidH5+zkrM8fExrq6u+Lm+vuaJm5SnSCSCk5MTnJ6e4uLighUaUuBI0To+PkYkEsH19TUrhZFIhBWjYDCIQCCAq6srxONx3N7eslITDodxdXXFuya3t7dcNyl/pHienJzg4OAAJycnuLi4QDgcZsWM8Ca6UznHx8c4Pz/HwsICL7waGhqwv7+PUCjEeUSFNhKJsCJG7T85OUEwGMTR0RHTMxwOs5ISCoV4gIuKHpllPjw84Pz8HJFIBFdXV6xwnZ6eYmdnB4eHh9wXpBCdnJzg5OQEl5eX3M/X19e4uLjA2dkZt5vSkdIZjUa578RvpGARTfb393ky2Nvbw+npKcLhMA9MUp5IIO3s7LACRgosDX6Px4PPnz9jY2MD6+vr2NzchM/nw/r6Ovb29nB8fIyDgwPs7e2xMrq9vc1l7+3tIRKJsMIcDAYRDodxeHiIra0teL1enshIaSXcNzY24PP5WDFyOp1oa2vjhVdXVxd8Ph9mZ2d58tja2sL29jaOjo5wcXGBUCgEv9+PlZUVVoCWlpa4XfPz8yyo5ufn4fP54Pf7sbq6CrfbzQoeCWZSKknhslqtmJqaYuXDZrNhamqKJy+n0wmXy4WpqSlYLBaMjo7yhEsT58TEBAYHB3lSs9vtmJiYgNlsZiVmamoKNpsNg4ODrGSYTCa+ZHZsbAyTk5MYHBxEe3s7urq6MDAwgIGBAVgsFlb2qB6XywWHwwGTyQSTyYS+vj50d3ejv78fPT096OrqQkdHBys4vb29MJlMGBwcRGdnJ783Go3o7OxEY2Mj6uvr0draitbWVjQ1NaG9vR0GgwFNTU2oq6tDW1sburq6YDAY0NbWhvb2djQ1NaGxsRHNzc1obGxEQ0MD/19XV4eGhgY0NTWhubkZnz59QkdHB7RaLXQ6HedtaWlBfX09dDod6urqUF9fj8rKStTU1KC5uRltbW0wGAwwGAxoaWlBbW0tmpqa0NTUhIqKCpSXl6O8vBy1tbX8VFVV8fuKigrodDpUV1ejuroaNTU10Ov1qKqq4vqam5vR2tqKyspKlJaWor6+Hi0tLaiurub66uvrUVNTg5ycHOZhlUqFiooKtLS0oKWlBTqdDhqNBlVVVYx/d3c3DAYD6urqoNfrUVFRAa1Wy9+rqqpQUVGBhoYG1NbWoqamBg0NDYxrXV0d06u5uRkajQbFxcUoLi7mSLj19fUoKSlBfn4+CgoKUFJSgtraWrS0tECv16OkpARFRUVcr16vh1arhUajQUVFBdOrpKQEBQUFyM3NRV5eHkpKSri+oqIifqj+/Px85OXlcYAouj9SrVYzjXJycri84uJiqNVqZGZmIisrC0VFRSgoKEB+fj7/TQGn8vLykJeXx/c85uTkIC8vD0VFRcjPz0dWVhYKCgqg1WoZF5pLMjIyOPCUiGNhYSGXp1ar2dqC8qTyZGZm8t+5ubnc3lTLyczMZL9mkY/E3//kI7bnZx4lvNVqNYqKihK+S3+/9ajVami1WpSVlTEv5OXlobCwECUlJSgvL0dpaSn3ZUFBQcL4LCoqQl5eHi82CwsLUVZWBq1Wi5KSEhQWFjKfFRcX8zsKcEZ8Q3xCvJydnc2bL0q0oPTkSkFp6V0yeqrV6oSyMjMzoVKpXvGNOMays7P/Nh4hmqfSX+Xl5TwW1Go1KisrUVFRgezsbNTW1qKrqwtVVVUsj7VaLerr61FXV4eamhpoNBrk5+ejpKQkQXbrdDqUlpaipKQE9fX1aGhoYFlG8k2j0TBPkDzIzc2FRqNBW1sb6urqUFpaipqaGpSVlSErKwu5ubkoKSlBSUkJiouLWd6RTCopKYFWq0VhYSHLjYKCAuYBmjNIXtbW1qK6upr5s7y8nOUnjXOScUVFRRxcTpR12dnZyM/PZxlvt9v5KqnftvASKw+HwzAYDDzRGQwGtLe349OnT/xQBL/29naeYClNW1sbp2tvb0d7ezva2tpYsWhtbWVFo6OjAx0dHawAtLS0oLW1lfOK5RgMBlZiKG1zczPq6+vR2NiI1tZWVliampp48qQJX3xIKWpsbGRlhcLOi7+pPvE7KTbiN2Lyuro6npypXbW1tayMtLS0JLSD6mpqauJvBoOBBwB9o3ZQmwgHKovaS4oTCZK8vDxUV1ezwtbc3Izm5uZXdKC20UM4kzImto/aWFNTw3gRTtTHpDQ2NzejtraW6yCli/CoqalJ+C62ifqXcBLbT/UZDAY0NjYm9A8pc4RfU1MTampqEpQzSqfValFeXg69Xs9tqqmpYQWNlE56X1tby0KPnqqqKlb0qquruX4SgtXV1dDr9QnvCGdSjInmOp0OVVVV0Ol00Ov10Ov1qKyshFarhVar5frofUlJScKEU1BQwO+LiopQVlbGZREtSOkkwUfCtbKyEpWVlSgrK+OntLSU8aHJuqSkhN8TbiQMS0tLUVBQwMK1sLCQHxLClJ8m8Pz8fK6LFFBRUSUcSdmjibqoqIiVPnECp0mfFGYyYcvOzuZJgwQwCen8/HyUlpayEksRUancrKwsFvCksJJgp7T0TqoU0ARPirGoXGRlZXE94jd6lBQ5+k75pfXQ/+J7qcJB+cU8UgVEDpdUlE4qT1ScqT4pDkrlED3klCglZUnaVikdpPRUUs6V3ot0krbtZ5R84tm/S7n70Sc3N5f7j5QhGmM0LuT6JCcnJ2F8l5WVsUzQaDSsMImKYXl5OS/wRCWf6Ei8SYGp8vPzkZOTw+OaFqIqlYoXwCTjKyoqoNFoGA/SZUjOksxUq9XQaDS8kBD7s7CwkBfc1dXV0Gg0rBzSPFJcXMzp8/LyoNFoeI4Q+UGtViM/P595t6ysjOcfkhdZWVm8+KX2E12oDJ1OB51Ol6CwivIpOzsbxcXFKCsrS4jqTME/aM4l+hUWFibMI0RbmkdqampQVVXFspfkZmFhISuwRGeicWVlJcrLy3kzgPhCVOLb29sxNDQEo9HIc5ler4dOp0NtbS0aGhpQUVHBiwIqX9xEaWxsRF1dXYK+RxsvpEN8+vQJnZ2dvAHS0tLCOmlvby96eno4H+mlxGv5+fnQaDSsl1RXV7OuYDAYYDQa0dXVhaamJl7A6HQ61kNIzyJdinQaWkSQvkQ68KdPn3hTjvQgamdbWxvrVG1tbaiqquINqp6eHvT19bFeUF9fj6KiIuanoqKiVwtTtVrN/Uj6AG3M0Fil8UayluZO4ilazNLcTvN5dnY2NBoNjyuVSsV1FRQUvNqwqaysRG1tLfOgOD+qVCreGBI3GEgeFRYW8rxNm03FxcWsqxQVFTEP6fV6NDY2Mp+ur68jHo//3oWXWPHe3t4rQZR+/l3PzyhM6ef39tev9DMJQlHJpImZJk2l/EoKrvjQziYtKGhBIrc7SYJaxIWEpHRBQsKeBHtpaSkqKiqQl5eXwMPioooWd+L3VB6VSsW0oLppV42+06QgLoBowsnJyWFFJzs7G4WFhQmnQzQZ0AQtKj3iQoQWgKTEZWdn8w4eKb6UTlzoUR9TOfQ3Ta6i8kUTHF2hQTumIh75+fk8+dGudXl5Oerq6qDRaBJ2qGniFJU56uvCwkJWGKkfqX5qHylt+fn5rEyKfZmbm8tKO+WjtpDCRoqAuLNJu7y0m61Wq3nBTzutBQUFrCSSkkebAVQnKYuiwkBKPJ3w0UZYS0sLn3DW19cjJycHtbW16OnpQWtrK+rq6lBVVZVwgkY8Qe8qKirQ2NjIJ7RNTU1cNz20GUELB1K66aENH71ez5s7tBkibiRVV1ejoaGBNzAbGhpQWVnJp5O0eSkqk52dnRgeHsb4+DgsFgufFPf396O7uxt6vZ6V6NraWhiNRthsNlitVj7hJvMwMpubnp7G4uIilpaWMD09zeaHExMTbIJnsViYjt3d3ejt7YXVaoXL5YLJZILRaMTIyAgsFgtMJhNvzI6Pj2N2dhZOpxMzMzOYmZnB1NQUn6DPz89jcXGRTaV6e3vR2tqKgYEBTE1NYWBgAPX19XwSazAYYLFYYLFYYLVasbCwgKmpKYyOjsJoNGJmZgZLS0uwWCyor69HW1sbTCYT7HY7m322tbXxBp/RaITZbEZ3dzf6+vpgs9mwurqK6elp9Pb28kn6yMgIurq60NzcjJ6eHphMJvT29qKurg69vb1smmc2m9HT04P+/n4YjUb09vaiu7sbRqMRk5OTsNvtGBwcRHd3Nzo6OtDV1QWr1YqtrS0sLS3BbDbDZDJhdHQU8/PzsFqt6Ovrw/DwMJvGzc/PY3l5mc0MyVSSzC1tNhvm5uYwPT0Nu92O2dlZrKyswOVyYWZmBsPDw+jt7WUTRzLRdDqd2NvbY8ujhYUFOJ1ONu0j014yrSMLCjKDJRNGj8fD0arJdHdlZYWtRba2ttg02eFwwGazwe/3Y3d3ly1TwuEw59va2oLf74fb7Wbz0unpaTalJLPDhYUFDrwWDofh9XoxPz8Pu90Ot9uNjY0NfP78GT6fDz6fj9uzs7ODzc1NNoPz+XxsCk4WRGSu6ff7sbOzw+af+/v72NzchMfjwd7eHlwuF7q7uzEzM4NgMIhgMAiXy8U8bjab0dHRgYGBAZjNZhiNRhiNRrS2tjI/jo+Pw2w2s4kfmaUSvUdGRtDf34+BgQF0dnay+STJgE+fPqG7uxsjIyOYnJzk9H19fWyKazab0d/fz3LEYrFgZGQEQ0NDMJvNGBoagtPpxNraGmw2G1ua0EFLb28vaf9WqQAACT1JREFURkZGuD96enrQ2dmJgYEBmEwmjI2NJZggj42NwWq1ssUPjQUaw2TRs7i4iGg0+i6+X+92j1c0GsXCwgL6+/v5hKq1tZVPrRoaGlBeXo7Kykp+TwJQPKmgkzDK09zczBPN8PAw+vr60NHRwadHZAJkMpnQ39/Pndjd3c0nSzTxtbe3o6enB0NDQzCZTGhubuadFJEBOjs7UV1djY6ODgwNDaGzs5Pb1NHRAaPRyCZJFosFnZ2dMBqNPDHYbDZYLBYWcD09PXx8azAYMDw8DLPZzKZNNpsNo6Oj6O/vx9DQEGw2G2ZnZ2Gz2XjiIltyMr+yWq3MhGQmJdqR0wRCZlvDw8MwGAz49OkTJicn2Xae2kx2yjabjds8ODjItNLr9bw7Q+ZR1H89PT3o6enB4OAgm3SROZjFYsHQ0BCbRnV2dmJychJDQ0NoaGiAVqtFV1cXTCYTT9S0m2M0GjE4OMimWL29vWhra0NjYyO6u7v5W1tbGzo7O9HV1cUTb2dnJzo7O9l+nSZgo9HIfEKTscPhgNvtxtjYGPOa1WplMzWz2YyRkRE4HA54PB4sLS1hbGyM7eDJPtnhcLCwIHM8mmzIxNDpdPKEQLbjs7OzWF9fx+HhIfb397GxscH+HjQhLC4uYnZ2FvPz89jf308wNSSflaWlJXi9XhwcHPDfwWAQ29vbWF5eZtNFsrV2uVzY2Njgevb39xP8jk5PT9n8ksxhyaabTDiPjo6wtbWFlZUVtvsnv5pQKIRIJMI+OmTeGwwG2T/G7/ez2eju7i68Xi9PGicnJzg7O2ObcGorvSdT2vPzc1xdXeHs7AyHh4fY3t7G3t4e+0ednp7i/PwcZ2dnCAQCWF9fZ98eMtOkCc/v92Nvb49t2QOBAJvSkq8TmST7fD4cHBywWevR0RF2dnawvb3NvlCiqW84HEYkEmH/LzLhDIVC7HMWDocRDAYZB9F3i/qGTJTJV4zqJtNk8pM6OTlJ8FUi01/ydyJzZ8p3dnbG5rTk/xYMBtlcNhgM4vT0lM10pf5vhD/5qJG/G5lbkz8YmV6Tnxq9E+sns+Czs7MEs2Ey86Z3hKdYB/WR+J7yEq9cXV3x+KH20vfLy0v2u6O09I7eS/uRTM3J1498B0W/QTIJp+tLyOxbNIOnOigv9THhdXNzwyb4Nzc3CfXTQ2mpDNFkXukR/RzpIbzJVF8s8+bmhr+L7gDk60nv6IlGo7i6ukqgy93dXYKvp9Ij9Y99fHxMcEUgP8ubmxumcSwWY1cD0Uf0/v6e+4LcG6hM6f9iQI54PM7m7IT33d3dK1pRHWLZFBiDfHvv7+/ZbJ9wpfpEtwjR55Xyk9+siItc+wm3aDTK7ZD2ifiI7h3k1kE0It9g+k74UrvoHdGNgkNIv4tppG4h9I5wpLRiHvI3pmAocm4sUv9hsQ+lD/lHi3+TTzYFBiH/bqm/uhi8hQJdUBulgTGo36XBNOibmF7MRz7WUh9uOd/5ZG2iPOSf/fDwwHlFPpf6WhNvEE9Sv9zf33MfUxrqJzkeE+UDjT1p0Ji7u7sEf3FRjkjHOvmKE/3eKl90UxJ5VfRJF3lGyqticB6KC/GrAZTezdSQIhgR4UQH+bu7O57Ew+FwAnFIEFLnigKMJgIxGAERhoSdOHBF4RyLxXiyEP3AyPE/Ho/j8vISgUAANzc3CYM2Go3i9PSUowdRp9KkJx3w1EliIAQRJ/JfOjs747rkItHICQmpn5x0QEnLIRzEh9JRn4jpiNnEesUBSniRU/rx8XFCUATyzxInD2kbiCdoYqB6iSei0WgCvcRyxSARNOGQTxfRXjrQCDcpTtKJluhGtBCFpFykKhKcLy8vrwSqGAVLrp/EKEdyjxjVUQz6IQYqobTJxh8FhRGjBNE3MXAJBfMQr0qQEyRywU+kIEYek14ILMVTLFcaIEYMOqMUZTIVYffWbhS1WRqARYzUJYezXLul9HivKEiptDVZNDqlUO5p+A5pmrw//N00lY6JZONU6n+uVF6y8pPhoSQHlfB5K8R5sjb8aD6l76nIhFTKS1UGvwVKdPzRusUAaKmmk6aVyytetyMNaa9UZrL5Uq5+ORyTtUHpugqlfKmMjWR98NZcLo1E+CMy4C3+VqLVr8gZse3J5mppxE45mv0KHu9y4pUKEnIMIvdNSVDIlSWHhxyjK+UVmU7uvTSin5gmWXj5VAbojwwUpfYnG8hK99EkG/DJ0srdkSClXzJ8ld6LCrA0/c/Q+mfweCu9XBh/sW4lnhZByk9KbZCr80dC5EvrFqNtyoUAluNTpasA5NqtFFI4Wfuk44joIr2uQOk+KGm9b9WtFPpYGjpWCU/xnYirXDql8aPUfmm7qA6lkMlK9aTCL9I0SvUr1SldoEvboDRO5PqF0iuN+1Twk/JRMtpL2yPWk0yZSXUsyLU9GQ5yc+ZbfCHFW658OVr8zPws9z3ZxadiXUqbOEptlIJc25KNdzl6KvWZXH8qjX3p+x+Rw0p9KY2KLOIud02OtG5pOjkclHhRjselIK1fOv6V5jA5UKKHEs5yixal9oi4KfG3tB/FcqXfk9FM7p8Y8TmZDJHikowe4j8K+S9Nl6z/5MpMpnOIfCQ3P76Fo1h2MvmrdLdaMhkvtleksTT/W7wh5Z+3eEasS0obuXp/Ft5l4ZWM0VLJR3+/le8thktWXzKmT5ZW7pvS72QD4S08U6GVUluU0ifrl58p7y1Ita3J8r93/T9Sn9zvZGX9Ci/IpUmWT26cpAo/SlelsZKs/GTlKZWrVP5bZcj9r5RXaRykirfS+2SbMtK6lX6/BdKy5dqSSvlyOCqN1WTyItUxmGobU5E7yfL+yLdU2vQe+CjxVCpj6EdpLZfvZyBV3MS0Su+SlfkWjm/RPln+VPImwzHZOJZL/9Z3JVkjpdtbvJoKHnJlJpMVP8snqeKZaj+mis97t0NpzCvV+9b7X5EjSuWT5YqY5j1olqz+VGSIEl8l4+NUZZOcHHsvmSA3PuTKTYYDwR+z8EpDGtKQhjSkIQ1pSEMa0pCGNChDeuGVhjSkIQ1pSEMa0pCGNKThXwOpnqb9aZBeeKUhDWlIQxrSkIY0pCENafjXQHrhlYZ/JSjZhMvZ8v5b4b/WnveGfxt9/g04piENaUhDGtKQhjRI4f8ATABDmXIyuyoAAAAASUVORK5CYII=;" vertex="1" parent="1">
          <mxGeometry x="50" y="120" width="862" height="307" as="geometry" />
        </mxCell>
      </root>
    </mxGraphModel>
  </diagram>
</mxfile>
